{"glyphs":{"0":{"ha":1019,"x_min":69,"x_max":950,"o":"m 950 486 q 938 355 950 420 q 901 233 926 291 q 839 126 876 176 q 753 41 802 77 q 644 -15 705 5 q 510 -35 583 -35 q 372 -15 434 -35 q 261 39 310 4 q 176 122 212 74 q 116 229 140 171 q 81 352 92 287 q 69 486 69 417 q 81 618 69 553 q 118 741 94 683 q 178 848 142 799 q 264 932 215 897 q 374 987 313 967 q 510 1007 436 1007 q 646 987 585 1007 q 757 932 708 968 q 842 849 806 897 q 902 742 878 800 q 938 619 926 684 q 950 486 950 554 m 770 486 q 765 576 770 526 q 750 679 761 627 q 720 781 739 731 q 672 871 701 831 q 604 934 644 910 q 510 958 564 958 q 417 934 456 958 q 348 871 377 910 q 300 781 319 831 q 270 678 281 730 q 255 576 259 626 q 250 486 250 526 q 254 395 250 446 q 269 292 258 345 q 298 189 279 239 q 346 100 317 139 q 415 37 374 61 q 510 14 456 14 q 602 37 562 14 q 670 100 641 61 q 718 189 699 139 q 749 292 737 239 q 765 395 760 345 q 770 486 770 446 z "},"1":{"ha":529,"x_min":31,"x_max":431,"o":"m 431 975 l 387 -12 l 231 -12 l 231 896 l 54 789 l 31 822 l 239 975 l 431 975 z "},"2":{"ha":924,"x_min":66,"x_max":847,"o":"m 847 681 q 829 549 847 610 q 781 433 811 487 q 712 334 751 380 q 629 251 672 289 q 541 183 585 213 q 455 130 496 153 q 381 90 414 106 q 328 64 348 74 q 454 72 387 64 q 588 95 521 79 q 718 134 654 111 q 832 191 781 158 l 812 -24 l 66 3 q 186 73 121 35 q 318 156 252 111 q 447 255 385 201 q 557 372 509 309 q 635 511 606 436 q 664 673 664 586 q 648 782 664 733 q 601 866 631 831 q 527 920 570 901 q 431 939 484 939 q 357 920 391 939 q 300 872 324 901 q 263 805 277 842 q 250 732 250 768 q 259 659 250 695 q 281 587 267 622 l 92 543 q 84 585 86 564 q 82 628 82 606 q 110 783 82 714 q 187 900 137 852 q 308 974 237 948 q 465 999 378 999 q 604 984 536 999 q 727 932 673 968 q 814 834 781 895 q 847 681 847 773 z "},"3":{"ha":909,"x_min":56,"x_max":838,"o":"m 436 -36 q 294 -16 361 -36 q 177 42 228 3 q 93 139 125 81 q 56 273 61 197 l 248 292 q 246 270 246 281 q 245 248 245 259 q 258 170 245 207 q 296 104 271 132 q 357 58 321 75 q 441 41 394 41 q 530 62 490 41 q 598 115 570 82 q 641 189 626 147 q 656 272 656 230 q 636 356 656 319 q 582 416 616 392 q 504 453 548 441 q 411 465 460 465 q 358 461 385 465 l 361 542 q 382 539 372 540 q 403 539 392 539 q 488 554 447 539 q 559 595 528 569 q 608 658 590 622 q 627 737 627 694 q 614 811 627 774 q 577 876 601 847 q 519 921 553 904 q 443 939 485 939 q 382 926 412 939 q 329 893 352 913 q 291 845 305 872 q 277 787 277 817 q 281 741 277 764 q 294 697 286 718 l 104 664 q 102 689 103 677 q 102 714 102 701 q 135 839 102 786 q 220 928 168 892 q 338 980 273 963 q 468 997 404 997 q 592 982 532 997 q 701 937 653 968 q 778 856 749 905 q 807 737 807 806 q 786 647 807 687 q 731 578 765 607 q 652 531 696 549 q 562 509 608 513 q 768 434 699 506 q 838 235 838 363 q 819 147 838 186 q 770 78 801 108 q 700 26 740 48 q 614 -9 659 5 q 524 -30 570 -23 q 436 -36 477 -36 z "},"4":{"ha":892,"x_min":69,"x_max":833,"o":"m 833 298 l 746 298 l 749 203 q 750 147 749 173 q 751 96 750 121 q 753 45 751 71 q 757 -9 754 20 l 559 -20 l 579 298 l 71 298 q 69 327 69 312 q 69 355 69 341 q 74 507 69 425 q 85 675 78 590 q 103 843 93 761 q 125 994 113 926 l 343 949 q 308 867 325 913 q 277 769 292 821 q 251 663 263 718 q 230 555 239 608 q 212 453 220 502 q 200 363 205 404 l 583 363 l 623 989 l 747 989 q 746 778 746 883 q 746 568 746 673 q 745 465 746 515 q 746 363 745 414 l 833 363 l 833 298 z "},"5":{"ha":889,"x_min":47,"x_max":832,"o":"m 419 -21 q 276 4 341 -21 q 162 76 211 30 q 84 185 114 121 q 47 325 54 248 l 279 340 q 262 287 267 317 q 258 231 258 258 q 270 162 258 196 q 304 100 282 127 q 359 57 327 73 q 431 40 391 40 q 522 65 481 40 q 591 130 562 91 q 634 217 619 170 q 650 309 650 264 q 631 416 650 367 q 576 500 612 465 q 491 555 541 536 q 378 575 440 575 q 321 569 351 575 q 259 552 290 562 q 198 531 228 543 q 144 509 169 519 l 106 532 l 196 957 l 750 978 l 771 768 q 716 804 749 789 q 644 832 683 820 q 561 851 604 844 q 475 864 517 859 q 395 871 433 869 q 328 873 357 873 l 322 873 l 265 614 q 362 643 310 633 q 463 652 414 652 q 553 644 508 652 q 639 621 598 636 q 715 581 680 605 q 777 524 751 557 q 817 450 802 492 q 832 358 832 409 q 801 195 832 265 q 714 76 769 124 q 583 3 659 28 q 419 -21 507 -21 z "},"6":{"ha":926,"x_min":69,"x_max":864,"o":"m 864 321 q 836 178 864 243 q 758 67 808 113 q 642 -5 709 21 q 497 -31 574 -31 q 303 10 384 -31 q 170 118 222 50 q 94 276 118 186 q 69 465 69 366 q 81 600 69 534 q 117 724 93 665 q 178 832 142 783 q 265 918 215 882 q 377 974 315 954 q 517 994 440 994 q 601 989 558 994 q 685 971 644 983 q 766 942 727 960 q 839 900 805 924 l 699 758 q 673 824 690 793 q 630 879 655 855 q 573 917 606 903 q 504 930 541 930 q 427 915 460 930 q 367 871 393 899 q 321 807 340 844 q 289 729 302 770 q 268 645 276 688 q 256 562 260 602 q 371 640 302 616 q 517 664 439 664 q 660 640 596 664 q 769 572 724 616 q 839 465 814 528 q 864 321 864 401 m 464 593 q 388 581 422 593 q 328 548 354 569 q 282 497 301 526 q 252 435 263 469 q 259 353 253 397 q 277 264 265 309 q 307 179 289 220 q 350 106 324 138 q 408 55 375 74 q 484 36 441 36 q 572 57 534 36 q 635 112 610 78 q 672 189 660 146 q 685 277 685 232 q 680 349 685 311 q 665 421 675 386 q 638 487 655 456 q 596 542 621 518 q 539 579 572 566 q 464 593 506 593 z "},"7":{"ha":730,"x_min":36,"x_max":722,"o":"m 722 971 q 591 735 649 852 q 492 497 532 618 q 428 248 451 376 q 403 -21 406 120 l 191 -5 q 225 148 206 72 q 269 297 243 223 q 333 456 297 378 q 409 610 368 534 q 493 759 449 686 q 582 905 537 833 q 309 857 435 904 q 72 715 184 810 l 36 968 l 722 971 z "},"8":{"ha":918,"x_min":65,"x_max":851,"o":"m 851 262 q 835 164 851 208 q 791 86 819 121 q 726 27 764 52 q 644 -13 688 3 q 553 -37 600 -29 q 458 -45 505 -45 q 363 -37 411 -45 q 272 -13 316 -29 q 191 27 229 3 q 125 86 153 52 q 81 164 97 121 q 65 262 65 208 q 83 356 65 314 q 132 432 101 399 q 204 489 163 465 q 292 528 245 513 q 227 556 257 535 q 174 606 197 576 q 139 669 152 635 q 126 739 126 704 q 156 854 126 806 q 234 934 186 903 q 341 980 281 965 q 458 994 400 994 q 538 988 498 994 q 615 969 578 982 q 685 935 652 956 q 741 887 718 915 q 779 822 765 859 q 793 739 793 785 q 780 672 793 705 q 745 611 767 640 q 695 562 724 583 q 636 528 667 540 q 721 492 682 517 q 789 431 760 467 q 834 352 818 395 q 851 262 851 309 m 606 743 q 598 814 606 780 q 574 874 591 848 q 529 915 557 900 q 458 930 500 930 q 385 916 414 930 q 340 876 357 901 q 317 816 323 850 q 311 743 311 782 q 319 673 311 706 q 343 616 326 641 q 388 578 360 592 q 458 564 416 564 q 529 577 500 564 q 574 616 557 591 q 598 673 591 640 q 606 743 606 705 m 664 261 q 650 348 664 307 q 610 421 636 389 q 545 471 583 452 q 458 489 507 489 q 371 471 409 489 q 306 421 332 452 q 267 349 280 390 q 253 261 253 307 q 265 168 253 212 q 302 93 277 125 q 366 42 327 61 q 458 24 405 24 q 550 43 511 24 q 614 94 589 62 q 652 170 640 127 q 664 261 664 213 z "},"9":{"ha":929,"x_min":65,"x_max":860,"o":"m 860 485 q 848 352 860 416 q 812 230 836 287 q 750 124 787 172 q 664 42 713 77 q 551 -12 614 7 q 411 -31 488 -31 q 327 -25 370 -31 q 243 -8 284 -20 q 162 22 201 4 q 90 64 123 39 l 229 205 q 256 140 238 171 q 298 85 273 109 q 355 47 323 61 q 425 33 387 33 q 534 66 489 33 q 607 152 578 100 q 651 266 636 203 q 672 387 667 328 q 557 311 625 334 q 412 288 490 288 q 269 311 333 288 q 160 378 205 334 q 90 486 115 422 q 65 631 65 550 q 93 774 65 708 q 171 890 121 841 q 288 966 220 939 q 432 994 355 994 q 626 952 545 994 q 759 839 707 909 q 836 676 811 768 q 860 485 860 584 m 465 357 q 540 369 507 357 q 600 402 574 381 q 646 453 627 424 q 676 517 665 482 q 668 601 674 555 q 650 692 662 646 q 621 780 639 737 q 577 856 603 823 q 519 908 552 888 q 444 928 486 928 q 356 905 394 928 q 293 845 318 882 q 255 763 268 808 q 243 673 243 718 q 248 601 243 638 q 262 529 252 564 q 290 463 273 494 q 332 408 307 431 q 389 370 356 384 q 465 357 422 357 z "}," ":{"ha":403,"x_min":0,"x_max":0,"o":""},"Þ":{"ha":1028,"x_min":103,"x_max":990,"o":"m 293 799 q 417 805 356 803 q 534 807 478 807 q 644 798 589 807 q 749 771 699 789 q 844 724 800 753 q 920 657 888 696 q 971 567 953 618 q 990 454 990 517 q 965 338 990 389 q 899 251 941 288 q 803 190 857 214 q 690 150 749 165 q 571 129 631 135 q 460 122 512 122 q 380 124 420 122 q 301 131 341 125 l 298 -7 l 123 -8 q 123 139 123 71 q 122 273 123 207 q 119 410 121 340 q 115 564 117 480 q 110 750 113 648 q 103 985 106 853 l 290 1002 l 293 799 m 799 467 q 783 556 799 517 q 741 626 768 596 q 678 678 714 656 q 602 713 642 699 q 517 733 561 726 q 431 739 473 739 q 362 738 396 739 q 294 732 328 736 l 302 197 q 367 193 334 193 q 433 192 399 192 q 524 197 479 192 q 610 215 569 203 q 685 249 650 228 q 745 300 720 269 q 785 372 770 330 q 799 467 799 413 z "},"þ":{"ha":829,"x_min":77,"x_max":778,"o":"m 241 554 q 328 643 271 612 q 456 673 384 673 q 587 649 528 673 q 689 581 646 625 q 754 477 731 537 q 778 345 778 416 q 753 202 778 267 q 682 92 728 138 q 572 21 636 45 q 431 -3 508 -4 q 338 12 385 -1 q 256 56 291 25 l 267 -330 l 77 -322 l 103 1010 l 229 1007 l 241 554 m 611 342 q 602 432 611 385 q 571 517 593 478 q 515 581 550 555 q 427 606 479 606 q 357 588 387 606 q 305 543 327 570 q 268 480 283 515 q 245 411 254 446 l 253 154 q 279 119 263 135 q 314 93 295 104 q 356 75 334 81 q 400 69 378 69 q 496 93 456 69 q 561 156 536 117 q 599 244 587 195 q 611 342 611 293 z "},"½":{"ha":843,"x_min":64,"x_max":782,"o":"m 260 572 l 168 572 l 168 930 l 85 890 l 64 914 l 176 981 l 282 981 l 260 572 m 708 949 l 122 0 l 71 25 l 581 996 l 708 949 m 669 94 q 614 61 642 75 q 555 35 585 46 q 667 50 609 38 q 775 87 724 62 l 764 -17 l 355 -4 q 465 47 410 21 q 571 109 520 73 q 613 142 594 124 q 647 179 633 159 q 668 222 661 199 q 676 269 676 244 q 669 310 676 291 q 647 341 661 328 q 612 362 633 355 q 567 370 592 370 q 533 362 548 370 q 507 344 517 355 q 490 319 496 333 q 484 293 484 306 q 501 231 484 267 l 392 210 q 386 232 387 222 q 385 252 385 242 q 399 317 385 288 q 440 366 414 346 q 503 396 467 386 q 583 407 539 407 q 654 401 618 407 q 718 379 690 395 q 764 337 747 363 q 782 272 782 311 q 772 217 782 242 q 747 169 763 191 q 711 128 732 146 q 669 94 691 109 z "},"¼":{"ha":872,"x_min":64,"x_max":810,"o":"m 708 949 l 122 0 l 71 25 l 581 996 l 708 949 m 765 113 q 767 57 765 85 q 772 -11 769 28 l 659 -16 l 668 113 l 415 113 q 414 130 414 123 q 414 142 414 136 q 416 202 414 169 q 422 271 418 236 q 431 341 426 307 q 443 406 437 376 l 570 385 q 542 331 554 361 q 520 270 530 301 q 504 207 511 238 q 494 151 498 176 l 671 151 l 690 403 l 766 403 q 766 312 766 355 q 765 228 765 270 l 765 151 l 810 151 l 810 113 l 765 113 m 260 572 l 168 572 l 168 930 l 85 890 l 64 914 l 176 981 l 282 981 l 260 572 z "},"¹":{"ha":329,"x_min":37,"x_max":256,"o":"m 233 572 l 142 572 l 142 930 l 58 890 l 37 914 l 150 981 l 256 981 l 233 572 z "},"¾":{"ha":1008,"x_min":58,"x_max":943,"o":"m 842 949 l 256 0 l 204 25 l 714 996 l 842 949 m 256 562 q 184 570 218 562 q 123 595 150 578 q 79 638 96 612 q 58 699 62 664 l 170 708 q 168 692 168 698 q 168 682 168 686 q 174 654 168 667 q 191 630 180 640 q 220 613 203 619 q 260 607 237 607 q 301 614 283 607 q 332 634 319 622 q 352 662 345 646 q 359 692 359 677 q 351 721 359 708 q 326 744 342 734 q 289 758 310 753 q 243 762 267 762 q 230 762 237 762 q 210 760 222 762 l 212 807 q 229 806 223 806 q 240 806 235 806 q 280 811 261 806 q 313 827 299 817 q 336 850 328 837 q 345 878 345 863 q 339 905 345 891 q 322 929 333 918 q 295 946 311 939 q 260 953 279 953 q 231 948 245 953 q 207 935 217 943 q 190 918 196 927 q 183 899 183 908 q 186 881 183 890 q 196 857 189 871 l 85 840 q 82 857 83 851 q 82 869 82 863 q 100 923 82 901 q 145 961 117 946 q 206 982 172 975 q 272 989 239 989 q 335 983 304 989 q 392 964 367 977 q 433 929 418 951 q 449 878 449 908 q 442 847 449 861 q 424 822 435 833 q 398 803 413 811 q 366 789 382 795 q 439 751 414 779 q 464 676 464 722 q 443 623 464 644 q 391 587 422 601 q 323 568 359 574 q 256 562 286 562 m 899 113 q 900 57 899 85 q 905 -11 902 28 l 791 -16 l 802 113 l 549 113 q 547 130 547 123 q 547 142 547 136 q 549 202 547 169 q 555 271 551 236 q 565 341 559 307 q 576 406 570 376 l 703 385 q 675 331 688 361 q 654 270 663 301 q 638 207 644 238 q 628 151 631 176 l 804 151 l 823 403 l 900 403 q 899 312 900 355 q 899 228 899 270 l 899 151 l 943 151 l 943 113 l 899 113 z "},"³":{"ha":519,"x_min":54,"x_max":460,"o":"m 252 562 q 180 570 214 562 q 119 595 146 578 q 75 638 92 612 q 54 699 58 664 l 165 708 q 164 692 164 698 q 164 682 164 686 q 170 654 164 667 q 187 630 176 640 q 216 613 199 619 q 256 607 233 607 q 297 614 279 607 q 328 634 315 622 q 348 662 341 646 q 355 692 355 677 q 347 721 355 708 q 322 744 338 734 q 284 758 306 753 q 239 762 263 762 q 225 762 233 762 q 205 760 218 762 l 208 807 q 225 806 219 806 q 236 806 231 806 q 276 811 257 806 q 309 827 295 817 q 332 850 323 837 q 340 878 340 863 q 335 905 340 891 q 318 929 329 918 q 291 946 307 939 q 256 953 275 953 q 227 948 240 953 q 202 935 213 943 q 185 918 191 927 q 179 899 179 908 q 182 881 179 890 q 192 857 184 871 l 81 840 q 78 857 79 851 q 78 869 78 863 q 96 923 78 901 q 141 961 113 946 q 202 982 168 975 q 268 989 235 989 q 331 983 300 989 q 388 964 363 977 q 429 929 413 951 q 444 878 444 908 q 420 822 444 844 q 361 789 395 800 q 435 751 410 779 q 460 676 460 722 q 439 623 460 644 q 387 587 418 601 q 319 568 355 574 q 252 562 282 562 z "},"²":{"ha":557,"x_min":61,"x_max":488,"o":"m 375 677 q 319 644 348 659 q 261 618 290 629 q 372 633 314 621 q 481 671 430 646 l 469 567 l 61 579 q 171 630 116 604 q 277 692 226 656 q 319 725 300 707 q 352 763 338 743 q 374 805 366 783 q 382 852 382 827 q 353 925 382 897 q 272 953 323 953 q 238 946 254 953 q 212 927 223 939 q 195 903 201 916 q 189 876 189 889 q 207 814 189 850 l 97 793 q 92 815 93 806 q 90 835 90 825 q 105 900 90 871 q 146 949 119 929 q 209 980 172 969 q 289 990 245 990 q 360 984 324 990 q 424 963 395 978 q 470 921 452 947 q 488 856 488 895 q 478 800 488 826 q 453 752 469 774 q 417 711 437 730 q 375 677 397 692 z "},"¦":{"ha":368,"x_min":89,"x_max":289,"o":"m 262 432 l 240 -189 l 103 -193 l 96 432 l 262 432 m 289 1162 l 269 618 l 94 618 l 89 1146 l 289 1162 z "},"−":{"ha":746,"x_min":110,"x_max":635,"o":"m 635 444 q 586 448 614 446 q 530 451 559 450 q 473 452 500 452 q 424 453 445 453 q 350 452 391 453 q 266 448 309 451 q 183 440 223 446 q 110 427 142 435 l 110 551 q 145 550 124 551 q 189 550 167 550 q 233 549 212 549 q 269 549 254 549 q 356 550 309 549 q 452 553 404 551 q 548 559 500 555 q 635 568 595 563 l 635 444 z "},"×":{"ha":676,"x_min":74,"x_max":603,"o":"m 503 252 q 424 330 466 292 q 335 404 381 368 q 240 330 286 368 q 157 252 195 292 l 98 313 q 176 387 136 349 q 257 464 216 424 l 74 596 l 195 724 q 260 632 224 677 q 336 543 296 587 q 418 632 379 587 q 489 724 456 677 l 603 595 q 511 531 558 563 q 415 464 464 498 q 496 386 456 424 q 575 313 536 348 l 503 252 z "},"!":{"ha":370,"x_min":62,"x_max":300,"o":"m 300 990 l 235 248 l 123 231 l 96 978 l 300 990 m 283 64 q 275 21 283 41 q 251 -14 266 1 q 215 -38 235 -29 q 172 -46 195 -46 q 130 -38 150 -46 q 95 -14 110 -29 q 71 21 80 1 q 62 64 62 41 q 71 107 62 87 q 95 142 80 127 q 130 165 110 157 q 172 174 150 174 q 215 165 195 174 q 251 142 235 157 q 275 107 266 127 q 283 64 283 87 z "},"\"":{"ha":530,"x_min":61,"x_max":463,"o":"m 240 990 l 207 627 l 110 619 l 61 975 l 240 990 m 463 990 l 429 627 l 332 619 l 283 975 l 463 990 z "},"#":{"ha":644,"x_min":77,"x_max":568,"o":"m 538 843 l 489 654 q 530 659 510 656 q 568 664 549 661 l 553 554 q 512 558 535 556 q 465 561 489 559 l 436 446 q 489 451 463 448 q 539 457 515 453 l 522 349 q 472 352 500 351 q 414 355 444 354 l 357 134 l 302 134 l 342 357 q 297 356 321 357 q 248 354 273 356 l 204 134 l 150 134 l 175 349 q 123 341 148 345 q 77 330 98 337 l 93 441 q 135 439 110 439 q 184 439 159 439 l 199 554 q 150 547 174 551 q 106 536 125 543 l 122 647 q 161 645 138 646 q 208 644 185 644 l 232 847 l 343 843 l 304 644 q 347 645 325 644 q 392 647 368 646 l 427 847 l 538 843 m 375 564 q 334 563 356 564 q 288 561 311 562 l 264 439 q 309 439 286 439 q 355 440 332 439 l 378 564 l 375 564 z "},"$":{"ha":574,"x_min":60,"x_max":514,"o":"m 336 1004 l 304 725 q 374 713 339 723 q 436 683 408 703 q 483 634 465 664 q 505 562 502 604 l 370 553 q 365 604 370 580 q 347 645 360 627 q 313 672 334 662 q 261 682 292 682 q 233 678 248 682 q 206 667 218 674 q 185 647 193 659 q 176 621 176 635 q 192 583 176 597 q 229 561 208 569 q 275 548 251 552 q 317 539 299 543 q 380 522 345 533 q 444 491 414 510 q 494 443 474 471 q 514 375 514 414 q 494 308 514 335 q 442 263 473 280 q 375 239 411 246 q 306 232 338 232 l 338 -25 l 214 -40 l 244 236 q 180 256 211 242 q 123 292 149 271 q 81 345 98 314 q 60 414 64 375 l 200 410 l 200 395 q 231 310 200 340 q 314 279 261 279 q 345 282 330 279 q 372 293 360 286 q 390 312 383 300 q 397 342 397 324 q 384 378 397 363 q 352 403 371 393 q 312 420 333 414 q 273 432 290 427 q 211 448 247 439 q 143 473 176 457 q 89 512 111 488 q 66 571 66 535 q 83 632 66 606 q 125 676 100 658 q 183 706 151 694 q 244 721 214 717 l 212 989 l 336 1004 z "},"%":{"ha":953,"x_min":62,"x_max":892,"o":"m 289 555 q 188 573 231 555 q 117 621 145 591 q 76 689 90 650 q 62 771 62 728 q 77 851 62 812 q 119 920 91 890 q 190 968 147 950 q 289 986 232 986 q 389 968 347 986 q 460 921 432 951 q 503 852 489 891 q 517 771 517 813 q 503 691 517 730 q 460 622 488 652 q 389 574 431 592 q 289 555 346 555 m 289 953 q 229 933 252 953 q 191 886 205 914 q 172 826 177 858 q 167 771 167 795 q 172 715 167 747 q 191 655 177 683 q 228 608 204 627 q 289 589 252 589 q 349 608 326 589 q 387 655 373 627 q 407 715 401 683 q 412 771 412 747 q 407 826 412 795 q 388 886 401 858 q 350 933 374 914 q 289 953 326 953 m 664 -14 q 563 4 606 -14 q 492 51 520 22 q 451 120 465 81 q 437 201 437 159 q 452 282 437 243 q 494 351 466 321 q 565 398 522 380 q 664 416 607 416 q 764 399 722 416 q 836 351 807 381 q 878 282 864 321 q 892 201 892 243 q 878 121 892 160 q 835 53 863 83 q 764 4 806 22 q 664 -14 721 -14 m 664 383 q 604 364 627 383 q 566 316 580 345 q 547 257 552 288 q 542 201 542 225 q 547 145 542 177 q 565 86 552 114 q 602 39 578 58 q 664 20 626 20 q 724 39 701 20 q 762 86 748 58 q 782 145 776 114 q 787 201 787 177 q 782 257 787 225 q 763 316 777 288 q 725 364 749 345 q 664 383 701 383 m 869 880 l 121 0 l 69 25 l 774 954 l 869 880 z "},"&":{"ha":924,"x_min":90,"x_max":918,"o":"m 743 -36 q 679 7 711 -16 q 610 60 646 31 q 497 -2 559 21 q 363 -25 435 -25 q 253 -9 302 -25 q 166 36 203 6 q 110 111 130 66 q 90 215 90 156 q 103 302 90 264 q 136 372 115 340 q 184 428 157 403 q 243 476 212 454 q 201 583 216 530 q 186 689 186 636 q 203 782 186 739 q 251 859 220 826 q 326 910 282 891 q 425 929 370 929 q 513 912 475 929 q 574 867 550 896 q 611 800 599 839 q 623 718 623 762 q 606 638 623 677 q 564 563 590 600 q 503 491 537 526 q 432 422 469 456 q 516 336 471 378 q 610 258 561 295 q 622 312 618 286 q 627 363 627 338 q 625 409 627 386 q 619 456 623 433 l 825 395 q 793 292 818 349 q 726 179 768 235 q 824 124 775 149 q 918 81 872 100 l 743 -36 m 357 33 q 457 58 412 33 q 534 122 501 82 q 430 222 481 169 q 335 334 379 276 q 289 287 311 310 q 252 241 268 264 q 227 196 236 218 q 218 151 218 174 q 230 102 218 123 q 261 65 241 80 q 305 41 280 50 q 357 33 330 33 m 290 761 q 305 651 290 705 q 347 547 320 597 q 405 591 378 568 q 452 641 432 614 q 485 701 473 668 q 497 774 497 733 q 494 808 497 790 q 481 842 490 827 q 457 867 473 857 q 419 878 442 878 q 370 867 393 878 q 329 839 347 856 q 301 801 311 821 q 290 761 290 780 z "},"'":{"ha":309,"x_min":61,"x_max":240,"o":"m 240 990 l 207 627 l 110 619 l 61 975 l 240 990 z "},"(":{"ha":529,"x_min":49,"x_max":497,"o":"m 497 932 q 346 880 416 918 q 225 784 276 842 q 145 654 174 727 q 117 497 117 581 q 144 342 117 416 q 219 208 171 268 q 334 106 267 149 q 482 47 401 64 l 422 -157 q 261 -45 331 -116 q 144 114 192 26 q 73 302 97 203 q 49 497 49 401 q 60 628 49 562 q 92 758 71 694 q 144 882 113 822 q 217 994 176 942 q 310 1088 258 1046 q 421 1158 361 1130 l 497 932 z "},")":{"ha":529,"x_min":32,"x_max":481,"o":"m 481 497 q 456 302 481 401 q 385 114 432 203 q 268 -45 338 26 q 107 -157 198 -116 l 47 47 q 195 106 127 64 q 310 208 262 149 q 385 342 358 268 q 412 497 412 416 q 384 654 412 581 q 304 784 355 727 q 183 880 253 842 q 32 932 114 918 l 110 1158 q 221 1088 170 1130 q 313 994 272 1046 q 386 882 355 942 q 438 758 417 822 q 470 628 459 694 q 481 497 481 562 z "},"*":{"ha":608,"x_min":61,"x_max":547,"o":"m 547 664 l 392 640 l 371 636 l 507 519 l 372 427 l 317 606 l 236 414 l 107 504 l 240 636 l 231 637 l 61 659 l 115 802 l 272 715 l 236 900 l 395 916 l 357 728 l 498 815 l 547 664 z "},"+":{"ha":669,"x_min":72,"x_max":597,"o":"m 415 724 l 404 525 q 505 530 455 527 q 597 541 555 534 l 597 472 q 553 475 578 473 q 502 477 528 476 q 449 479 475 479 q 401 481 423 480 l 390 265 l 279 252 l 257 478 q 158 469 207 475 q 72 454 110 464 l 72 524 q 108 523 87 523 q 152 522 129 522 q 196 521 174 522 q 232 521 217 521 l 253 521 l 235 710 l 415 724 z "},",":{"ha":368,"x_min":69,"x_max":298,"o":"m 121 -140 q 150 -99 138 -121 q 163 -50 163 -76 l 163 -45 q 126 -32 143 -41 q 96 -8 109 -22 q 76 24 83 6 q 69 64 69 43 q 78 107 69 87 q 102 142 87 127 q 137 165 117 157 q 179 174 157 174 q 231 161 208 174 q 268 127 253 148 q 291 80 283 106 q 298 26 298 54 q 290 -34 298 -4 q 267 -90 282 -64 q 230 -138 252 -117 q 179 -172 208 -159 l 121 -140 z "},"-":{"ha":696,"x_min":86,"x_max":611,"o":"m 611 444 q 563 448 590 446 q 506 451 535 450 q 449 452 477 452 q 400 453 421 453 q 326 452 367 453 q 242 448 285 451 q 159 440 199 446 q 86 427 119 435 l 86 551 q 122 550 100 551 q 165 550 143 550 q 209 549 188 549 q 245 549 231 549 q 333 550 286 549 q 428 553 380 551 q 524 559 477 555 q 611 568 571 563 l 611 444 z "},".":{"ha":359,"x_min":69,"x_max":290,"o":"m 290 64 q 281 21 290 41 q 257 -14 273 1 q 222 -38 242 -29 q 179 -46 202 -46 q 137 -38 157 -46 q 102 -14 117 -29 q 78 21 87 1 q 69 64 69 41 q 78 107 69 87 q 102 142 87 127 q 137 165 117 157 q 179 174 157 174 q 222 165 202 174 q 257 142 242 157 q 281 107 273 127 q 290 64 290 87 z "},"/":{"ha":953,"x_min":77,"x_max":876,"o":"m 876 972 l 144 -32 l 77 25 l 721 1014 l 876 972 z "},":":{"ha":379,"x_min":79,"x_max":300,"o":"m 300 64 q 291 21 300 41 q 267 -14 282 1 q 232 -38 252 -29 q 189 -46 212 -46 q 147 -38 167 -46 q 112 -14 127 -29 q 88 21 97 1 q 79 64 79 41 q 88 107 79 87 q 112 142 97 127 q 147 165 127 157 q 189 174 167 174 q 232 165 212 174 q 267 142 252 157 q 291 107 282 127 q 300 64 300 87 m 300 536 q 291 493 300 513 q 267 458 282 473 q 232 435 252 444 q 189 427 212 427 q 147 435 167 427 q 112 458 127 444 q 88 493 97 473 q 79 536 79 513 q 88 579 79 559 q 112 614 97 599 q 147 637 127 629 q 189 646 167 646 q 232 637 212 646 q 267 614 252 629 q 291 579 282 599 q 300 536 300 559 z "},";":{"ha":387,"x_min":81,"x_max":310,"o":"m 132 -140 q 161 -99 149 -121 q 174 -50 174 -76 l 174 -45 q 137 -32 154 -41 q 107 -8 120 -22 q 88 24 95 6 q 81 64 81 43 q 90 107 81 87 q 113 142 98 127 q 148 165 128 157 q 191 174 168 174 q 242 161 220 174 q 279 127 264 148 q 302 80 294 106 q 310 26 310 54 q 302 -34 310 -4 q 278 -90 294 -64 q 241 -138 263 -117 q 191 -172 218 -159 l 132 -140 m 301 536 q 292 493 301 513 q 269 458 283 473 q 234 435 254 444 q 191 427 214 427 q 148 435 168 427 q 113 458 128 444 q 90 493 98 473 q 81 536 81 513 q 90 579 81 559 q 113 614 98 599 q 148 637 128 629 q 191 646 168 646 q 234 637 214 646 q 269 614 254 629 q 292 579 283 599 q 301 536 301 559 z "},"<":{"ha":606,"x_min":68,"x_max":526,"o":"m 526 269 l 415 111 l 68 444 l 386 778 l 485 611 q 408 586 448 604 q 331 546 369 569 q 259 497 294 524 q 197 444 224 471 q 267 384 228 413 q 349 330 306 354 q 437 290 392 307 q 526 269 483 274 z "},"=":{"ha":733,"x_min":104,"x_max":629,"o":"m 629 542 q 581 545 608 544 q 524 548 553 547 q 467 549 495 549 q 418 550 439 550 q 343 549 385 550 q 260 545 302 548 q 177 537 218 543 q 104 524 137 532 l 104 648 q 140 647 119 648 q 184 647 161 647 q 228 646 206 646 q 264 646 249 646 q 351 647 304 646 q 447 650 398 648 q 542 656 495 653 q 629 665 589 660 l 629 542 m 629 347 q 581 351 608 349 q 524 353 553 352 q 467 355 495 354 q 418 355 439 355 q 343 354 385 355 q 260 351 302 353 q 177 342 218 348 q 104 329 137 337 l 104 454 q 140 453 119 454 q 184 453 161 453 q 228 452 206 452 q 264 452 249 452 q 351 453 304 452 q 447 456 398 454 q 542 462 495 458 q 629 471 589 465 l 629 347 z "},">":{"ha":606,"x_min":79,"x_max":538,"o":"m 538 444 l 220 111 l 119 278 q 196 302 157 285 q 273 342 235 319 q 346 392 311 365 q 408 444 380 418 q 339 505 378 475 q 257 558 300 534 q 168 598 214 583 q 79 619 123 614 l 191 778 l 538 444 z "},"?":{"ha":957,"x_min":61,"x_max":897,"o":"m 897 665 q 881 571 897 608 q 837 508 864 534 q 775 466 810 483 q 703 433 740 449 q 630 400 666 418 q 566 355 594 382 q 541 328 553 343 q 516 295 528 312 q 495 260 505 277 q 479 227 486 242 l 399 237 q 411 295 401 266 q 438 351 422 324 q 476 400 455 377 q 521 439 497 422 q 593 490 559 466 q 652 542 627 513 q 691 607 677 570 q 705 696 705 643 q 686 793 705 749 q 633 870 667 838 q 554 921 600 903 q 456 939 509 939 q 373 927 412 939 q 304 892 334 916 q 256 834 274 869 q 239 753 239 799 q 259 670 239 710 q 315 607 279 631 l 81 559 q 65 602 69 579 q 61 646 61 624 q 78 756 61 706 q 125 845 95 806 q 196 914 155 884 q 286 963 237 943 q 387 992 334 983 q 494 1002 440 1002 q 594 992 545 1002 q 688 964 643 983 q 771 917 732 945 q 837 851 809 888 q 881 767 865 814 q 897 665 897 721 m 536 64 q 528 21 536 41 q 504 -14 519 1 q 468 -37 488 -28 q 425 -46 448 -46 q 382 -37 402 -46 q 347 -14 362 -28 q 324 21 332 1 q 315 64 315 41 q 324 107 315 87 q 347 142 332 127 q 382 166 362 157 q 425 175 402 175 q 468 166 448 175 q 504 142 488 157 q 528 107 519 127 q 536 64 536 87 z "},"@":{"ha":1090,"x_min":61,"x_max":1040,"o":"m 1040 325 q 1022 204 1040 260 q 967 107 1003 149 q 880 41 932 65 q 762 17 828 17 q 702 25 730 17 q 653 50 674 33 q 620 92 632 66 q 604 150 607 117 q 560 121 584 134 q 512 98 536 108 q 463 82 488 88 q 418 77 439 77 q 374 85 394 77 q 339 107 354 93 q 316 142 324 122 q 307 186 307 162 q 320 242 307 218 q 355 285 333 267 q 404 315 376 303 q 462 335 432 328 q 522 346 492 342 q 576 349 551 349 q 608 348 592 349 q 639 343 623 347 q 644 377 642 360 q 646 411 646 393 q 642 448 646 431 q 629 479 638 466 q 606 500 621 492 q 570 507 591 507 q 525 495 543 507 q 497 462 507 482 q 484 418 487 442 q 482 372 481 395 l 354 395 q 379 462 361 434 q 425 508 398 490 q 485 534 452 526 q 555 542 519 542 q 645 527 606 542 q 710 485 684 512 q 749 417 736 457 q 762 329 762 378 q 759 275 762 302 q 753 222 756 249 q 746 169 749 195 q 743 115 743 142 q 744 95 743 106 q 748 72 745 83 q 759 55 751 62 q 778 47 766 47 q 818 61 801 47 q 848 95 836 74 q 869 142 861 116 q 882 195 877 169 q 888 246 886 222 q 890 286 890 270 q 867 443 890 374 q 797 561 843 513 q 683 635 751 610 q 526 661 614 661 q 375 633 435 661 q 279 554 315 605 q 228 435 243 504 q 212 283 212 366 q 225 173 212 231 q 264 66 238 116 q 332 -22 291 16 q 429 -75 373 -60 l 421 -102 q 281 -60 347 -92 q 167 22 216 -28 q 90 138 118 72 q 61 281 61 203 q 101 456 61 378 q 208 587 141 533 q 359 670 274 641 q 536 699 445 699 q 650 689 591 699 q 765 659 709 679 q 871 608 821 639 q 959 536 921 578 q 1018 442 996 494 q 1040 325 1040 389 m 606 192 q 617 251 609 221 q 632 311 625 281 q 615 313 623 313 q 600 313 608 313 q 550 308 579 313 q 495 292 522 303 q 450 262 469 281 q 432 215 432 243 q 438 190 432 201 q 455 171 445 178 q 478 159 465 163 q 505 155 492 155 q 557 166 531 155 q 606 192 583 177 z "},"A":{"ha":1103,"x_min":71,"x_max":1034,"o":"m 574 1008 q 736 976 666 1008 q 857 889 806 944 q 942 763 907 835 q 996 613 976 692 q 1025 455 1017 535 q 1034 302 1034 374 q 1025 182 1034 239 q 1008 79 1017 124 q 982 -21 996 26 l 777 16 q 813 122 796 62 q 844 244 831 182 q 681 254 762 252 q 518 256 599 256 q 392 255 455 256 q 265 250 329 254 q 297 135 279 193 q 339 17 315 77 l 125 -22 q 98 50 110 9 q 79 136 87 85 q 71 250 71 186 q 78 422 71 334 q 104 595 85 511 q 158 754 123 679 q 249 886 193 829 q 385 976 305 943 q 574 1008 465 1008 m 236 526 q 240 417 236 470 q 253 314 244 365 q 388 309 321 310 q 525 309 456 309 q 690 310 607 309 q 857 317 773 311 q 869 458 869 392 q 862 561 869 507 q 840 668 855 615 q 799 770 824 722 q 739 856 774 819 q 655 915 703 893 q 549 937 608 937 q 450 920 494 937 q 371 871 406 902 q 310 801 336 841 q 269 714 285 760 q 244 621 252 669 q 236 526 236 572 z "},"B":{"ha":1064,"x_min":98,"x_max":1008,"o":"m 1004 736 q 985 615 1008 669 q 919 521 962 560 q 818 460 876 481 q 696 439 760 438 q 790 425 746 440 q 867 382 833 409 q 920 323 900 356 q 942 256 940 290 q 928 157 945 198 q 878 87 910 115 q 801 41 845 58 q 709 14 758 24 q 611 1 661 5 q 518 -3 562 -2 q 361 -4 431 -4 q 240 -3 291 -4 q 134 -1 180 -3 q 130 117 132 59 q 128 169 129 142 q 126 222 127 196 q 125 274 125 249 q 123 319 124 298 q 120 406 122 358 q 116 507 118 454 q 112 613 114 559 q 108 718 110 667 q 98 960 103 836 q 207 972 142 966 q 347 983 262 977 q 550 993 432 989 q 640 990 591 994 q 738 976 688 987 q 833 947 787 966 q 917 899 880 928 q 977 829 954 869 q 1004 736 1001 789 m 821 704 q 801 786 817 751 q 760 847 785 821 q 700 888 734 872 q 628 914 666 905 q 549 926 590 923 q 469 928 509 929 q 425 925 456 927 q 362 920 395 923 q 281 914 325 918 l 300 457 q 359 461 326 459 q 428 465 388 463 q 517 468 468 467 q 630 481 574 470 q 730 519 686 493 q 799 591 774 546 q 821 704 825 635 m 755 244 q 727 323 752 293 q 664 370 703 353 q 578 391 626 386 q 481 396 530 397 q 386 392 432 396 q 304 387 340 389 l 321 62 q 383 58 349 60 q 450 56 412 57 q 530 57 488 56 q 615 67 573 58 q 689 96 656 75 q 740 152 722 117 q 755 244 759 188 z "},"C":{"ha":1126,"x_min":60,"x_max":1084,"o":"m 1084 629 l 868 618 q 848 742 867 682 q 794 849 830 802 q 704 925 758 897 q 581 954 651 954 q 471 934 519 954 q 386 880 422 914 q 322 801 349 846 q 280 704 296 755 q 256 598 264 652 q 249 492 249 543 q 255 381 249 437 q 277 273 262 326 q 316 174 292 220 q 378 93 341 127 q 465 38 415 58 q 581 18 515 18 q 703 43 651 18 q 789 111 755 68 q 842 211 824 154 q 864 332 861 268 l 1076 321 q 1001 168 1050 236 q 887 51 952 99 q 742 -23 821 3 q 575 -49 662 -49 q 360 -8 455 -49 q 198 104 264 32 q 95 275 131 176 q 60 492 60 374 q 97 702 60 605 q 203 870 135 799 q 366 981 271 941 q 575 1021 461 1021 q 749 994 666 1021 q 900 917 832 967 q 1015 793 967 866 q 1084 629 1063 721 z "},"D":{"ha":1078,"x_min":107,"x_max":1019,"o":"m 1019 492 q 999 349 1019 416 q 941 224 978 281 q 853 120 904 166 q 741 40 802 73 q 611 -10 680 7 q 469 -28 542 -28 q 384 -27 433 -28 q 285 -24 336 -26 q 188 -15 235 -21 q 107 1 140 -9 l 107 8 q 109 176 107 93 q 113 345 111 260 q 120 653 116 500 q 127 962 123 807 q 317 984 221 977 q 509 990 413 990 q 642 972 577 990 q 763 922 706 955 q 866 845 819 890 q 947 744 913 800 q 1000 625 981 688 q 1019 492 1019 561 m 832 507 q 809 686 832 609 q 737 816 786 764 q 613 896 688 869 q 435 922 538 922 q 376 922 406 922 q 315 920 346 922 l 269 49 q 372 37 320 38 q 475 36 425 36 q 585 56 535 36 q 675 112 635 77 q 744 193 715 146 q 793 292 774 240 q 823 400 813 345 q 832 507 832 455 z "},"E":{"ha":936,"x_min":104,"x_max":888,"o":"m 694 321 q 628 328 663 325 q 555 332 592 330 q 483 334 519 334 q 415 335 447 335 q 355 334 385 335 q 294 332 325 333 q 294 252 294 288 q 294 182 294 215 q 295 118 294 149 q 296 54 295 87 q 381 61 333 56 q 481 72 429 66 q 587 88 533 79 q 692 109 641 97 q 787 136 743 121 q 864 168 831 151 l 867 0 l 104 0 l 129 975 l 888 987 l 875 800 q 802 834 846 819 q 705 861 758 849 q 595 881 652 872 q 482 895 537 889 q 378 903 427 900 q 294 908 330 907 l 294 399 l 302 399 q 399 400 349 399 q 500 404 449 401 q 601 411 551 407 q 697 419 651 414 l 694 321 z "},"F":{"ha":922,"x_min":109,"x_max":889,"o":"m 796 432 q 744 437 775 435 q 676 440 713 439 q 601 443 640 442 q 526 444 562 444 q 458 445 490 445 q 406 446 427 446 q 348 446 376 446 q 290 444 319 446 q 290 258 289 350 q 290 71 290 165 q 290 38 290 54 q 292 5 290 22 l 125 3 l 109 975 l 889 970 l 886 798 q 813 830 858 815 q 714 857 768 845 q 602 878 661 869 q 488 893 543 886 q 383 903 432 899 q 300 909 334 907 q 294 710 296 809 q 290 510 292 610 l 293 510 q 365 511 323 510 q 452 513 406 511 q 546 516 498 514 q 641 520 595 517 q 728 525 687 522 q 799 530 768 527 l 796 432 z "},"G":{"ha":1147,"x_min":60,"x_max":1101,"o":"m 1101 468 q 1060 251 1101 347 q 946 89 1018 155 q 779 -13 874 22 q 575 -49 683 -49 q 362 -9 457 -49 q 199 103 267 31 q 96 273 132 174 q 60 488 60 371 q 98 697 60 600 q 205 867 136 795 q 368 982 273 940 q 575 1023 463 1023 q 724 1008 652 1023 q 859 957 795 993 q 980 861 924 920 q 1083 713 1036 801 l 835 676 q 813 789 831 738 q 762 877 795 840 q 684 935 730 914 q 582 956 639 956 q 472 935 521 956 q 385 880 423 915 q 320 798 347 844 q 275 700 292 751 q 249 593 257 648 q 240 488 240 538 q 248 378 240 433 q 272 270 255 322 q 315 172 288 218 q 379 93 341 127 q 467 39 417 59 q 582 20 517 20 q 713 50 655 20 q 811 130 771 80 q 873 242 852 179 q 895 372 895 306 l 895 382 q 790 361 844 374 q 687 328 737 349 q 591 278 636 307 q 509 208 545 248 l 469 415 l 1101 468 z "},"H":{"ha":1126,"x_min":100,"x_max":1046,"o":"m 296 987 l 288 368 q 471 364 379 364 q 547 365 501 364 q 644 366 593 365 q 746 368 695 367 q 838 372 797 370 l 846 1015 l 1046 993 l 972 3 l 833 3 l 836 300 q 741 306 792 304 q 639 310 689 309 q 543 312 589 311 q 465 313 498 313 q 376 312 420 313 q 286 307 331 311 l 282 -21 l 134 -26 l 100 965 l 296 987 z "},"I":{"ha":403,"x_min":103,"x_max":302,"o":"m 302 983 l 268 1 l 131 -1 l 103 971 l 302 983 z "},"J":{"ha":1017,"x_min":18,"x_max":942,"o":"m 427 -60 q 256 -31 329 -60 q 133 54 183 -2 q 55 190 83 109 q 18 376 26 271 l 241 368 q 233 314 236 340 q 231 258 231 287 q 252 143 231 192 q 308 64 274 95 q 385 18 342 33 q 469 3 427 3 q 603 42 547 3 q 695 146 659 81 q 748 299 731 212 q 765 482 765 387 q 756 601 765 536 q 734 731 748 665 q 702 860 720 798 q 663 970 683 922 l 889 999 q 929 794 916 898 q 942 587 942 691 q 931 410 942 494 q 895 254 920 326 q 830 124 870 182 q 733 25 790 66 q 600 -38 675 -16 q 427 -60 524 -60 z "},"K":{"ha":1036,"x_min":117,"x_max":1014,"o":"m 321 964 l 281 374 q 413 460 349 411 q 533 566 477 510 q 638 679 590 621 q 723 791 686 737 q 785 893 760 846 q 818 975 809 941 l 1014 925 q 950 815 992 874 q 851 694 908 755 q 727 572 795 632 q 585 458 659 511 l 1003 18 l 786 -37 l 504 404 q 389 339 446 368 q 275 292 332 311 l 256 -8 l 117 -11 l 117 972 l 321 964 z "},"L":{"ha":882,"x_min":110,"x_max":864,"o":"m 864 192 l 854 -1 l 125 -4 l 110 958 l 330 987 q 309 770 319 882 q 290 545 298 659 q 277 319 282 431 q 273 98 273 206 l 273 68 q 359 73 309 69 q 466 83 409 77 q 582 99 523 90 q 695 122 642 109 q 793 153 749 136 q 864 192 838 170 z "},"M":{"ha":1422,"x_min":45,"x_max":1392,"o":"m 45 14 q 65 157 52 77 q 97 325 79 237 q 136 504 115 413 q 181 682 157 595 q 231 846 205 768 q 283 983 257 923 l 440 993 q 484 901 460 954 q 533 789 507 849 q 585 663 558 729 q 637 530 611 597 q 687 396 663 463 q 733 268 711 330 q 766 426 747 338 q 809 607 785 513 q 861 797 833 701 q 922 983 890 894 l 1107 993 q 1194 741 1147 885 q 1285 438 1234 616 q 1392 29 1337 260 l 1156 -20 q 1151 53 1155 9 q 1141 150 1147 96 q 1126 265 1135 203 q 1106 391 1117 326 q 1083 520 1096 455 q 1057 647 1071 586 q 1028 764 1043 709 q 997 864 1013 819 q 952 729 973 798 q 913 590 931 659 q 880 454 895 521 q 852 329 865 388 q 803 57 824 190 l 642 36 q 630 70 642 35 q 599 164 619 105 q 551 303 578 224 q 490 471 523 382 q 421 652 458 559 q 349 831 385 745 q 300 637 320 741 q 266 423 279 534 q 243 200 252 313 q 229 -20 234 87 l 45 14 z "},"N":{"ha":1154,"x_min":106,"x_max":1060,"o":"m 1060 966 q 1060 939 1060 966 q 1059 865 1060 912 q 1056 753 1058 817 q 1050 614 1054 689 q 1041 459 1046 540 q 1027 298 1036 378 q 1008 141 1019 218 q 982 0 997 65 l 852 -5 q 777 110 819 45 q 689 245 734 174 q 596 390 643 316 q 505 532 549 463 q 294 867 403 694 q 290 515 291 682 q 289 370 289 444 q 289 228 289 296 q 291 100 290 159 q 296 0 293 41 l 151 -18 q 133 111 140 39 q 120 264 125 184 q 113 427 115 344 q 109 589 110 510 q 109 968 106 772 l 379 989 l 864 147 q 873 337 871 235 q 870 546 874 438 q 858 764 867 654 q 836 982 849 875 l 1060 966 z "},"O":{"ha":1204,"x_min":60,"x_max":1146,"o":"m 1146 489 q 1126 341 1146 411 q 1071 213 1107 272 q 985 107 1035 154 q 873 28 935 60 q 743 -22 812 -5 q 597 -40 673 -40 q 381 -2 480 -40 q 211 104 283 35 q 100 271 140 174 q 60 489 60 369 q 79 635 60 566 q 132 763 98 704 q 216 869 167 821 q 325 949 264 916 q 453 1000 385 982 q 597 1018 522 1018 q 743 1001 673 1018 q 874 951 813 983 q 985 871 935 918 q 1071 766 1036 825 q 1126 637 1107 707 q 1146 489 1146 568 m 960 489 q 950 598 960 543 q 922 704 941 653 q 874 801 903 755 q 806 879 846 846 q 716 932 766 913 q 604 951 666 951 q 492 932 543 951 q 403 879 442 912 q 334 800 363 845 q 286 703 305 755 q 258 597 267 652 q 249 489 249 542 q 257 376 249 433 q 283 269 265 320 q 329 173 300 218 q 396 96 357 129 q 487 45 435 64 q 604 26 539 26 q 718 45 667 26 q 809 98 769 64 q 877 175 848 131 q 924 271 905 220 q 951 378 942 323 q 960 489 960 434 z "},"P":{"ha":1019,"x_min":110,"x_max":989,"o":"m 989 621 q 964 505 989 555 q 898 417 939 454 q 802 356 856 380 q 688 316 747 331 q 570 295 629 301 q 458 289 511 289 q 379 290 418 289 q 300 297 340 292 l 297 -7 l 122 -8 q 119 467 123 231 q 110 942 114 703 q 212 958 158 951 q 320 967 265 964 q 429 972 375 971 q 533 974 484 974 q 642 965 587 974 q 748 938 697 956 q 842 891 798 920 q 919 823 886 863 q 970 733 951 784 q 989 621 989 683 m 429 905 q 360 904 395 905 q 290 899 325 903 l 301 364 q 366 359 333 359 q 432 358 398 358 q 523 363 477 358 q 608 381 568 369 q 684 415 649 394 q 744 466 718 435 q 783 538 769 497 q 798 633 798 579 q 782 723 798 684 q 740 793 766 763 q 677 845 713 823 q 600 880 641 866 q 516 899 559 893 q 429 905 472 905 z "},"Q":{"ha":1204,"x_min":60,"x_max":1146,"o":"m 909 -176 q 860 -91 886 -134 q 802 -4 833 -48 q 703 -31 755 -22 q 597 -40 652 -40 q 381 -2 480 -40 q 211 104 283 35 q 100 271 140 174 q 60 489 60 369 q 79 635 60 566 q 132 763 98 704 q 216 869 167 821 q 325 949 264 916 q 453 1000 385 982 q 597 1018 522 1018 q 743 1001 673 1018 q 874 951 813 983 q 985 871 935 918 q 1071 766 1036 825 q 1126 637 1107 707 q 1146 489 1146 568 q 1129 352 1146 417 q 1081 232 1112 288 q 1007 131 1050 176 q 911 50 964 85 q 1076 -53 992 -15 l 909 -176 m 960 489 q 950 598 960 543 q 922 704 941 653 q 874 801 903 755 q 806 879 846 846 q 716 932 766 913 q 604 951 666 951 q 492 932 543 951 q 403 879 442 912 q 334 800 363 845 q 286 703 305 755 q 258 597 267 652 q 249 489 249 542 q 257 376 249 433 q 283 269 265 320 q 329 173 300 218 q 396 96 357 129 q 487 45 435 64 q 604 26 539 26 q 684 35 647 26 q 753 60 720 44 q 612 220 687 144 q 464 354 538 296 l 557 428 q 614 352 583 391 q 680 273 645 313 q 753 194 715 233 q 831 118 791 155 q 888 195 864 152 q 928 286 913 238 q 952 386 944 334 q 960 489 960 438 z "},"R":{"ha":1044,"x_min":110,"x_max":989,"o":"m 989 648 q 963 547 989 591 q 896 468 938 502 q 798 410 853 434 q 684 372 743 387 l 989 39 l 777 -25 l 551 349 q 458 345 501 345 q 379 346 418 345 q 300 353 340 347 l 297 -7 l 122 -8 q 119 474 123 231 q 110 956 114 717 q 212 972 158 966 q 320 981 265 978 q 429 986 375 985 q 533 987 484 987 q 642 979 587 987 q 748 951 697 970 q 842 905 798 933 q 919 840 886 878 q 970 754 951 802 q 989 648 989 707 m 429 920 q 360 918 395 920 q 290 913 325 917 l 301 419 q 366 414 333 415 q 432 414 398 414 q 523 420 477 414 q 608 441 568 427 q 684 476 649 455 q 744 524 718 496 q 783 586 769 551 q 798 661 798 621 q 782 746 798 709 q 740 813 766 784 q 677 862 713 842 q 600 895 641 882 q 516 913 559 907 q 429 920 472 920 z "},"S":{"ha":1054,"x_min":57,"x_max":999,"o":"m 504 -47 q 355 -28 425 -47 q 229 31 286 -8 q 129 130 172 71 q 57 267 85 189 l 292 279 q 363 89 297 155 q 549 24 429 24 q 642 33 595 24 q 726 65 689 43 q 786 125 763 88 q 810 218 810 163 q 795 284 810 257 q 755 330 780 312 q 698 360 730 349 q 632 377 666 371 q 564 387 597 384 q 501 393 530 391 q 405 404 455 397 q 306 425 355 412 q 214 460 258 439 q 136 513 170 481 q 83 589 103 545 q 64 693 64 633 q 83 796 64 750 q 135 878 102 842 q 211 940 168 913 q 302 982 254 966 q 401 1007 351 999 q 500 1015 452 1015 q 601 1009 548 1015 q 707 989 654 1003 q 809 952 760 975 q 898 896 859 929 q 964 818 938 863 q 999 717 991 774 l 772 671 q 777 722 777 696 q 751 827 777 784 q 685 896 726 869 q 591 933 644 922 q 485 945 539 945 q 390 932 437 945 q 305 895 342 920 q 244 831 267 869 q 221 742 221 793 q 240 681 221 707 q 290 636 259 655 q 359 606 321 618 q 437 586 398 593 q 511 573 476 578 q 571 567 547 569 q 662 554 614 562 q 755 530 709 545 q 844 493 802 515 q 917 439 886 471 q 967 364 949 407 q 986 267 986 321 q 963 162 986 208 q 902 82 940 117 q 814 22 863 47 q 711 -18 764 -3 q 604 -40 657 -33 q 504 -47 550 -47 z "},"T":{"ha":918,"x_min":14,"x_max":911,"o":"m 911 977 l 903 844 q 822 864 868 857 q 728 875 777 871 q 634 880 680 879 q 551 882 588 882 l 533 882 l 572 -3 l 364 -3 l 389 875 q 286 864 338 871 q 185 846 233 857 q 95 821 136 836 q 26 789 54 807 l 14 971 l 911 977 z "},"U":{"ha":1101,"x_min":68,"x_max":1034,"o":"m 538 -50 q 391 -30 457 -50 q 273 28 325 -9 q 182 117 220 66 q 118 229 143 168 q 80 358 93 290 q 68 497 68 426 q 74 621 68 554 q 94 754 80 688 q 130 883 108 821 q 184 993 152 945 l 404 943 q 360 866 381 909 q 320 775 338 823 q 286 676 301 727 q 259 574 271 625 q 242 475 248 524 q 236 386 236 427 q 256 243 236 309 q 315 127 275 176 q 417 49 355 77 q 562 21 479 21 q 661 39 616 21 q 739 87 705 56 q 799 158 774 117 q 841 244 825 199 q 865 338 857 290 q 873 432 873 387 q 867 513 873 467 q 849 608 861 558 q 821 708 837 657 q 786 805 805 759 q 746 891 767 852 q 703 956 724 930 l 930 1008 q 979 892 959 954 q 1010 766 998 831 q 1028 637 1023 702 q 1034 511 1034 572 q 1004 296 1034 397 q 912 117 974 194 q 758 -5 851 40 q 538 -50 665 -50 z "},"V":{"ha":1055,"x_min":22,"x_max":1036,"o":"m 1036 961 q 946 686 994 814 q 852 450 899 557 q 763 257 805 342 q 687 112 720 172 q 635 22 654 53 q 615 -9 616 -9 l 472 -20 q 307 251 389 100 q 234 391 272 315 q 159 556 196 468 q 87 741 122 644 q 22 945 52 839 l 257 993 q 289 799 269 889 q 334 628 309 708 q 388 475 359 547 q 448 337 417 404 q 509 207 478 270 q 567 81 539 143 q 674 321 630 201 q 748 557 718 441 q 800 783 779 673 q 836 993 821 893 l 1036 961 z "},"W":{"ha":1504,"x_min":25,"x_max":1483,"o":"m 1483 961 q 1437 804 1463 886 q 1380 640 1411 722 q 1317 477 1350 557 q 1255 325 1285 397 q 1104 -9 1183 155 l 920 -20 l 761 646 q 727 530 745 590 q 692 409 710 470 q 656 288 674 348 q 622 174 639 229 q 590 73 605 120 q 562 -9 574 26 l 378 -20 q 246 296 311 133 q 189 445 218 366 q 131 607 159 524 q 75 776 102 690 q 25 945 47 862 l 260 993 q 275 901 264 962 q 300 762 285 840 q 334 592 315 683 q 377 411 353 502 q 427 236 400 321 q 485 85 454 152 q 532 233 510 158 q 574 379 555 307 q 610 520 593 452 q 641 648 627 588 q 697 917 673 788 l 843 937 q 899 644 867 793 q 927 511 911 581 q 961 368 943 440 q 999 223 979 296 q 1040 85 1019 151 q 1124 307 1086 199 q 1192 525 1161 415 q 1249 749 1223 634 q 1297 993 1274 864 l 1483 961 z "},"X":{"ha":1013,"x_min":17,"x_max":1002,"o":"m 993 940 q 779 731 883 846 q 578 488 675 616 q 778 239 673 357 q 1002 18 884 121 l 783 -35 q 647 172 716 68 q 500 380 578 275 q 361 172 427 275 q 239 -31 296 69 l 21 33 q 242 236 139 126 q 437 464 345 346 q 242 700 345 585 q 17 929 138 816 l 264 1002 q 383 785 319 892 q 518 572 446 677 q 667 794 597 684 q 800 1011 737 904 l 993 940 z "},"Y":{"ha":1013,"x_min":21,"x_max":993,"o":"m 993 925 q 942 765 972 851 q 865 594 911 680 q 752 427 818 508 q 595 282 686 346 l 618 -16 l 403 -3 l 452 282 q 340 362 391 315 q 245 464 289 409 q 167 579 202 519 q 104 701 132 640 q 55 821 76 762 q 21 932 35 880 l 215 979 q 269 743 231 859 q 308 641 285 694 q 361 535 330 587 q 431 434 391 483 q 519 345 470 385 q 623 446 580 392 q 694 558 665 500 q 741 673 724 615 q 770 787 759 732 q 788 892 781 842 q 802 983 795 942 l 993 925 z "},"Z":{"ha":999,"x_min":35,"x_max":970,"o":"m 970 990 l 273 85 q 367 93 311 87 q 487 106 422 98 q 621 126 552 115 q 753 151 690 137 q 869 182 816 165 q 956 220 922 199 l 936 -14 q 835 -4 890 -8 q 722 2 781 0 q 601 5 663 4 q 481 6 540 6 q 367 7 422 7 q 265 7 312 7 q 53 3 159 7 l 708 917 q 611 911 666 916 q 495 896 556 905 q 370 873 433 886 q 247 844 306 860 q 136 808 187 827 q 47 768 84 789 l 35 978 l 970 990 z "},"[":{"ha":562,"x_min":94,"x_max":524,"o":"m 524 61 l 503 -132 l 94 -143 l 94 1125 l 498 1158 l 498 993 q 452 1011 480 1003 q 394 1026 425 1019 q 334 1037 363 1032 q 283 1043 304 1041 l 189 -61 q 270 -45 225 -58 q 361 -16 315 -33 q 450 21 407 1 q 524 61 492 41 z "},"\\":{"ha":953,"x_min":77,"x_max":876,"o":"m 876 25 l 808 -32 l 77 972 l 232 1014 l 876 25 z "},"]":{"ha":561,"x_min":37,"x_max":467,"o":"m 467 -109 l 62 -143 l 62 22 q 109 4 81 12 q 167 -10 136 -4 q 227 -21 197 -16 q 278 -28 256 -25 l 371 1078 q 291 1061 336 1074 q 199 1031 245 1048 q 111 994 153 1014 q 37 954 68 973 l 58 1147 l 467 1158 l 467 -109 z "},"_":{"ha":807,"x_min":142,"x_max":667,"o":"m 667 -36 l 663 -147 q 597 -146 638 -146 q 507 -150 556 -147 q 404 -155 458 -152 q 301 -162 351 -159 q 211 -170 252 -166 q 146 -176 170 -174 l 142 -36 l 667 -36 z "},"`":{"ha":336,"x_min":0,"x_max":336,"o":"m 97 986 l 336 778 l 288 720 l 0 852 l 97 986 z "},"a":{"ha":772,"x_min":49,"x_max":714,"o":"m 522 8 l 539 79 q 487 41 515 58 q 427 13 458 24 q 367 -6 397 1 q 311 -12 336 -12 q 220 1 267 -12 q 136 39 174 14 q 73 104 98 65 q 49 193 49 142 q 72 309 49 260 q 135 389 95 357 q 228 436 174 421 q 343 452 281 452 q 403 447 372 452 q 463 433 433 442 q 518 408 492 423 q 566 371 545 392 q 556 448 564 408 q 531 523 548 489 q 487 578 515 556 q 416 600 459 600 q 311 568 354 600 q 252 475 268 536 l 75 493 q 121 567 92 535 q 189 621 151 600 q 269 654 227 643 q 355 665 312 665 q 474 646 422 665 q 567 594 527 627 q 635 516 607 561 q 680 419 663 471 q 706 310 698 367 q 714 197 714 254 q 709 98 714 147 q 693 0 703 49 l 522 8 m 558 200 q 561 231 560 216 q 564 261 562 245 q 541 318 560 293 q 495 360 522 342 q 436 386 468 377 q 374 395 404 395 q 308 383 338 395 q 255 349 277 371 q 220 298 233 328 q 207 232 207 268 q 218 165 207 195 q 250 113 229 135 q 299 79 270 91 q 366 66 329 66 q 429 76 398 66 q 487 103 460 85 q 531 145 513 120 q 558 200 550 170 z "},"b":{"ha":793,"x_min":64,"x_max":742,"o":"m 574 350 q 565 434 574 389 q 537 518 557 479 q 484 581 517 556 q 403 604 451 606 q 337 584 368 603 q 282 535 306 565 q 245 470 259 506 q 229 401 231 435 q 225 300 227 351 q 222 199 222 249 q 238 150 222 174 q 278 109 254 127 q 329 79 302 90 q 380 68 357 68 q 444 81 416 68 q 493 115 471 94 q 530 165 515 137 q 555 225 545 194 q 569 289 565 257 q 574 350 574 321 m 250 972 l 236 570 q 317 645 267 618 q 431 672 368 672 q 559 646 502 672 q 657 574 617 619 q 720 468 698 529 q 742 339 742 408 q 730 251 742 294 q 698 170 719 208 q 647 100 677 132 q 580 45 617 68 q 500 10 543 22 q 411 -3 458 -3 q 367 3 392 -3 q 315 18 342 8 q 263 42 289 28 q 220 74 238 56 l 216 -16 l 104 -25 l 64 956 l 250 972 z "},"c":{"ha":777,"x_min":50,"x_max":734,"o":"m 734 433 l 559 414 l 559 441 q 549 508 559 474 q 518 569 538 541 q 469 614 498 597 q 403 632 440 632 q 338 616 366 632 q 290 574 311 600 q 257 514 270 548 q 236 444 243 480 q 224 373 228 408 q 221 309 221 338 q 223 250 221 281 q 231 186 225 218 q 249 125 237 155 q 278 73 260 96 q 322 36 296 50 q 385 22 349 22 q 450 39 420 22 q 501 83 479 56 q 535 142 522 110 q 551 205 548 175 l 732 201 q 682 102 720 144 q 594 30 645 59 q 486 -13 544 1 q 375 -28 429 -28 q 244 -3 304 -28 q 141 66 184 22 q 74 171 98 111 q 50 302 50 232 q 76 450 50 381 q 149 570 102 519 q 260 650 195 621 q 403 679 325 679 q 521 664 467 679 q 618 618 576 649 q 691 542 661 588 q 734 433 720 496 z "},"d":{"ha":823,"x_min":52,"x_max":753,"o":"m 593 433 q 577 483 593 459 q 538 526 562 507 q 486 555 515 544 q 429 566 456 566 q 334 541 374 566 q 268 478 294 517 q 231 390 243 439 q 218 293 218 342 q 228 202 218 249 q 258 117 237 156 q 315 54 279 79 q 403 29 350 29 q 475 47 444 29 q 528 95 506 66 q 564 160 550 123 q 586 232 578 196 q 590 333 588 282 q 593 433 593 385 m 753 956 l 726 -28 l 602 -24 l 596 97 q 561 39 583 64 q 510 -4 538 14 q 447 -30 481 -21 q 375 -39 412 -39 q 243 -14 302 -39 q 141 54 183 10 q 75 157 98 97 q 52 289 52 218 q 77 431 52 366 q 148 542 102 496 q 258 613 194 589 q 400 636 323 638 q 447 632 423 635 q 494 621 471 628 q 539 602 517 613 q 578 574 560 590 l 564 965 l 753 956 z "},"e":{"ha":764,"x_min":52,"x_max":717,"o":"m 422 191 q 316 204 369 191 q 221 249 264 218 q 224 195 222 222 q 234 141 227 167 q 251 92 240 115 q 278 51 261 68 q 318 24 294 34 q 374 14 341 14 q 431 25 404 14 q 477 55 457 36 q 510 100 497 74 q 528 155 523 125 l 694 118 q 639 47 675 76 q 560 0 604 18 q 470 -26 517 -18 q 379 -35 422 -35 q 240 -12 301 -35 q 137 55 179 12 q 74 160 96 98 q 52 300 52 222 q 77 442 52 375 q 149 558 103 509 q 260 636 195 608 q 403 665 325 665 q 516 651 460 665 q 617 608 572 637 q 689 532 662 578 q 717 421 717 486 q 691 314 717 357 q 625 242 666 270 q 530 203 583 215 q 422 191 477 191 m 393 615 q 338 603 362 615 q 295 568 314 590 q 264 519 277 547 q 242 460 251 491 q 229 399 233 430 q 222 340 224 368 q 291 268 248 296 q 390 240 334 240 q 454 257 426 240 q 503 300 483 273 q 533 359 522 326 q 543 424 543 391 q 534 491 543 456 q 506 552 524 525 q 459 597 487 580 q 393 615 431 615 z "},"f":{"ha":507,"x_min":17,"x_max":696,"o":"m 489 519 l 260 519 q 271 392 262 460 q 292 255 280 323 q 319 123 304 187 q 349 9 334 60 l 184 -35 q 153 84 167 19 q 130 216 139 149 q 115 351 120 284 q 110 475 110 418 q 110 496 110 484 q 111 519 110 508 l 17 519 l 17 570 l 114 570 q 129 664 119 614 q 154 761 138 713 q 193 852 170 809 q 247 928 216 895 q 318 980 278 960 q 408 999 358 999 q 493 989 452 999 q 570 958 534 979 q 639 902 607 937 q 696 818 671 867 l 518 741 q 514 781 517 758 q 506 827 511 804 q 491 873 500 850 q 468 913 481 896 q 437 942 455 931 q 395 953 418 953 q 343 930 365 953 q 307 873 322 908 q 282 795 292 838 q 268 711 273 752 q 260 634 262 669 q 258 579 258 599 l 258 570 l 489 570 l 489 519 z "},"g":{"ha":828,"x_min":52,"x_max":746,"o":"m 429 47 q 517 66 481 47 q 577 117 554 85 q 609 190 600 149 q 616 275 618 231 l 608 429 q 593 486 608 458 q 553 536 577 514 q 498 571 528 558 q 437 585 467 585 q 342 562 383 585 q 275 504 302 540 q 235 421 248 467 q 221 326 221 374 q 233 230 221 279 q 270 140 245 180 q 335 74 295 100 q 429 47 374 47 m 361 -345 q 261 -322 302 -345 q 192 -262 220 -299 q 149 -176 164 -224 q 125 -77 133 -128 l 311 -64 q 306 -101 308 -83 q 304 -139 304 -120 q 310 -194 304 -166 q 329 -244 315 -222 q 363 -281 342 -267 q 416 -296 385 -296 q 476 -277 450 -296 q 521 -229 502 -259 q 552 -161 540 -199 q 573 -81 565 -122 q 585 -1 581 -41 q 591 71 589 39 q 492 2 549 26 q 366 -22 435 -22 q 238 6 296 -22 q 138 81 180 34 q 74 190 97 128 q 52 318 52 252 q 74 444 52 384 q 137 551 96 505 q 234 625 178 597 q 359 653 291 653 q 414 649 386 653 q 469 636 442 645 q 521 615 496 628 q 567 585 546 602 l 561 650 l 732 665 q 743 494 739 579 q 746 325 746 410 q 745 219 746 275 q 738 108 743 164 q 721 -4 732 52 q 691 -110 710 -60 q 644 -203 672 -160 q 576 -277 616 -246 q 483 -327 536 -309 q 361 -345 429 -345 z "},"h":{"ha":775,"x_min":72,"x_max":714,"o":"m 272 990 l 249 525 q 289 584 266 557 q 341 630 312 611 q 404 660 370 650 q 479 671 439 671 q 559 654 524 671 q 620 610 594 637 q 664 546 646 582 q 693 470 682 509 q 709 391 705 431 q 714 315 714 351 q 709 231 714 275 q 696 143 705 187 q 674 58 687 100 q 647 -21 662 16 l 479 -4 q 513 78 498 30 q 537 178 528 125 q 552 281 547 230 q 557 372 557 332 q 550 443 557 406 q 528 512 544 480 q 485 564 512 543 q 416 585 458 585 q 371 575 391 585 q 333 549 350 565 q 302 513 315 534 q 278 472 288 493 q 240 359 254 422 l 225 32 l 98 21 l 72 975 l 272 990 z "},"i":{"ha":339,"x_min":58,"x_max":298,"o":"m 298 800 q 289 754 298 776 q 264 716 280 732 q 226 690 248 700 q 179 681 204 681 q 132 690 154 681 q 94 716 110 700 q 68 754 77 732 q 58 800 58 776 q 68 847 58 825 q 94 886 77 869 q 132 911 110 902 q 179 921 154 921 q 226 911 204 921 q 264 886 248 902 q 289 847 280 869 q 298 800 298 825 m 275 612 l 224 -40 l 93 -26 l 85 623 l 275 612 z "},"j":{"ha":349,"x_min":-370,"x_max":290,"o":"m 167 677 q 119 687 142 677 q 79 712 96 696 q 52 750 62 728 q 41 798 41 772 q 51 844 41 823 q 78 881 61 865 q 118 906 95 897 q 165 916 140 916 q 213 906 191 916 q 253 881 235 897 q 280 843 270 865 q 290 796 290 821 q 280 749 290 771 q 253 712 270 728 q 214 687 236 696 q 167 677 191 677 m 262 623 q 268 524 266 573 q 269 427 269 475 q 267 325 269 382 q 259 204 265 267 q 242 74 253 140 q 212 -54 231 8 q 166 -172 193 -117 q 102 -268 139 -227 q 16 -333 64 -309 q -96 -357 -33 -357 q -186 -342 -143 -357 q -266 -300 -230 -327 q -328 -236 -301 -273 q -370 -154 -355 -199 l -160 -100 q -161 -118 -160 -109 q -161 -136 -161 -127 q -158 -188 -161 -158 q -144 -245 -155 -218 q -115 -291 -134 -272 q -65 -310 -96 -310 q -18 -292 -39 -310 q 19 -245 3 -275 q 47 -178 35 -216 q 68 -97 60 -139 q 83 -12 77 -54 q 92 70 89 31 q 97 139 96 108 q 98 187 98 170 q 96 296 98 240 q 88 408 93 352 q 77 516 83 463 q 65 615 71 569 l 262 623 z "},"k":{"ha":757,"x_min":68,"x_max":734,"o":"m 281 977 l 237 304 q 330 370 286 332 q 407 453 373 408 q 466 551 441 499 q 500 657 490 603 l 711 615 q 592 479 663 543 q 439 366 522 416 q 532 292 486 336 q 616 196 577 248 q 686 90 655 144 q 734 -17 716 35 l 528 -54 q 515 43 527 -8 q 482 146 503 95 q 433 244 461 197 q 374 328 406 291 q 305 295 339 310 q 236 268 271 279 l 218 -21 l 102 -31 l 68 958 l 281 977 z "},"l":{"ha":328,"x_min":66,"x_max":262,"o":"m 262 1086 l 229 -3 l 100 -14 l 66 1068 l 262 1086 z "},"m":{"ha":1080,"x_min":72,"x_max":1019,"o":"m 233 521 q 273 570 250 547 q 323 611 295 593 q 385 638 351 628 q 457 648 418 648 q 541 627 507 648 q 596 571 575 606 q 693 635 639 611 q 804 660 747 660 q 878 645 846 660 q 934 606 910 631 q 975 549 958 581 q 1001 480 991 516 q 1015 407 1010 444 q 1019 336 1019 370 q 1014 249 1019 298 q 1000 147 1009 199 q 977 48 990 96 q 947 -31 964 1 l 762 -14 q 808 94 788 36 q 840 207 826 143 q 854 343 854 271 q 849 427 854 388 q 829 495 844 467 q 789 541 814 524 q 724 558 764 558 q 670 546 695 558 q 621 515 644 534 q 636 448 631 483 q 640 379 640 413 q 637 294 640 345 q 628 192 633 244 q 615 92 622 139 q 600 16 608 44 l 415 29 q 448 137 433 79 q 470 254 460 187 q 481 396 481 320 q 475 447 481 420 q 456 498 469 475 q 421 537 443 522 q 370 553 400 553 q 332 542 350 553 q 296 512 313 530 q 264 470 279 494 q 236 419 249 446 l 253 4 l 72 -14 l 107 632 l 229 623 l 233 521 z "},"n":{"ha":786,"x_min":75,"x_max":730,"o":"m 261 650 l 254 526 q 297 588 273 559 q 353 637 322 617 q 420 667 384 657 q 497 671 456 676 q 606 631 562 661 q 679 555 651 602 q 718 448 706 509 q 730 315 730 387 q 724 231 730 275 q 705 143 717 187 q 679 58 694 100 q 650 -21 665 16 l 482 -4 q 491 12 484 -3 q 509 54 498 28 q 530 116 519 81 q 551 193 541 152 q 567 280 561 235 q 574 372 574 326 q 565 463 574 423 q 537 529 556 502 q 490 570 519 556 q 419 585 460 585 q 355 565 383 585 q 307 515 328 546 q 271 447 286 485 q 245 370 256 408 l 228 4 l 102 -7 l 75 635 l 261 650 z "},"o":{"ha":828,"x_min":50,"x_max":778,"o":"m 778 317 q 746 171 778 235 q 660 64 713 108 q 537 -2 607 20 q 392 -25 467 -25 q 255 1 317 -25 q 146 72 192 26 q 76 181 101 118 q 50 318 50 243 q 80 455 50 391 q 161 567 111 519 q 277 642 212 614 q 415 669 343 669 q 559 644 493 669 q 674 571 626 618 q 750 459 723 524 q 778 317 778 395 m 607 323 q 603 387 607 354 q 590 451 599 420 q 566 511 581 483 q 530 561 551 539 q 479 594 508 582 q 412 607 450 607 q 318 579 355 607 q 259 510 281 552 q 230 416 238 467 q 221 319 221 366 q 225 256 221 289 q 237 191 229 223 q 260 131 246 159 q 296 80 275 102 q 346 45 317 58 q 412 32 375 32 q 479 45 450 32 q 530 80 509 58 q 566 132 551 102 q 590 194 581 161 q 603 259 599 226 q 607 323 607 293 z "},"p":{"ha":825,"x_min":72,"x_max":774,"o":"m 607 342 q 598 432 607 385 q 567 517 589 478 q 510 581 546 555 q 422 606 475 606 q 353 587 387 606 q 295 538 320 568 q 255 472 270 509 q 240 401 240 436 q 235 301 237 353 q 233 200 233 250 q 249 149 233 172 q 289 107 264 125 q 341 79 313 90 q 396 69 370 69 q 492 93 452 69 q 557 156 532 117 q 595 244 583 195 q 607 342 607 293 m 229 536 q 264 595 242 569 q 315 638 286 621 q 378 664 344 655 q 452 673 413 673 q 583 649 524 673 q 685 581 642 625 q 750 477 727 537 q 774 345 774 416 q 749 202 774 267 q 678 92 724 138 q 568 21 632 45 q 427 -3 504 -4 q 379 1 403 -2 q 332 12 355 5 q 287 31 309 20 q 248 58 266 42 l 262 -330 l 72 -322 l 98 661 l 225 657 l 229 536 z "},"q":{"ha":790,"x_min":52,"x_max":729,"o":"m 571 441 q 555 490 571 467 q 515 532 539 514 q 463 562 491 551 q 412 572 435 572 q 323 545 359 572 q 263 475 286 517 q 229 384 239 433 q 218 292 218 334 q 222 236 218 265 q 234 178 226 207 q 255 124 242 150 q 287 78 269 98 q 331 47 306 58 q 389 36 356 35 q 456 56 425 37 q 510 105 487 76 q 547 171 533 135 q 562 239 561 206 q 568 340 566 290 q 571 441 571 391 m 729 -315 l 543 -330 l 557 71 q 475 -5 526 22 q 363 -32 425 -32 q 233 -5 291 -32 q 135 66 176 21 q 73 172 95 111 q 52 302 52 233 q 77 432 52 370 q 146 542 102 494 q 251 616 191 589 q 382 644 311 644 q 425 639 400 644 q 477 624 450 633 q 529 600 504 614 q 574 567 555 585 l 576 656 l 688 667 l 729 -315 z "},"r":{"ha":501,"x_min":71,"x_max":472,"o":"m 264 661 l 254 484 q 296 548 272 516 q 348 607 319 579 q 407 657 376 634 q 472 694 439 680 l 472 468 q 439 490 458 484 q 400 497 421 497 q 345 487 369 497 q 302 459 320 477 q 271 419 283 442 q 249 370 258 395 l 229 4 l 110 -4 l 71 650 l 264 661 z "},"s":{"ha":733,"x_min":46,"x_max":684,"o":"m 390 -21 q 274 -6 332 -21 q 168 40 216 9 q 86 118 119 71 q 46 229 54 165 l 236 224 q 235 215 235 220 q 235 207 235 211 q 247 135 235 167 q 281 81 258 103 q 334 47 303 59 q 404 36 366 36 q 449 41 427 36 q 489 57 471 45 q 517 86 506 68 q 528 132 528 104 q 508 186 528 163 q 460 223 488 208 q 401 249 432 239 q 347 264 370 258 q 293 278 323 270 q 229 296 262 286 q 165 321 197 307 q 110 355 134 335 q 71 400 85 374 q 56 458 56 425 q 70 526 56 496 q 108 581 84 557 q 164 622 132 604 q 229 650 195 639 q 298 667 263 661 q 363 672 332 672 q 468 660 414 672 q 565 622 521 648 q 638 553 608 595 q 672 452 667 511 l 488 437 l 488 444 q 478 517 488 484 q 449 572 469 549 q 398 608 429 595 q 328 621 368 621 q 288 615 309 621 q 247 598 266 610 q 216 570 229 587 q 203 530 203 553 q 225 474 203 495 q 279 440 247 452 q 345 421 311 427 q 406 408 380 414 q 465 393 433 402 q 527 371 496 384 q 586 339 558 357 q 636 298 614 321 q 671 245 658 275 q 684 179 684 216 q 655 86 684 124 q 583 24 627 47 q 488 -11 539 0 q 390 -21 436 -21 z "},"t":{"ha":453,"x_min":-17,"x_max":468,"o":"m 315 946 l 307 668 l 468 668 l 468 611 l 306 611 l 288 -4 l 163 -16 l 150 611 l -17 611 l -17 668 l 149 668 l 144 903 l 315 946 z "},"u":{"ha":810,"x_min":57,"x_max":741,"o":"m 741 627 l 700 -1 l 581 -12 l 574 140 q 535 71 558 102 q 482 16 512 39 q 414 -20 452 -7 q 334 -33 377 -33 q 214 -6 266 -33 q 127 68 162 20 q 75 181 92 115 q 57 323 57 246 q 69 469 57 407 q 97 574 81 531 q 138 659 115 623 l 332 642 q 273 546 298 602 q 232 428 250 498 q 214 265 214 357 q 227 170 214 210 q 263 103 239 130 q 320 65 287 77 q 396 53 354 53 q 460 73 432 53 q 509 123 488 92 q 544 194 530 155 q 568 272 559 233 l 554 637 l 741 627 z "},"v":{"ha":771,"x_min":22,"x_max":751,"o":"m 751 621 q 581 258 670 437 q 511 122 547 189 q 433 -9 475 56 l 289 -17 q 209 167 248 76 q 132 351 170 258 q 75 490 102 420 q 22 631 47 559 l 267 661 q 275 510 267 590 q 297 349 282 430 q 333 192 311 269 q 382 50 354 115 q 424 137 404 89 q 463 238 445 185 q 497 347 481 291 q 525 458 513 404 q 545 565 537 513 q 557 661 553 616 l 751 621 z "},"w":{"ha":991,"x_min":22,"x_max":966,"o":"m 585 614 q 591 567 586 597 q 604 497 596 536 q 621 414 612 458 q 640 326 630 370 q 689 102 662 222 q 724 290 708 196 q 738 375 731 330 q 750 464 745 419 q 760 553 756 509 q 766 636 764 597 l 966 596 q 925 508 946 557 q 884 404 904 458 q 844 292 863 349 q 809 181 825 235 q 780 77 793 126 q 758 -11 766 28 l 616 -4 l 530 472 l 343 3 l 229 -8 q 193 126 214 49 q 146 289 172 204 q 89 461 120 374 q 22 625 58 549 l 249 656 q 260 510 254 587 q 273 359 266 433 q 290 217 280 284 q 313 100 299 150 l 460 621 l 585 614 z "},"x":{"ha":741,"x_min":21,"x_max":717,"o":"m 583 -28 q 472 123 526 54 q 359 253 417 193 q 253 118 304 187 q 157 -25 201 50 l 49 60 q 183 179 118 117 q 309 306 248 240 q 174 424 245 368 q 21 534 104 480 l 186 669 q 271 530 220 600 q 385 392 323 460 q 492 527 441 458 q 590 669 543 596 l 699 578 q 563 463 629 522 q 436 339 497 404 q 510 266 473 301 q 583 198 547 231 q 653 138 619 166 q 717 86 687 109 l 583 -28 z "},"y":{"ha":796,"x_min":57,"x_max":717,"o":"m 708 629 q 712 576 710 605 q 714 517 713 547 q 716 459 715 488 q 717 406 717 430 q 715 306 717 361 q 707 190 713 250 q 689 66 701 129 q 659 -54 677 4 q 613 -164 640 -113 q 549 -254 586 -216 q 462 -314 511 -292 q 350 -336 413 -336 q 259 -321 302 -336 q 181 -280 216 -307 q 118 -216 145 -253 q 77 -134 92 -178 l 288 -79 q 286 -97 286 -87 q 286 -115 286 -106 q 290 -165 286 -137 q 303 -217 293 -193 q 332 -258 313 -241 q 382 -275 351 -275 q 438 -252 414 -275 q 480 -193 463 -229 q 510 -110 498 -156 q 530 -17 522 -64 q 541 72 538 29 q 546 143 545 114 q 506 75 530 106 q 453 21 483 44 q 386 -14 422 -1 q 306 -26 349 -26 q 191 4 238 -26 q 114 84 143 35 q 71 198 84 134 q 57 329 57 262 q 69 466 57 405 q 97 572 81 528 q 138 665 115 625 l 318 621 q 238 436 262 521 q 214 272 214 352 q 222 201 214 239 q 249 133 231 164 q 297 80 268 101 q 368 60 326 60 q 433 80 405 60 q 483 134 461 101 q 519 207 504 167 q 543 288 534 248 q 543 370 543 326 q 541 458 543 414 q 536 545 540 503 q 526 623 532 587 l 708 629 z "},"z":{"ha":669,"x_min":45,"x_max":628,"o":"m 623 176 l 603 -16 l 46 5 l 401 583 l 385 583 q 302 570 344 583 q 219 537 260 557 q 142 491 179 516 q 72 440 104 465 l 45 627 l 628 633 l 216 60 q 319 67 264 60 q 428 88 374 74 q 533 123 483 102 q 623 176 584 145 z "},"{":{"ha":585,"x_min":49,"x_max":541,"o":"m 541 96 l 479 -153 l 457 -154 q 317 -134 382 -155 q 203 -72 252 -113 q 125 29 154 -31 q 97 165 97 89 q 112 247 97 211 q 144 310 126 282 q 176 360 161 338 q 191 401 191 382 q 184 423 191 414 q 169 439 178 433 q 147 449 159 446 q 125 452 136 452 q 86 445 105 452 q 49 428 66 437 l 49 567 q 86 550 66 557 q 125 543 105 543 q 147 546 136 543 q 169 555 159 549 q 184 571 178 562 q 191 593 191 581 q 176 634 191 612 q 144 684 161 656 q 112 747 126 712 q 97 829 97 783 q 125 966 97 906 q 203 1066 154 1025 q 317 1128 252 1107 q 457 1147 382 1149 l 479 1147 l 541 899 q 475 921 509 913 q 407 929 441 929 q 333 919 370 929 q 267 887 296 908 q 219 835 237 867 q 200 762 200 804 q 208 710 200 734 q 225 667 216 687 q 242 629 235 646 q 250 595 250 611 q 240 555 250 573 q 213 525 229 538 q 177 504 197 511 q 138 497 157 497 q 177 490 157 497 q 213 469 197 482 q 240 439 229 456 q 250 400 250 421 q 242 366 250 383 q 225 328 235 348 q 208 284 216 307 q 200 232 200 260 q 219 159 200 190 q 267 107 237 127 q 333 76 296 86 q 407 65 370 65 q 475 73 441 65 q 541 96 509 81 z "},"|":{"ha":357,"x_min":82,"x_max":283,"o":"m 283 1162 l 233 -189 l 110 -193 l 82 1146 l 283 1162 z "},"}":{"ha":585,"x_min":45,"x_max":536,"o":"m 536 428 q 500 445 519 437 q 460 452 481 452 q 437 449 449 452 q 417 439 426 446 q 402 423 408 433 q 396 401 396 414 q 410 360 396 382 q 442 310 425 338 q 473 247 459 282 q 488 165 488 211 q 459 29 488 89 q 382 -72 431 -31 q 268 -134 333 -113 q 127 -154 202 -155 l 106 -153 l 45 96 q 110 73 76 81 q 178 65 143 65 q 252 76 215 65 q 318 107 289 86 q 366 159 348 127 q 385 232 385 190 q 377 284 385 260 q 360 328 369 307 q 343 366 351 348 q 335 400 335 383 q 346 439 335 421 q 372 469 356 456 q 409 490 389 482 q 449 497 429 497 q 409 504 429 497 q 372 525 389 511 q 346 555 356 538 q 335 595 335 573 q 343 629 335 611 q 360 667 351 646 q 377 710 369 687 q 385 762 385 734 q 366 835 385 804 q 318 887 348 867 q 252 919 289 908 q 178 929 215 929 q 110 921 143 929 q 45 899 76 913 l 106 1147 l 127 1147 q 268 1128 202 1149 q 382 1066 333 1107 q 459 966 431 1025 q 488 829 488 906 q 473 747 488 783 q 442 684 459 712 q 410 634 425 656 q 396 593 396 612 q 402 571 396 581 q 417 555 408 562 q 437 546 426 549 q 460 543 449 543 q 500 550 481 543 q 536 567 519 557 l 536 428 z "},"~":{"ha":761,"x_min":52,"x_max":711,"o":"m 711 547 q 672 502 696 522 q 621 468 648 481 q 566 448 594 455 q 517 441 538 441 q 458 451 483 441 q 414 476 433 461 q 381 508 395 490 q 352 539 366 525 q 324 564 338 554 q 292 574 310 574 q 240 560 262 574 q 203 524 218 546 q 181 475 189 502 q 172 422 173 448 l 52 510 q 81 567 62 539 q 124 615 100 594 q 178 649 149 636 q 241 661 208 661 q 308 652 281 661 q 353 629 334 643 q 386 600 372 616 q 413 571 399 585 q 444 548 427 557 q 484 539 460 539 q 513 544 500 539 q 536 555 526 548 q 554 572 546 563 q 567 591 562 581 q 586 644 580 614 l 711 547 z "},"†":{"ha":652,"x_min":64,"x_max":591,"o":"m 429 1162 l 418 864 q 505 869 462 866 q 591 878 547 872 l 589 799 q 502 803 545 801 q 415 806 459 804 l 379 -189 l 228 -193 l 228 806 q 145 803 186 804 q 64 799 104 802 l 64 864 q 143 862 104 862 q 222 861 182 861 l 228 861 l 228 1146 l 429 1162 z "},"°":{"ha":406,"x_min":62,"x_max":345,"o":"m 345 815 q 332 763 345 787 q 300 722 320 739 q 254 696 280 705 q 201 686 229 686 q 148 695 173 686 q 103 721 122 704 q 73 761 84 737 q 62 815 62 785 q 73 869 62 846 q 103 910 84 893 q 147 936 121 927 q 201 945 172 945 q 257 936 231 945 q 303 911 283 928 q 333 870 322 895 q 345 815 345 846 m 268 814 q 264 844 268 829 q 251 870 260 859 q 230 889 243 882 q 201 896 218 896 q 173 888 184 896 q 154 869 161 881 q 144 843 147 857 q 140 814 140 828 q 144 785 140 800 q 154 760 147 771 q 173 743 161 749 q 201 736 184 736 q 230 742 218 736 q 251 760 243 749 q 264 785 260 770 q 268 814 268 799 z "},"¢":{"ha":608,"x_min":64,"x_max":550,"o":"m 505 950 l 414 714 q 500 654 465 695 q 550 550 535 614 l 419 536 q 421 549 420 544 q 421 559 421 554 q 414 605 421 582 q 393 647 407 628 q 360 677 380 665 q 315 689 340 689 q 271 678 290 689 q 238 649 252 667 q 215 608 224 631 q 201 561 206 585 q 193 511 195 536 q 191 467 191 487 q 194 403 191 437 q 210 338 198 368 q 243 288 221 308 q 301 268 264 268 q 346 280 326 268 q 381 310 366 292 q 404 352 395 329 q 415 399 413 376 l 549 395 q 513 321 539 353 q 450 269 486 290 q 373 238 414 248 q 294 228 332 228 l 288 228 l 258 -17 l 131 -3 l 224 237 q 158 269 188 248 q 108 319 129 290 q 75 384 87 348 q 64 461 64 420 q 82 566 64 517 q 134 651 100 614 q 213 708 167 687 q 315 729 260 729 q 332 728 323 729 q 347 728 340 728 l 378 964 l 505 950 z "},"£":{"ha":947,"x_min":58,"x_max":882,"o":"m 583 347 q 535 351 562 349 q 478 353 507 352 q 421 355 449 354 q 372 355 393 355 l 340 355 q 335 225 337 290 q 334 96 334 161 l 334 68 q 417 73 370 69 q 515 83 464 77 q 620 99 567 90 q 722 122 673 109 q 812 152 771 135 q 882 192 854 170 l 872 -1 l 170 0 q 172 174 170 87 q 178 347 174 260 q 114 340 145 344 q 58 329 83 336 l 58 454 q 84 453 69 454 q 116 453 99 453 q 149 452 132 452 q 182 452 166 452 q 184 535 183 494 q 184 618 184 576 q 202 754 184 690 q 257 867 220 819 q 351 944 294 916 q 488 972 408 972 q 604 954 549 972 q 704 902 659 936 q 782 819 749 867 q 828 710 814 770 l 642 661 q 639 714 641 686 q 631 770 637 742 q 614 824 625 798 q 588 869 604 850 q 547 901 571 889 q 492 913 524 913 q 440 896 462 913 q 404 853 419 880 q 379 793 389 827 q 365 727 370 760 q 357 663 359 693 q 354 611 355 632 l 345 453 q 469 459 406 455 q 583 471 531 463 l 583 347 z "},"§":{"ha":1078,"x_min":69,"x_max":1011,"o":"m 999 127 q 976 23 999 69 q 915 -57 953 -22 q 826 -117 876 -92 q 723 -156 777 -141 q 616 -179 669 -172 q 517 -186 563 -186 q 368 -166 437 -186 q 242 -107 299 -146 q 141 -9 184 -68 q 69 127 97 50 l 304 140 q 376 -50 310 16 q 561 -115 441 -115 q 654 -105 608 -115 q 739 -73 701 -96 q 799 -13 776 -50 q 822 79 822 24 q 807 143 822 118 q 767 184 792 169 q 711 207 743 199 q 645 218 679 214 q 576 222 610 221 q 514 227 543 224 q 418 237 468 230 q 319 258 368 245 q 227 293 271 272 q 149 346 182 314 q 96 423 116 378 q 77 526 77 467 q 89 612 77 572 q 125 684 102 651 q 89 748 102 712 q 77 832 77 784 q 96 935 77 889 q 147 1017 115 981 q 223 1079 180 1053 q 315 1121 267 1105 q 414 1146 363 1138 q 513 1154 465 1154 q 614 1148 560 1154 q 720 1128 667 1142 q 822 1091 773 1114 q 911 1035 871 1068 q 977 957 950 1002 q 1011 856 1004 913 l 785 810 q 789 861 789 835 q 764 965 789 923 q 697 1034 739 1008 q 604 1072 656 1060 q 497 1083 551 1083 q 402 1071 449 1083 q 317 1034 355 1059 q 257 970 280 1008 q 233 880 233 932 q 253 821 233 845 q 302 782 272 798 q 372 758 333 767 q 449 745 410 749 q 524 738 488 740 q 583 733 559 736 q 674 720 627 728 q 768 696 722 711 q 856 660 814 682 q 930 606 898 637 q 980 531 962 574 q 999 433 999 488 q 984 349 999 387 q 943 279 968 311 q 984 214 968 251 q 999 127 999 177 m 514 559 q 445 566 481 562 q 374 574 410 569 q 303 588 338 580 q 236 608 268 596 q 234 592 234 600 q 233 575 233 583 q 253 514 233 540 q 302 470 272 488 q 372 439 333 451 q 449 419 410 427 q 524 407 488 411 q 583 400 559 402 q 701 385 639 394 q 819 354 763 375 q 821 369 821 361 q 822 385 822 376 q 807 451 822 423 q 767 497 792 478 q 711 527 743 515 q 645 544 679 538 q 576 554 610 551 q 514 559 543 557 z "},"•":{"ha":564,"x_min":103,"x_max":461,"o":"m 461 479 q 447 410 461 442 q 408 353 433 377 q 351 314 384 328 q 282 300 319 300 q 212 314 245 300 q 155 353 180 328 q 117 410 131 377 q 103 479 103 442 q 117 549 103 516 q 155 606 131 581 q 212 644 180 630 q 282 659 245 659 q 351 644 319 659 q 408 606 384 630 q 447 549 433 581 q 461 479 461 516 z "},"¶":{"ha":1059,"x_min":60,"x_max":939,"o":"m 939 942 q 930 467 935 703 q 926 -8 925 231 l 753 -7 l 749 297 q 673 290 711 292 q 599 289 636 289 l 583 -29 l 460 -33 l 450 298 q 310 331 380 309 q 184 391 240 353 q 94 486 129 429 q 60 621 60 542 q 78 733 60 683 q 130 823 97 784 q 206 891 162 863 q 301 938 250 920 q 406 965 351 956 q 515 974 461 974 q 619 972 565 974 q 728 967 673 971 q 837 958 783 964 q 939 942 890 951 m 758 899 q 694 904 727 902 q 629 905 662 905 l 603 358 l 618 358 q 683 359 650 358 q 749 364 716 359 l 758 899 m 252 633 q 267 536 252 578 q 308 464 281 494 q 370 412 334 433 q 447 379 406 391 l 433 873 q 361 838 395 859 q 304 787 328 817 q 266 719 279 757 q 252 633 252 681 z "},"ß":{"ha":1025,"x_min":17,"x_max":1002,"o":"m 1002 179 q 973 86 1002 124 q 901 24 945 47 q 806 -11 857 0 q 708 -21 754 -21 q 592 -6 650 -21 q 486 40 534 9 q 405 118 437 71 q 364 229 372 165 l 554 224 q 553 215 553 220 q 553 207 553 211 q 565 135 553 167 q 599 81 576 103 q 652 47 621 59 q 722 36 684 36 q 767 41 745 36 q 807 57 789 45 q 835 86 824 68 q 846 132 846 104 q 826 186 846 163 q 778 223 806 208 q 719 249 750 239 q 665 264 688 258 q 611 278 642 270 q 547 296 580 286 q 484 321 515 307 q 428 355 452 335 q 389 400 404 374 q 374 458 374 425 q 385 521 374 496 q 414 565 397 546 q 450 600 431 584 q 486 634 469 616 q 511 678 502 653 q 518 741 521 703 q 514 781 517 758 q 506 827 511 804 q 491 873 500 850 q 468 913 481 896 q 437 942 455 931 q 395 953 418 953 q 343 930 365 953 q 307 873 322 908 q 282 795 292 838 q 268 711 273 752 q 260 634 262 669 q 258 579 258 599 q 262 493 258 540 q 271 395 265 446 q 286 292 277 345 q 305 190 295 239 q 326 94 315 140 q 349 9 337 47 l 184 -35 q 153 84 167 19 q 130 216 139 149 q 115 351 120 284 q 110 475 110 418 q 110 496 110 484 q 111 519 110 508 l 17 519 l 17 570 l 114 570 q 129 664 119 614 q 154 761 138 713 q 193 852 170 809 q 247 928 216 895 q 318 980 278 960 q 408 999 358 999 q 468 996 437 999 q 528 985 498 994 q 584 961 557 977 q 631 921 610 946 q 666 860 652 896 q 684 775 680 825 q 676 696 687 728 q 647 643 665 665 q 607 606 629 621 q 564 578 584 591 q 529 550 544 565 q 511 513 514 535 q 524 472 508 488 q 570 444 541 455 q 640 424 600 432 q 724 408 680 416 q 783 395 751 404 q 846 373 815 386 q 905 341 877 359 q 955 299 933 323 q 989 245 976 275 q 1002 179 1002 216 z "},"®":{"ha":554,"x_min":77,"x_max":479,"o":"m 275 589 q 196 602 232 589 q 133 639 159 615 q 92 698 106 663 q 77 775 77 732 q 92 850 77 816 q 135 909 108 884 q 198 947 161 933 q 275 961 234 961 q 354 947 317 961 q 419 909 391 934 q 463 851 447 885 q 479 775 479 817 q 463 699 479 733 q 419 640 447 665 q 354 602 391 616 q 275 589 317 589 m 278 926 q 210 912 239 926 q 163 877 182 899 q 135 828 144 854 q 126 775 126 801 q 134 720 126 747 q 160 671 142 692 q 207 636 178 649 q 278 623 236 623 q 347 636 318 623 q 393 671 375 650 q 419 720 411 693 q 428 775 428 747 q 419 828 428 802 q 392 877 410 855 q 345 913 374 899 q 278 926 317 926 m 334 654 l 285 734 l 267 734 q 253 734 260 734 q 239 736 246 734 l 237 659 l 189 659 q 188 768 189 713 q 186 876 187 822 q 237 883 212 882 q 283 885 262 885 q 319 880 301 885 q 353 866 338 876 q 378 842 368 857 q 387 806 387 827 q 382 783 387 793 q 369 766 377 773 q 349 752 360 758 q 326 743 338 747 l 392 671 l 334 654 m 261 859 q 249 859 255 859 q 236 857 242 859 l 239 761 q 250 760 244 761 q 261 760 256 760 q 290 763 276 760 q 313 772 303 766 q 329 788 323 779 q 335 808 335 797 q 329 831 335 822 q 312 847 322 841 q 288 856 301 853 q 261 859 275 859 z "},"©":{"ha":846,"x_min":94,"x_max":753,"o":"m 421 157 q 290 178 350 157 q 186 240 230 200 q 119 336 143 280 q 94 463 94 393 q 120 584 94 528 q 189 681 145 640 q 293 744 233 721 q 421 766 353 766 q 549 744 489 766 q 655 682 610 722 q 727 586 701 642 q 753 463 753 530 q 727 338 753 395 q 655 242 701 282 q 549 179 610 201 q 421 157 489 157 m 424 721 q 308 697 357 721 q 228 636 260 673 q 182 553 197 600 q 167 463 167 507 q 180 368 167 414 q 224 285 194 321 q 304 225 255 248 q 424 203 353 203 q 541 226 492 203 q 621 286 590 249 q 666 370 652 323 q 681 463 681 416 q 666 554 681 508 q 620 637 651 600 q 539 697 588 674 q 424 721 491 721 m 519 503 q 512 549 519 527 q 493 587 506 570 q 462 614 480 604 q 419 624 444 624 q 365 609 387 624 q 329 570 342 593 q 309 517 315 546 q 302 460 302 488 q 308 401 302 431 q 327 347 313 371 q 362 308 340 323 q 419 293 385 293 q 461 301 444 293 q 491 325 479 310 q 510 361 503 340 q 518 407 517 382 l 602 401 q 573 343 591 369 q 531 299 555 317 q 477 272 507 281 q 416 262 448 262 q 337 277 372 262 q 278 318 302 292 q 241 381 254 345 q 228 460 228 417 q 242 537 228 501 q 281 599 256 573 q 340 640 306 625 q 416 654 375 654 q 480 645 450 654 q 535 616 511 635 q 578 569 560 597 q 604 507 596 542 l 519 503 z "},"™":{"ha":999,"x_min":96,"x_max":921,"o":"m 639 589 q 635 598 637 593 q 628 621 632 607 q 586 743 608 682 q 539 863 564 803 q 514 723 522 800 q 501 568 506 646 l 421 582 q 434 668 425 619 q 454 766 443 716 q 480 863 466 817 q 510 945 494 910 l 575 949 q 598 899 585 928 q 623 838 610 871 q 649 771 636 806 q 673 704 662 736 q 703 827 686 766 q 739 945 720 888 l 815 949 q 848 854 831 908 q 882 741 863 807 q 921 589 901 675 l 822 568 q 817 628 821 590 q 806 709 812 665 q 790 795 800 752 q 771 872 781 839 q 744 778 755 826 q 725 690 732 730 q 710 599 716 643 q 666 592 680 594 q 645 589 651 591 q 639 589 637 588 m 222 575 l 231 890 q 195 886 213 889 q 159 879 176 883 q 127 868 142 874 q 102 856 113 863 l 96 939 l 433 942 l 429 878 q 396 886 414 883 q 361 891 378 889 q 327 893 343 892 q 297 893 310 893 l 311 575 l 222 575 z "},"´":{"ha":336,"x_min":0,"x_max":336,"o":"m 336 852 l 47 720 l 0 778 l 237 986 l 336 852 z "},"¨":{"ha":385,"x_min":0,"x_max":385,"o":"m 385 796 q 378 766 385 780 q 362 741 372 751 q 337 724 351 730 q 307 718 323 718 q 277 724 292 718 q 252 741 263 730 q 235 766 241 751 q 229 796 229 780 q 235 826 229 812 q 252 851 241 840 q 277 867 263 861 q 307 873 292 873 q 337 867 323 873 q 362 851 351 861 q 378 826 372 840 q 385 796 385 812 m 154 796 q 148 766 154 780 q 132 741 142 751 q 107 724 121 730 q 78 718 94 718 q 47 724 62 718 q 23 741 33 730 q 6 766 12 751 q 0 796 0 780 q 6 826 0 812 q 23 851 12 840 q 47 867 33 861 q 78 873 62 873 q 107 867 94 873 q 132 851 121 861 q 148 826 142 840 q 154 796 154 812 z "},"≠":{"ha":730,"x_min":109,"x_max":633,"o":"m 610 753 l 538 656 q 587 660 563 658 q 633 665 612 662 l 633 542 q 594 545 616 543 q 550 547 573 546 q 503 549 527 548 q 458 550 479 549 l 386 453 q 514 459 450 455 q 633 471 578 463 l 633 347 q 585 351 612 349 q 528 353 557 352 q 471 355 499 354 q 422 355 444 355 q 370 355 398 355 q 313 353 342 354 l 199 200 l 147 225 l 221 347 q 161 340 189 344 q 109 329 132 336 l 109 454 q 144 453 123 454 q 188 453 165 453 q 232 452 210 452 q 268 452 253 452 l 285 452 l 345 549 q 283 547 315 548 q 221 542 252 545 q 161 534 190 539 q 109 524 132 530 l 109 648 q 144 647 123 648 q 188 647 165 647 q 232 646 210 646 q 268 646 253 646 q 333 646 298 646 q 406 648 368 646 l 514 827 l 610 753 z "},"Æ":{"ha":1699,"x_min":71,"x_max":1650,"o":"m 1458 321 q 1391 328 1427 325 q 1319 332 1356 330 q 1246 334 1282 334 q 1179 335 1211 335 q 1119 334 1149 335 q 1059 332 1089 333 q 1059 252 1059 288 q 1059 182 1059 215 q 1059 118 1059 149 q 1060 54 1059 87 q 1145 61 1097 56 q 1245 72 1193 66 q 1351 88 1297 79 q 1456 109 1405 97 q 1550 136 1506 121 q 1626 168 1594 151 l 1629 0 l 766 0 q 807 113 787 49 q 842 244 827 176 q 680 254 761 252 q 518 256 598 256 q 392 255 455 256 q 265 250 329 254 q 297 135 279 193 q 339 17 315 77 l 125 -22 q 98 50 110 9 q 79 136 87 85 q 71 250 71 186 q 78 422 71 334 q 104 595 85 511 q 158 754 123 679 q 249 886 193 829 q 385 976 305 943 q 574 1008 465 1008 q 673 997 627 1008 q 759 964 720 985 q 830 914 798 943 q 889 848 863 884 l 893 975 l 1650 987 l 1639 800 q 1566 834 1610 819 q 1468 861 1521 849 q 1358 881 1415 872 q 1246 895 1301 889 q 1142 903 1191 900 q 1059 908 1094 907 l 1059 399 l 1065 399 q 1162 400 1112 399 q 1264 404 1213 401 q 1365 411 1315 407 q 1461 419 1415 414 l 1458 321 m 236 526 q 240 417 236 470 q 253 314 244 365 q 388 309 321 310 q 525 309 456 309 q 689 310 607 309 q 856 317 772 311 q 866 391 862 355 q 869 458 869 427 q 862 561 869 507 q 840 668 855 615 q 799 770 824 722 q 739 856 774 819 q 655 915 703 893 q 549 937 608 937 q 450 920 494 937 q 371 871 406 902 q 310 801 336 841 q 269 714 285 760 q 244 621 252 669 q 236 526 236 572 z "},"Ø":{"ha":1204,"x_min":60,"x_max":1146,"o":"m 999 972 l 947 903 q 1029 823 993 867 q 1092 726 1066 779 q 1132 614 1118 673 q 1146 489 1146 555 q 1126 341 1146 411 q 1071 213 1107 272 q 985 107 1035 154 q 873 28 935 60 q 743 -22 812 -5 q 597 -40 673 -40 q 445 -22 517 -40 q 311 29 373 -5 l 267 -32 l 199 25 l 236 82 q 106 255 152 151 q 60 489 60 358 q 79 635 60 566 q 132 763 98 704 q 216 869 167 821 q 325 949 264 916 q 453 1000 385 982 q 597 1018 522 1018 q 712 1007 657 1018 q 818 977 767 996 l 843 1014 l 999 972 m 960 489 q 954 570 960 529 q 938 652 949 612 q 911 730 928 692 q 873 802 895 768 l 375 115 q 472 50 416 73 q 604 26 528 26 q 718 45 667 26 q 809 98 769 64 q 877 175 848 131 q 924 271 905 220 q 951 378 942 323 q 960 489 960 434 m 249 489 q 263 337 249 412 q 313 199 278 262 l 772 904 q 695 939 736 927 q 604 951 653 951 q 492 932 543 951 q 403 879 442 912 q 334 800 363 845 q 286 703 305 755 q 258 597 267 652 q 249 489 249 542 z "},"∞":{"ha":1208,"x_min":83,"x_max":1125,"o":"m 901 187 q 807 208 850 187 q 729 259 765 228 q 663 330 693 291 q 604 406 632 369 q 542 331 576 370 q 469 259 509 292 q 385 205 430 227 q 290 184 340 184 q 202 204 241 184 q 137 256 163 224 q 97 332 111 289 q 83 421 83 374 q 98 525 83 477 q 142 607 113 572 q 216 662 172 642 q 319 682 260 682 q 409 668 370 682 q 482 628 449 653 q 545 571 515 604 q 604 504 574 539 q 664 571 634 539 q 728 628 694 604 q 801 668 762 653 q 890 682 841 682 q 993 662 949 682 q 1066 607 1037 642 q 1111 525 1096 572 q 1125 421 1125 477 q 1109 331 1125 373 q 1063 256 1093 288 q 992 206 1034 224 q 901 187 951 187 m 836 606 q 780 590 808 606 q 726 551 752 574 q 679 502 701 528 q 643 454 657 475 q 663 425 650 442 q 690 389 675 408 q 722 351 705 370 q 757 317 739 332 q 791 293 774 302 q 823 283 808 283 q 878 293 853 283 q 922 320 903 302 q 950 362 940 337 q 961 416 961 387 q 955 478 961 445 q 933 539 948 511 q 895 587 919 568 q 836 606 871 606 m 372 606 q 314 587 338 606 q 276 539 291 568 q 255 478 262 511 q 249 416 249 445 q 259 362 249 387 q 288 320 269 337 q 331 293 306 302 q 386 283 356 283 q 418 293 401 283 q 452 317 435 302 q 486 351 469 332 q 518 389 503 370 q 546 426 534 408 q 566 454 557 443 q 530 502 551 475 q 483 551 509 528 q 429 590 457 574 q 372 606 400 606 z "},"±":{"ha":710,"x_min":92,"x_max":616,"o":"m 435 724 l 424 525 q 524 530 475 527 q 616 541 574 534 l 616 472 q 573 475 597 473 q 522 477 548 476 q 469 479 495 479 q 421 481 443 480 l 410 265 l 298 252 l 277 478 q 178 469 226 475 q 92 454 130 464 l 92 524 q 127 523 106 523 q 171 522 149 522 q 215 521 193 522 q 252 521 236 521 l 272 521 l 254 710 l 435 724 m 616 41 q 568 45 595 43 q 511 48 541 47 q 454 50 482 49 q 406 50 427 50 q 331 49 372 50 q 248 45 290 48 q 164 37 205 43 q 92 24 124 32 l 92 149 q 127 148 106 148 q 171 147 149 147 q 215 146 193 146 q 252 146 236 146 q 339 147 292 146 q 434 150 386 148 q 529 156 482 153 q 616 165 576 160 l 616 41 z "},"¥":{"ha":1071,"x_min":49,"x_max":1021,"o":"m 871 239 q 815 241 846 240 q 751 244 784 243 q 685 246 718 245 q 625 248 652 247 l 646 -16 l 431 -3 l 472 244 q 402 241 437 243 q 334 237 368 239 q 269 230 300 234 q 211 221 237 226 l 211 342 q 251 341 228 341 q 300 340 275 340 q 350 339 325 340 q 395 339 375 339 q 268 470 323 396 q 169 624 212 544 q 97 784 126 704 q 49 932 67 863 l 243 979 q 296 743 258 859 q 335 641 313 694 q 389 535 358 587 q 458 434 419 483 q 547 345 498 385 q 650 446 608 392 q 722 558 693 500 q 769 673 751 615 q 798 787 787 732 q 816 892 809 842 q 829 983 823 942 l 1021 925 q 977 784 1002 859 q 913 633 951 709 q 823 483 875 557 q 700 345 770 408 q 789 350 746 347 q 871 357 832 353 l 871 239 z "},"µ":{"ha":833,"x_min":90,"x_max":774,"o":"m 774 627 l 733 -1 l 614 -12 l 607 140 q 568 71 591 102 q 515 16 545 39 q 448 -20 485 -7 q 367 -33 410 -33 q 301 -26 331 -33 q 244 -5 271 -19 l 241 -253 l 104 -257 l 90 323 q 102 469 90 407 q 130 574 115 531 q 171 659 148 623 l 366 642 q 307 546 332 602 q 266 428 284 498 q 248 265 248 357 q 260 170 248 210 q 297 103 273 130 q 354 65 320 77 q 429 53 387 53 q 493 73 465 53 q 542 123 521 92 q 577 194 563 155 q 602 272 592 233 l 587 637 l 774 627 z "},"∂":{"ha":847,"x_min":56,"x_max":783,"o":"m 240 986 q 267 975 243 988 q 330 935 292 961 q 417 871 369 909 q 516 787 466 834 q 615 686 567 741 q 700 571 663 631 q 761 447 738 511 q 783 317 783 382 q 751 171 783 235 q 666 64 720 108 q 543 -2 612 20 q 397 -25 473 -25 q 260 1 323 -25 q 152 72 197 26 q 81 181 106 118 q 56 318 56 243 q 86 455 56 391 q 166 567 116 519 q 283 642 217 614 q 421 669 349 669 q 502 662 463 669 q 575 639 541 654 q 498 708 543 673 q 396 771 454 742 q 266 822 338 801 q 103 852 193 844 l 240 986 m 612 323 q 608 387 612 354 q 595 451 604 420 q 572 511 587 483 q 535 561 557 539 q 484 594 513 582 q 418 607 455 607 q 323 579 361 607 q 265 510 286 552 q 235 416 243 467 q 227 319 227 366 q 230 256 227 289 q 243 191 234 223 q 266 131 252 159 q 301 80 280 102 q 352 45 323 58 q 418 32 380 32 q 485 45 456 32 q 536 80 514 58 q 572 132 557 102 q 596 194 587 161 q 609 259 605 226 q 612 323 612 293 z "},"∏":{"ha":1035,"x_min":69,"x_max":966,"o":"m 966 977 l 958 844 q 877 863 922 856 q 782 875 831 871 l 794 11 l 642 -17 l 612 882 l 607 882 q 528 880 572 882 q 436 873 484 878 l 461 -3 l 267 -3 l 292 856 q 172 828 227 844 q 82 789 117 812 l 69 971 l 966 977 z "},"π":{"ha":728,"x_min":11,"x_max":718,"o":"m 718 664 l 604 664 l 591 -4 l 425 -16 l 421 664 l 321 664 l 309 -4 l 142 -16 l 138 664 l 11 664 l 11 721 l 718 721 l 718 664 z "},"ª":{"ha":585,"x_min":82,"x_max":509,"o":"m 385 533 l 395 578 q 361 553 379 564 q 323 535 342 543 q 285 524 304 528 q 250 519 267 519 q 192 528 222 519 q 138 552 162 536 q 98 594 113 569 q 82 652 82 618 q 97 725 82 694 q 137 777 111 756 q 197 807 162 797 q 271 817 231 817 q 309 813 289 817 q 347 804 328 810 q 382 788 366 798 q 412 765 399 779 q 406 815 411 789 q 390 863 401 842 q 361 899 379 885 q 317 913 344 913 q 250 892 277 913 q 211 832 222 871 l 98 843 q 128 891 109 870 q 172 926 147 911 q 223 947 196 940 q 279 954 251 954 q 387 928 343 954 q 458 859 431 901 q 497 762 485 816 q 509 654 509 709 q 505 591 509 622 q 494 528 500 559 l 385 533 m 412 692 q 399 729 411 713 q 369 757 387 746 q 330 773 351 768 q 290 779 309 779 q 248 772 267 779 q 214 751 228 764 q 191 718 199 737 q 183 676 183 699 q 211 600 183 629 q 285 570 238 570 q 326 576 306 570 q 362 593 346 582 q 391 621 379 604 q 408 657 403 637 l 412 692 m 503 397 q 463 400 486 399 q 417 402 441 401 q 372 404 394 404 q 334 404 350 404 q 274 403 307 404 q 207 400 241 402 q 140 393 173 397 q 82 382 108 389 l 82 456 q 111 455 94 455 q 146 454 128 454 q 180 453 163 454 q 210 453 197 453 q 280 454 242 453 q 356 456 317 454 q 432 461 395 458 q 503 468 470 464 l 503 397 z "},"º":{"ha":606,"x_min":68,"x_max":533,"o":"m 533 745 q 513 652 533 692 q 458 583 492 611 q 379 540 424 555 q 286 525 334 525 q 199 542 239 525 q 130 587 159 558 q 84 657 100 616 q 68 745 68 697 q 87 832 68 791 q 139 904 106 873 q 213 952 171 935 q 301 970 255 970 q 393 953 351 970 q 467 907 435 937 q 515 836 498 878 q 533 745 533 794 m 424 749 q 418 810 424 778 q 398 869 412 842 q 360 913 384 896 q 300 930 336 930 q 240 913 263 930 q 202 868 216 895 q 183 808 189 841 q 178 746 178 776 q 183 685 178 718 q 203 625 189 652 q 240 580 217 598 q 300 562 264 562 q 360 581 336 562 q 398 626 385 599 q 418 687 412 654 q 424 749 424 720 m 517 411 q 477 414 499 412 q 432 416 455 415 q 386 417 408 417 q 347 418 364 418 q 288 417 321 418 q 221 413 255 416 q 155 407 187 411 q 96 396 122 403 l 96 469 q 125 468 108 469 q 160 468 142 468 q 195 467 178 467 q 224 467 212 467 q 294 467 256 467 q 370 470 332 468 q 447 475 409 472 q 517 482 484 478 l 517 411 z "},"æ":{"ha":1282,"x_min":49,"x_max":1235,"o":"m 940 191 q 834 204 887 191 q 739 249 782 218 q 743 195 740 222 q 752 141 745 167 q 769 92 758 115 q 796 51 779 68 q 836 24 812 34 q 892 14 859 14 q 949 25 922 14 q 995 55 975 36 q 1028 100 1015 74 q 1046 155 1041 125 l 1213 118 q 1157 47 1193 76 q 1078 0 1122 18 q 988 -26 1035 -18 q 897 -35 941 -35 q 786 -21 836 -35 q 697 20 736 -7 l 693 0 l 522 8 l 539 79 q 487 41 515 58 q 427 13 458 24 q 367 -6 397 1 q 311 -12 336 -12 q 220 1 267 -12 q 136 39 174 14 q 73 104 98 65 q 49 193 49 142 q 72 309 49 260 q 135 389 95 357 q 228 436 174 421 q 343 452 281 452 q 403 447 372 452 q 463 433 433 442 q 518 408 492 423 q 566 371 545 392 q 556 448 564 408 q 531 523 548 489 q 487 578 515 556 q 416 600 459 600 q 311 568 354 600 q 252 475 268 536 l 75 493 q 121 567 92 535 q 189 621 151 600 q 269 654 227 643 q 355 665 312 665 q 447 654 405 665 q 523 624 488 644 q 585 577 557 604 q 633 517 612 549 q 753 625 680 585 q 921 665 827 665 q 1034 651 978 665 q 1135 608 1090 637 q 1207 532 1180 578 q 1235 421 1235 486 q 1210 314 1235 357 q 1143 242 1184 270 q 1048 203 1101 215 q 940 191 996 191 m 911 615 q 833 588 865 615 q 782 519 802 560 q 753 430 762 477 q 741 340 743 382 q 809 268 766 296 q 908 240 852 240 q 972 257 944 240 q 1021 300 1001 273 q 1051 359 1040 326 q 1061 424 1061 391 q 1052 491 1061 456 q 1024 552 1042 525 q 977 597 1005 580 q 911 615 948 615 m 558 200 q 561 231 560 216 q 564 261 562 245 q 541 318 560 293 q 495 360 522 342 q 436 386 468 377 q 374 395 404 395 q 308 383 338 395 q 255 349 277 371 q 220 298 233 328 q 207 232 207 268 q 218 165 207 195 q 250 113 229 135 q 299 79 270 91 q 366 66 329 66 q 429 76 398 66 q 487 103 460 85 q 531 145 513 120 q 558 200 550 170 z "},"ø":{"ha":828,"x_min":50,"x_max":778,"o":"m 778 597 l 713 526 q 761 431 744 484 q 778 317 778 378 q 746 171 778 235 q 660 64 713 108 q 537 -2 607 20 q 392 -25 467 -25 q 305 -15 345 -25 q 228 12 264 -5 l 154 -66 l 100 -24 l 165 54 q 80 168 111 100 q 50 318 50 235 q 80 455 50 391 q 161 567 111 519 q 277 642 212 614 q 415 669 343 669 q 530 653 476 669 q 629 607 585 637 l 684 672 l 778 597 m 221 319 q 227 237 221 279 q 249 154 233 194 l 558 524 q 500 584 535 560 q 412 607 465 607 q 318 579 355 607 q 259 510 281 552 q 230 416 238 467 q 221 319 221 366 m 607 323 q 605 365 607 343 q 600 407 604 386 l 293 82 q 344 45 315 59 q 412 32 374 32 q 479 45 450 32 q 530 80 509 58 q 566 132 551 102 q 590 194 581 161 q 603 259 599 226 q 607 323 607 293 z "},"¿":{"ha":946,"x_min":54,"x_max":890,"o":"m 636 614 q 628 571 636 591 q 604 535 619 551 q 569 511 589 520 q 526 503 549 503 q 483 511 503 503 q 448 535 463 520 q 424 571 433 551 q 415 614 415 591 q 424 657 415 637 q 448 692 433 677 q 483 715 463 707 q 526 724 503 724 q 569 715 549 724 q 604 692 589 707 q 628 657 619 677 q 636 614 636 637 m 890 32 q 873 -78 890 -28 q 826 -167 857 -127 q 755 -236 796 -206 q 666 -285 714 -265 q 565 -314 618 -304 q 457 -323 511 -323 q 309 -302 382 -323 q 180 -239 237 -281 q 89 -134 123 -197 q 54 12 54 -71 q 71 106 54 68 q 115 169 87 144 q 177 212 142 195 q 249 244 212 229 q 321 277 286 260 q 386 322 357 295 q 411 350 398 334 q 435 383 423 366 q 456 418 446 400 q 472 452 466 436 l 553 440 q 540 383 551 412 q 513 327 530 354 q 475 278 496 300 q 431 239 454 255 q 358 188 392 212 q 299 136 324 164 q 260 71 275 108 q 245 -18 245 35 q 265 -116 245 -71 q 318 -193 284 -161 q 397 -243 352 -225 q 496 -261 443 -261 q 578 -250 539 -261 q 648 -215 618 -238 q 695 -156 677 -191 q 713 -75 713 -121 q 693 8 713 -31 q 636 71 673 47 l 871 118 q 886 76 882 98 q 890 32 890 54 z "},"¡":{"ha":345,"x_min":58,"x_max":296,"o":"m 296 603 q 287 560 296 580 q 264 525 279 540 q 229 502 249 510 q 186 493 209 493 q 143 502 163 493 q 108 525 123 510 q 85 560 94 540 q 77 603 77 580 q 85 646 77 626 q 108 681 94 666 q 143 704 123 696 q 186 713 163 713 q 229 704 209 713 q 264 681 249 696 q 287 646 279 666 q 296 603 296 626 m 262 -311 l 58 -323 l 123 419 l 235 436 l 262 -311 z "},"¬":{"ha":793,"x_min":90,"x_max":705,"o":"m 705 126 l 510 113 q 513 156 511 130 q 517 213 515 182 q 520 276 519 243 q 523 340 522 309 q 525 397 524 371 q 525 440 526 423 q 475 439 505 440 q 412 435 446 437 q 340 431 377 433 q 267 425 302 428 q 90 411 183 418 l 90 514 l 664 528 l 705 126 z "},"≈":{"ha":831,"x_min":86,"x_max":746,"o":"m 746 631 q 707 585 731 604 q 656 552 683 565 q 601 532 629 538 q 551 525 573 525 q 493 535 517 525 q 449 559 468 545 q 415 591 430 574 q 387 623 401 608 q 359 647 373 637 q 326 657 345 657 q 275 643 296 657 q 238 607 253 629 q 215 558 223 585 q 207 505 208 532 l 86 593 q 116 650 97 623 q 159 699 134 677 q 213 732 183 720 q 277 745 243 745 q 342 735 316 745 q 388 713 369 726 q 421 684 407 699 q 449 654 435 668 q 478 632 463 641 q 518 623 494 623 q 547 627 534 623 q 570 639 560 631 q 588 655 581 646 q 602 675 596 665 q 621 728 614 698 l 746 631 m 746 353 q 707 307 731 327 q 656 274 683 288 q 601 254 629 261 q 551 248 573 248 q 493 257 517 248 q 449 282 468 267 q 415 313 430 296 q 387 345 401 330 q 359 369 373 359 q 326 379 345 379 q 275 365 296 379 q 238 329 253 351 q 215 280 223 307 q 207 228 208 254 l 86 315 q 116 373 97 345 q 159 421 134 400 q 213 454 183 441 q 277 467 243 467 q 342 457 316 467 q 388 435 369 448 q 421 406 407 421 q 449 376 435 390 q 478 354 463 363 q 518 345 494 345 q 547 349 534 345 q 570 361 560 353 q 588 378 581 368 q 602 397 596 387 q 621 450 614 420 l 746 353 z "},"«":{"ha":840,"x_min":41,"x_max":791,"o":"m 374 68 l 41 334 l 347 599 l 436 465 q 369 446 404 460 q 301 415 334 433 q 236 376 267 397 q 179 334 205 355 q 243 283 208 307 q 316 241 278 260 q 395 210 355 222 q 472 195 435 197 l 374 68 m 693 68 l 361 334 l 667 599 l 755 465 q 688 446 723 460 q 620 415 654 433 q 555 376 587 397 q 498 334 524 355 q 562 283 527 307 q 636 241 597 260 q 714 210 674 222 q 791 195 754 197 l 693 68 z "},"»":{"ha":840,"x_min":49,"x_max":799,"o":"m 467 599 l 799 334 l 493 68 l 404 200 q 471 219 437 205 q 540 251 506 233 q 605 290 574 269 q 661 334 636 312 q 597 382 633 359 q 524 425 562 406 q 446 456 486 444 q 368 472 406 469 l 467 599 m 147 599 l 479 334 l 174 68 l 85 200 q 152 219 117 205 q 220 251 186 233 q 286 290 254 269 q 342 334 317 312 q 278 382 313 359 q 204 425 243 406 q 126 456 166 444 q 49 472 86 469 l 147 599 z "},"Œ":{"ha":1792,"x_min":60,"x_max":1743,"o":"m 1552 321 q 1485 328 1520 325 q 1412 332 1449 330 q 1339 334 1375 334 q 1272 335 1303 335 q 1212 334 1242 335 q 1152 332 1182 333 q 1152 252 1152 288 q 1152 182 1152 215 q 1152 118 1152 149 q 1153 54 1152 87 q 1238 61 1190 56 q 1338 72 1286 66 q 1444 88 1390 79 q 1549 109 1498 97 q 1643 136 1599 121 q 1719 168 1687 151 l 1723 0 l 961 0 l 962 89 q 796 -6 889 27 q 597 -40 703 -40 q 381 -2 480 -40 q 211 104 283 35 q 100 271 140 174 q 60 489 60 369 q 79 635 60 566 q 132 763 98 704 q 216 869 167 821 q 325 949 264 916 q 453 1000 385 982 q 597 1018 522 1018 q 809 980 711 1018 q 983 872 908 941 l 986 975 l 1743 987 l 1732 800 q 1658 834 1703 819 q 1561 861 1614 849 q 1451 881 1509 872 q 1339 895 1394 889 q 1235 903 1284 900 q 1152 908 1187 907 l 1152 399 l 1158 399 q 1255 400 1204 399 q 1357 404 1305 401 q 1458 411 1408 407 q 1554 419 1508 414 l 1552 321 m 960 489 q 950 598 960 543 q 922 704 941 653 q 874 801 903 755 q 806 879 846 846 q 716 932 766 913 q 604 951 666 951 q 492 932 543 951 q 403 879 442 912 q 334 800 363 845 q 286 703 305 755 q 258 597 267 652 q 249 489 249 542 q 257 376 249 433 q 283 269 265 320 q 329 173 300 218 q 396 96 357 129 q 487 45 435 64 q 604 26 539 26 q 718 45 667 26 q 809 98 769 64 q 877 175 848 131 q 924 271 905 220 q 951 378 942 323 q 960 489 960 434 z "},"œ":{"ha":1320,"x_min":50,"x_max":1272,"o":"m 977 191 q 871 204 924 191 q 777 249 819 218 q 784 167 778 209 q 806 92 790 125 q 851 36 822 58 q 929 14 881 14 q 986 25 960 14 q 1031 55 1012 36 q 1064 100 1051 74 q 1082 155 1077 125 l 1250 118 q 1194 47 1230 76 q 1115 0 1158 18 q 1025 -26 1072 -18 q 935 -35 978 -35 q 781 -6 846 -35 q 673 77 715 22 q 546 0 619 26 q 392 -25 472 -25 q 255 1 317 -25 q 146 72 192 26 q 76 181 101 118 q 50 318 50 243 q 80 455 50 391 q 161 567 111 519 q 277 642 212 614 q 415 669 343 669 q 574 637 502 669 q 696 549 647 606 q 809 633 742 602 q 958 665 876 665 q 1072 651 1015 665 q 1173 608 1128 637 q 1245 532 1217 578 q 1272 421 1272 486 q 1247 314 1272 357 q 1180 242 1221 270 q 1085 203 1139 215 q 977 191 1032 191 m 607 315 q 597 416 607 364 q 566 510 588 467 q 506 580 543 553 q 412 607 469 607 q 318 579 355 607 q 259 510 281 552 q 230 416 238 467 q 221 319 221 366 q 225 256 221 289 q 237 191 229 223 q 260 131 246 159 q 296 80 275 102 q 346 45 317 58 q 412 32 375 32 q 503 58 466 32 q 562 124 539 83 q 595 216 585 165 q 607 315 606 267 m 949 615 q 871 588 903 615 q 820 519 840 560 q 789 430 800 477 q 777 340 779 382 q 846 268 804 296 q 946 240 888 240 q 1010 257 982 240 q 1058 300 1038 273 q 1088 359 1078 326 q 1099 424 1099 391 q 1089 491 1099 456 q 1061 552 1080 525 q 1014 597 1042 580 q 949 615 985 615 z "},"–":{"ha":736,"x_min":90,"x_max":646,"o":"m 646 427 l 90 427 l 90 551 l 646 551 l 646 427 z "},"—":{"ha":1014,"x_min":90,"x_max":924,"o":"m 924 427 l 90 427 l 90 551 l 924 551 l 924 427 z "},"“":{"ha":610,"x_min":61,"x_max":554,"o":"m 554 772 q 546 729 554 749 q 522 694 537 709 q 487 670 507 679 q 444 661 467 661 q 393 674 415 661 q 356 708 371 687 q 333 755 340 728 q 325 810 325 782 q 333 870 325 840 q 356 926 341 900 q 394 972 372 951 q 444 1007 416 994 l 504 975 q 474 935 486 958 q 461 886 461 911 l 461 880 q 498 867 481 877 q 527 844 515 858 q 547 811 540 829 q 554 772 554 793 m 290 772 q 282 729 290 749 q 258 694 273 709 q 223 670 243 679 q 180 661 203 661 q 129 674 151 661 q 92 708 107 687 q 69 755 77 728 q 61 810 61 782 q 69 870 61 840 q 93 926 77 900 q 130 972 108 951 q 180 1007 153 994 l 240 975 q 210 935 222 958 q 197 886 197 911 l 197 880 q 234 867 217 877 q 263 844 251 858 q 283 811 276 829 q 290 772 290 793 z "},"”":{"ha":610,"x_min":57,"x_max":550,"o":"m 109 693 q 138 735 125 712 q 150 783 150 758 l 150 789 q 113 802 130 792 q 84 825 96 811 q 64 858 71 840 q 57 897 57 876 q 66 940 57 920 q 90 975 75 960 q 124 999 104 990 q 167 1007 144 1007 q 218 994 196 1007 q 255 960 240 981 q 278 913 271 939 q 286 860 286 887 q 278 800 286 829 q 255 743 270 770 q 217 696 239 717 q 167 661 195 675 l 109 693 m 372 693 q 401 735 389 712 q 414 783 414 758 l 414 789 q 377 802 394 792 q 348 825 360 811 q 328 858 335 840 q 321 897 321 876 q 330 940 321 920 q 353 975 338 960 q 388 999 368 990 q 431 1007 408 1007 q 482 994 460 1007 q 519 960 505 981 q 542 913 534 939 q 550 860 550 887 q 542 800 550 829 q 518 743 534 770 q 481 696 503 717 q 431 661 458 675 l 372 693 z "},"‘":{"ha":346,"x_min":61,"x_max":290,"o":"m 290 772 q 282 729 290 749 q 258 694 273 709 q 223 670 243 679 q 180 661 203 661 q 129 674 151 661 q 92 708 107 687 q 69 755 77 728 q 61 810 61 782 q 69 870 61 840 q 93 926 77 900 q 130 972 108 951 q 180 1007 153 994 l 240 975 q 210 935 222 958 q 197 886 197 911 l 197 880 q 234 867 217 877 q 263 844 251 858 q 283 811 276 829 q 290 772 290 793 z "},"’":{"ha":346,"x_min":57,"x_max":286,"o":"m 109 693 q 138 735 125 712 q 150 783 150 758 l 150 789 q 113 802 130 792 q 84 825 96 811 q 64 858 71 840 q 57 897 57 876 q 66 940 57 920 q 90 975 75 960 q 124 999 104 990 q 167 1007 144 1007 q 218 994 196 1007 q 255 960 240 981 q 278 913 271 939 q 286 860 286 887 q 278 800 286 829 q 255 743 270 770 q 217 696 239 717 q 167 661 195 675 l 109 693 z "},"÷":{"ha":679,"x_min":77,"x_max":602,"o":"m 602 444 q 553 448 581 446 q 496 451 526 450 q 439 452 467 452 q 390 453 411 453 q 316 452 357 453 q 232 448 275 451 q 150 440 190 446 q 77 427 109 435 l 77 551 q 112 550 91 551 q 156 550 134 550 q 200 549 178 549 q 236 549 221 549 q 323 550 276 549 q 419 553 370 551 q 514 559 467 555 q 602 568 562 563 l 602 444 m 424 690 q 417 655 424 671 q 397 627 410 639 q 369 607 385 614 q 334 600 352 600 q 298 607 315 600 q 269 627 281 614 q 250 655 257 639 q 243 690 243 671 q 250 726 243 709 q 269 754 257 742 q 298 773 281 766 q 334 781 315 781 q 369 773 352 781 q 397 754 385 766 q 417 726 410 742 q 424 690 424 709 m 419 311 q 413 280 419 294 q 395 254 406 265 q 370 237 385 243 q 339 231 355 231 q 308 237 322 231 q 282 254 293 243 q 266 280 272 265 q 260 311 260 294 q 266 342 260 328 q 283 368 273 357 q 308 386 294 379 q 339 392 323 392 q 370 386 355 392 q 395 368 385 379 q 413 342 406 357 q 419 311 419 328 z "},"⁄":{"ha":661,"x_min":12,"x_max":650,"o":"m 650 949 l 64 0 l 12 25 l 522 996 l 650 949 z "},"€":{"ha":1250,"x_min":49,"x_max":1177,"o":"m 528 306 q 478 310 503 308 q 428 313 453 311 q 465 200 441 253 q 527 106 489 146 q 618 42 564 66 q 743 18 671 18 q 910 71 844 18 q 1007 218 977 123 l 1166 174 q 1082 79 1130 120 q 979 9 1035 37 q 862 -34 924 -20 q 736 -49 800 -49 q 560 -23 640 -49 q 418 51 480 3 q 312 164 355 98 q 245 313 268 231 q 145 305 195 311 q 49 288 96 299 l 89 412 q 158 410 123 410 q 227 410 192 410 q 222 492 222 449 l 222 501 q 165 493 193 498 q 110 482 137 488 l 150 607 q 191 605 171 606 q 232 604 211 604 q 293 772 249 695 q 401 904 336 848 q 551 990 467 959 q 736 1021 636 1021 q 865 1006 802 1021 q 985 963 928 991 q 1091 892 1042 935 q 1177 794 1139 850 l 1017 720 q 980 813 1004 770 q 922 887 956 856 q 842 937 887 919 q 743 954 798 954 q 651 941 693 954 q 576 903 610 927 q 515 846 542 879 q 470 774 489 813 q 437 693 450 736 q 418 606 425 650 q 523 612 471 608 q 628 624 575 616 l 589 500 q 499 506 544 504 q 410 509 454 509 l 410 492 q 410 453 410 473 q 412 414 410 433 q 490 420 451 416 q 567 429 528 424 l 528 306 z "},"‹":{"ha":521,"x_min":41,"x_max":472,"o":"m 472 195 l 374 68 l 41 334 l 347 599 l 436 465 q 369 446 404 460 q 301 415 334 433 q 236 376 267 397 q 179 334 205 355 q 243 283 208 307 q 316 241 278 260 q 395 210 355 222 q 472 195 435 197 z "},"›":{"ha":521,"x_min":49,"x_max":479,"o":"m 479 334 l 174 68 l 85 200 q 152 219 117 205 q 220 251 186 233 q 286 290 254 269 q 342 334 317 312 q 278 382 313 359 q 204 425 243 406 q 126 456 166 444 q 49 472 86 469 l 147 599 l 479 334 z "},"‡":{"ha":665,"x_min":68,"x_max":596,"o":"m 433 1162 l 422 864 q 509 869 467 866 q 596 878 552 872 l 593 799 q 506 803 549 801 q 419 806 464 804 l 397 210 q 496 213 448 211 q 596 218 545 215 l 596 153 q 437 157 517 157 l 396 157 l 383 -189 l 232 -193 l 232 151 q 68 139 150 147 l 71 218 q 151 213 111 215 q 232 210 191 211 l 232 806 q 149 803 190 804 q 68 799 109 802 l 68 864 q 147 862 108 862 q 227 861 186 861 l 232 861 l 232 1146 l 433 1162 z "},"·":{"ha":354,"x_min":66,"x_max":288,"o":"m 288 509 q 279 466 288 486 q 255 431 270 446 q 219 407 239 416 q 176 399 199 399 q 134 407 154 399 q 99 431 114 416 q 75 466 84 446 q 66 509 66 486 q 75 551 66 532 q 99 586 84 571 q 134 609 114 601 q 176 618 154 618 q 219 609 199 618 q 255 586 239 601 q 279 551 270 571 q 288 509 288 532 z "},"‚":{"ha":368,"x_min":69,"x_max":298,"o":"m 121 -140 q 150 -99 138 -121 q 163 -50 163 -76 l 163 -45 q 126 -32 143 -41 q 96 -8 109 -22 q 76 24 83 6 q 69 64 69 43 q 78 107 69 87 q 102 142 87 127 q 137 165 117 157 q 179 174 157 174 q 231 161 208 174 q 268 127 253 148 q 291 80 283 106 q 298 26 298 54 q 290 -34 298 -4 q 267 -90 282 -64 q 230 -138 252 -117 q 179 -172 208 -159 l 121 -140 z "},"„":{"ha":632,"x_min":69,"x_max":562,"o":"m 121 -140 q 150 -99 138 -121 q 163 -50 163 -76 l 163 -45 q 126 -32 143 -41 q 96 -8 109 -22 q 76 24 83 6 q 69 64 69 43 q 78 107 69 87 q 102 142 87 127 q 137 165 117 157 q 179 174 157 174 q 231 161 208 174 q 268 127 253 148 q 291 80 283 106 q 298 26 298 54 q 290 -34 298 -4 q 267 -90 282 -64 q 230 -138 252 -117 q 179 -172 208 -159 l 121 -140 m 385 -140 q 414 -99 401 -121 q 427 -50 427 -76 l 427 -45 q 390 -32 407 -41 q 360 -8 373 -22 q 341 24 348 6 q 334 64 334 43 q 342 107 334 87 q 366 142 351 127 q 400 165 380 157 q 443 174 420 174 q 494 161 472 174 q 532 127 517 148 q 554 80 547 106 q 562 26 562 54 q 554 -34 562 -4 q 531 -90 546 -64 q 493 -138 515 -117 q 443 -172 471 -159 l 385 -140 z "},"‰":{"ha":1458,"x_min":74,"x_max":1402,"o":"m 300 555 q 199 573 241 555 q 129 621 157 591 q 87 689 101 650 q 74 771 74 728 q 88 851 74 812 q 130 920 102 890 q 200 968 158 950 q 300 986 243 986 q 400 968 357 986 q 472 921 444 951 q 514 852 500 891 q 528 771 528 813 q 513 691 528 730 q 471 622 499 652 q 399 574 442 592 q 300 555 357 555 m 300 953 q 239 933 263 953 q 202 886 216 914 q 183 826 188 858 q 178 771 178 795 q 183 715 178 747 q 201 655 188 683 q 239 608 215 627 q 300 589 262 589 q 360 608 336 589 q 398 655 385 627 q 418 715 412 683 q 424 771 424 747 q 418 826 424 795 q 399 886 413 858 q 361 933 386 914 q 300 953 337 953 m 675 -14 q 574 4 616 -14 q 504 51 532 22 q 463 120 476 81 q 449 201 449 159 q 463 282 449 243 q 505 351 477 321 q 575 398 533 380 q 675 416 618 416 q 775 399 732 416 q 847 351 819 381 q 889 282 875 321 q 903 201 903 243 q 888 121 903 160 q 846 53 874 83 q 774 4 817 22 q 675 -14 732 -14 m 675 383 q 614 364 638 383 q 577 316 591 345 q 558 257 563 288 q 553 201 553 225 q 558 145 553 177 q 576 86 563 114 q 614 39 590 58 q 675 20 637 20 q 735 39 711 20 q 773 86 760 58 q 793 145 787 114 q 799 201 799 177 q 793 257 799 225 q 774 316 788 288 q 736 364 761 345 q 675 383 712 383 m 880 880 l 132 0 l 81 25 l 785 954 l 880 880 m 1175 -14 q 1074 4 1117 -14 q 1004 51 1031 22 q 962 120 976 81 q 949 201 949 159 q 963 282 949 243 q 1005 351 977 321 q 1076 398 1034 380 q 1175 416 1118 416 q 1276 399 1233 416 q 1347 351 1318 381 q 1389 282 1375 321 q 1402 201 1402 243 q 1388 121 1402 160 q 1345 53 1374 83 q 1275 4 1317 22 q 1175 -14 1232 -14 m 1175 383 q 1114 364 1138 383 q 1077 316 1090 345 q 1058 257 1063 288 q 1053 201 1053 225 q 1058 145 1053 177 q 1076 86 1063 114 q 1114 39 1090 58 q 1175 20 1137 20 q 1236 39 1212 20 q 1273 86 1259 58 q 1293 145 1287 114 q 1299 201 1299 177 q 1293 257 1299 225 q 1274 316 1288 288 q 1237 364 1261 345 q 1175 383 1213 383 z "},"ı":{"ha":339,"x_min":85,"x_max":275,"o":"m 275 612 l 222 -40 l 93 -26 l 85 623 l 275 612 z "},"ˆ":{"ha":493,"x_min":0,"x_max":493,"o":"m 493 815 l 410 707 l 239 895 l 98 707 l 0 793 l 243 985 l 493 815 z "},"˜":{"ha":510,"x_min":0,"x_max":510,"o":"m 510 782 q 452 744 484 758 q 383 730 419 730 q 334 739 355 730 q 298 759 314 747 q 271 785 283 770 q 247 811 258 799 q 224 831 236 823 q 197 839 212 839 q 155 827 173 839 q 125 798 137 816 q 106 758 113 780 q 100 715 100 736 l 0 787 q 24 834 9 811 q 60 874 39 857 q 104 902 80 892 q 157 913 129 913 q 210 907 189 913 q 245 891 231 901 q 269 871 259 882 q 288 851 278 861 q 310 836 297 842 q 342 829 322 829 q 401 848 376 829 q 440 899 427 866 l 510 782 z "},"¯":{"ha":452,"x_min":0,"x_max":452,"o":"m 452 917 l 447 777 q 225 787 336 785 q 4 787 115 789 l 0 899 l 452 917 z "},"˘":{"ha":435,"x_min":0,"x_max":435,"o":"m 435 907 q 408 831 427 868 q 361 767 389 795 q 297 722 333 739 q 218 705 260 705 q 138 721 175 705 q 74 764 102 737 q 27 828 45 791 q 0 905 8 865 l 144 946 q 139 910 141 928 q 136 872 136 891 q 140 838 136 857 q 153 802 144 819 q 176 773 162 785 q 210 762 190 762 q 255 777 237 762 q 283 814 273 792 q 297 861 293 836 q 301 908 301 886 q 300 927 301 918 q 300 946 300 937 l 435 907 z "},"˙":{"ha":154,"x_min":0,"x_max":154,"o":"m 154 796 q 148 766 154 780 q 132 741 142 751 q 107 724 121 730 q 78 718 94 718 q 47 724 62 718 q 23 741 33 730 q 6 766 12 751 q 0 796 0 780 q 6 826 0 812 q 23 851 12 840 q 47 867 33 861 q 78 873 62 873 q 107 867 94 873 q 132 851 121 861 q 148 826 142 840 q 154 796 154 812 z "},"˚":{"ha":336,"x_min":0,"x_max":336,"o":"m 336 857 q 322 795 336 823 q 283 746 307 766 q 229 714 259 726 q 165 703 198 703 q 101 713 131 703 q 48 744 71 724 q 13 793 26 764 q 0 857 0 821 q 13 922 0 893 q 48 970 26 950 q 101 1001 71 990 q 165 1011 131 1011 q 232 1001 201 1011 q 286 971 263 991 q 323 923 309 951 q 336 857 336 894 m 244 857 q 240 895 244 875 q 227 933 236 916 q 202 962 218 951 q 165 974 187 974 q 130 962 144 974 q 108 932 116 950 q 96 894 100 914 q 93 857 93 873 q 96 820 93 840 q 108 784 100 801 q 130 757 116 768 q 165 746 144 746 q 202 756 187 746 q 227 783 218 767 q 240 819 236 800 q 244 857 244 839 z "},"¸":{"ha":336,"x_min":0,"x_max":336,"o":"m 154 -336 q 113 -330 134 -336 q 71 -314 92 -324 q 33 -291 51 -304 q 0 -265 14 -278 l 86 -215 q 113 -270 92 -248 q 168 -293 134 -293 q 194 -287 182 -293 q 212 -272 205 -281 q 223 -250 219 -262 q 227 -225 227 -238 q 206 -166 227 -187 q 147 -146 185 -146 q 110 -149 128 -146 q 72 -158 91 -153 l 140 18 l 189 0 l 151 -100 q 222 -83 184 -83 q 267 -94 246 -83 q 303 -121 288 -104 q 328 -159 319 -138 q 336 -204 336 -181 q 319 -263 336 -239 q 274 -304 301 -288 q 215 -329 248 -321 q 154 -336 183 -336 z "},"˝":{"ha":503,"x_min":0,"x_max":503,"o":"m 281 936 l 47 720 l 0 778 l 154 1028 l 281 936 m 503 880 l 241 720 l 195 778 l 404 1014 l 503 880 z "},"˛":{"ha":321,"x_min":0,"x_max":321,"o":"m 321 -161 q 297 -222 313 -195 q 257 -268 281 -249 q 204 -298 233 -288 q 140 -309 174 -309 q 88 -300 113 -309 q 43 -277 62 -292 q 12 -239 24 -262 q 0 -187 0 -216 q 11 -132 0 -159 q 37 -81 21 -105 q 74 -35 54 -56 q 114 4 94 -13 l 155 -18 q 113 -91 130 -51 q 96 -174 96 -132 q 99 -202 96 -186 q 110 -233 102 -218 q 129 -258 117 -248 q 155 -268 140 -268 q 183 -258 172 -268 q 200 -235 194 -249 q 209 -205 206 -221 q 211 -176 211 -189 q 207 -132 211 -155 l 321 -161 z "},"ˇ":{"ha":493,"x_min":0,"x_max":493,"o":"m 493 876 l 243 707 l 0 899 l 98 985 l 239 798 l 410 985 l 493 876 z "},"^":{"ha":493,"x_min":0,"x_max":493,"o":"m 493 621 l 410 513 l 244 783 l 98 513 l 0 599 l 243 873 l 493 621 z "},"Š":{"ha":1054,"x_min":57,"x_max":999,"o":"m 504 -47 q 355 -28 425 -47 q 229 31 286 -8 q 129 130 172 71 q 57 267 85 189 l 292 279 q 363 89 297 155 q 549 24 429 24 q 642 33 595 24 q 726 65 689 43 q 786 125 763 88 q 810 218 810 163 q 795 284 810 257 q 755 330 780 312 q 698 360 730 349 q 632 377 666 371 q 564 387 597 384 q 501 393 530 391 q 405 404 455 397 q 306 425 355 412 q 214 460 258 439 q 136 513 170 481 q 83 589 103 545 q 64 693 64 633 q 83 796 64 750 q 135 878 102 842 q 211 940 168 913 q 302 982 254 966 q 401 1007 351 999 q 500 1015 452 1015 q 601 1009 548 1015 q 707 989 654 1003 q 809 952 760 975 q 898 896 859 929 q 964 818 938 863 q 999 717 991 774 l 772 671 q 777 722 777 696 q 751 827 777 784 q 685 896 726 869 q 591 933 644 922 q 485 945 539 945 q 390 932 437 945 q 305 895 342 920 q 244 831 267 869 q 221 742 221 793 q 240 681 221 707 q 290 636 259 655 q 359 606 321 618 q 437 586 398 593 q 511 573 476 578 q 571 567 547 569 q 662 554 614 562 q 755 530 709 545 q 844 493 802 515 q 917 439 886 471 q 967 364 949 407 q 986 267 986 321 q 963 162 986 208 q 902 82 940 117 q 814 22 863 47 q 711 -18 764 -3 q 604 -40 657 -33 q 504 -47 550 -47 m 774 1222 l 524 1053 l 281 1244 l 379 1331 l 519 1143 l 690 1331 l 774 1222 z "},"š":{"ha":733,"x_min":46,"x_max":684,"o":"m 390 -21 q 274 -6 332 -21 q 168 40 216 9 q 86 118 119 71 q 46 229 54 165 l 236 224 q 235 215 235 220 q 235 207 235 211 q 247 135 235 167 q 281 81 258 103 q 334 47 303 59 q 404 36 366 36 q 449 41 427 36 q 489 57 471 45 q 517 86 506 68 q 528 132 528 104 q 508 186 528 163 q 460 223 488 208 q 401 249 432 239 q 347 264 370 258 q 293 278 323 270 q 229 296 262 286 q 165 321 197 307 q 110 355 134 335 q 71 400 85 374 q 56 458 56 425 q 70 526 56 496 q 108 581 84 557 q 164 622 132 604 q 229 650 195 639 q 298 667 263 661 q 363 672 332 672 q 468 660 414 672 q 565 622 521 648 q 638 553 608 595 q 672 452 667 511 l 488 437 l 488 444 q 478 517 488 484 q 449 572 469 549 q 398 608 429 595 q 328 621 368 621 q 288 615 309 621 q 247 598 266 610 q 216 570 229 587 q 203 530 203 553 q 225 474 203 495 q 279 440 247 452 q 345 421 311 427 q 406 408 380 414 q 465 393 433 402 q 527 371 496 384 q 586 339 558 357 q 636 298 614 321 q 671 245 658 275 q 684 179 684 216 q 655 86 684 124 q 583 24 627 47 q 488 -11 539 0 q 390 -21 436 -21 m 611 876 l 361 707 l 118 899 l 216 985 l 357 798 l 528 985 l 611 876 z "},"Ý":{"ha":1013,"x_min":21,"x_max":993,"o":"m 993 925 q 942 765 972 851 q 865 594 911 680 q 752 427 818 508 q 595 282 686 346 l 618 -16 l 403 -3 l 452 282 q 340 362 391 315 q 245 464 289 409 q 167 579 202 519 q 104 701 132 640 q 55 821 76 762 q 21 932 35 880 l 215 979 q 269 743 231 859 q 308 641 285 694 q 361 535 330 587 q 431 434 391 483 q 519 345 470 385 q 623 446 580 392 q 694 558 665 500 q 741 673 724 615 q 770 787 759 732 q 788 892 781 842 q 802 983 795 942 l 993 925 m 803 1078 l 514 945 l 467 1003 l 704 1211 l 803 1078 z "},"ý":{"ha":796,"x_min":57,"x_max":734,"o":"m 708 629 q 712 576 710 605 q 714 517 713 547 q 716 459 715 488 q 717 406 717 430 q 715 306 717 361 q 707 190 713 250 q 689 66 701 129 q 659 -54 677 4 q 613 -164 640 -113 q 549 -254 586 -216 q 462 -314 511 -292 q 350 -336 413 -336 q 259 -321 302 -336 q 181 -280 216 -307 q 118 -216 145 -253 q 77 -134 92 -178 l 288 -79 q 286 -97 286 -87 q 286 -115 286 -106 q 290 -165 286 -137 q 303 -217 293 -193 q 332 -258 313 -241 q 382 -275 351 -275 q 438 -252 414 -275 q 480 -193 463 -229 q 510 -110 498 -156 q 530 -17 522 -64 q 541 72 538 29 q 546 143 545 114 q 506 75 530 106 q 453 21 483 44 q 386 -14 422 -1 q 306 -26 349 -26 q 191 4 238 -26 q 114 84 143 35 q 71 198 84 134 q 57 329 57 262 q 69 466 57 405 q 97 572 81 528 q 138 665 115 625 l 318 621 q 238 436 262 521 q 214 272 214 352 q 222 201 214 239 q 249 133 231 164 q 297 80 268 101 q 368 60 326 60 q 433 80 405 60 q 483 134 461 101 q 519 207 504 167 q 543 288 534 248 q 543 370 543 326 q 541 458 543 414 q 536 545 540 503 q 526 623 532 587 l 708 629 m 734 807 l 445 674 l 397 732 l 635 941 l 734 807 z "},"Ž":{"ha":999,"x_min":35,"x_max":970,"o":"m 970 990 l 273 85 q 367 93 311 87 q 487 106 422 98 q 621 126 552 115 q 753 151 690 137 q 869 182 816 165 q 956 220 922 199 l 936 -14 q 835 -4 890 -8 q 722 2 781 0 q 601 5 663 4 q 481 6 540 6 q 367 7 422 7 q 265 7 312 7 q 53 3 159 7 l 708 917 q 611 911 666 916 q 495 896 556 905 q 370 873 433 886 q 247 844 306 860 q 136 808 187 827 q 47 768 84 789 l 35 978 l 970 990 m 749 1198 l 498 1029 l 256 1221 l 354 1307 l 494 1120 l 665 1307 l 749 1198 z "},"ž":{"ha":669,"x_min":45,"x_max":628,"o":"m 623 176 l 603 -16 l 46 5 l 401 583 l 385 583 q 302 570 344 583 q 219 537 260 557 q 142 491 179 516 q 72 440 104 465 l 45 627 l 628 633 l 216 60 q 319 67 264 60 q 428 88 374 74 q 533 123 483 102 q 623 176 584 145 m 582 852 l 332 682 l 89 874 l 187 960 l 328 773 l 498 960 l 582 852 z "},"Ä":{"ha":1103,"x_min":71,"x_max":1034,"o":"m 574 1008 q 736 976 666 1008 q 857 889 806 944 q 942 763 907 835 q 996 613 976 692 q 1025 455 1017 535 q 1034 302 1034 374 q 1025 182 1034 239 q 1008 79 1017 124 q 982 -21 996 26 l 777 16 q 813 122 796 62 q 844 244 831 182 q 681 254 762 252 q 518 256 599 256 q 392 255 455 256 q 265 250 329 254 q 297 135 279 193 q 339 17 315 77 l 125 -22 q 98 50 110 9 q 79 136 87 85 q 71 250 71 186 q 78 422 71 334 q 104 595 85 511 q 158 754 123 679 q 249 886 193 829 q 385 976 305 943 q 574 1008 465 1008 m 236 526 q 240 417 236 470 q 253 314 244 365 q 388 309 321 310 q 525 309 456 309 q 690 310 607 309 q 857 317 773 311 q 869 458 869 392 q 862 561 869 507 q 840 668 855 615 q 799 770 824 722 q 739 856 774 819 q 655 915 703 893 q 549 937 608 937 q 450 920 494 937 q 371 871 406 902 q 310 801 336 841 q 269 714 285 760 q 244 621 252 669 q 236 526 236 572 m 744 1142 q 738 1112 744 1126 q 721 1087 732 1097 q 697 1070 711 1076 q 667 1064 683 1064 q 637 1070 651 1064 q 612 1087 623 1076 q 595 1112 601 1097 q 589 1142 589 1126 q 595 1172 589 1158 q 612 1197 601 1186 q 637 1213 623 1207 q 667 1219 651 1219 q 697 1213 683 1219 q 721 1197 711 1207 q 738 1172 732 1186 q 744 1142 744 1158 m 513 1142 q 507 1112 513 1126 q 491 1087 501 1097 q 467 1070 481 1076 q 437 1064 453 1064 q 407 1070 421 1064 q 382 1087 393 1076 q 366 1112 372 1097 q 359 1142 359 1126 q 366 1172 359 1158 q 382 1197 372 1186 q 407 1213 393 1207 q 437 1219 421 1219 q 467 1213 453 1219 q 491 1197 481 1207 q 507 1172 501 1186 q 513 1142 513 1158 z "},"Å":{"ha":1103,"x_min":71,"x_max":1034,"o":"m 574 1008 q 736 976 666 1008 q 857 889 806 944 q 942 763 907 835 q 996 613 976 692 q 1025 455 1017 535 q 1034 302 1034 374 q 1025 182 1034 239 q 1008 79 1017 124 q 982 -21 996 26 l 777 16 q 813 122 796 62 q 844 244 831 182 q 681 254 762 252 q 518 256 599 256 q 392 255 455 256 q 265 250 329 254 q 297 135 279 193 q 339 17 315 77 l 125 -22 q 98 50 110 9 q 79 136 87 85 q 71 250 71 186 q 78 422 71 334 q 104 595 85 511 q 158 754 123 679 q 249 886 193 829 q 385 976 305 943 q 574 1008 465 1008 m 236 526 q 240 417 236 470 q 253 314 244 365 q 388 309 321 310 q 525 309 456 309 q 690 310 607 309 q 857 317 773 311 q 869 458 869 392 q 862 561 869 507 q 840 668 855 615 q 799 770 824 722 q 739 856 774 819 q 655 915 703 893 q 549 937 608 937 q 450 920 494 937 q 371 871 406 902 q 310 801 336 841 q 269 714 285 760 q 244 621 252 669 q 236 526 236 572 m 720 1203 q 705 1141 720 1169 q 666 1092 690 1112 q 612 1060 642 1072 q 549 1048 581 1048 q 484 1059 514 1048 q 431 1090 454 1070 q 396 1139 409 1110 q 383 1203 383 1167 q 396 1267 383 1239 q 431 1316 409 1296 q 484 1347 454 1336 q 549 1357 514 1357 q 615 1347 584 1357 q 669 1317 646 1337 q 706 1269 692 1297 q 720 1203 720 1240 m 627 1203 q 623 1241 627 1221 q 610 1279 619 1261 q 586 1308 601 1297 q 549 1320 570 1320 q 513 1308 527 1320 q 491 1278 499 1296 q 479 1240 483 1260 q 476 1203 476 1219 q 479 1166 476 1185 q 491 1130 483 1147 q 513 1103 499 1114 q 549 1092 527 1092 q 586 1102 570 1092 q 610 1129 601 1113 q 623 1165 619 1145 q 627 1203 627 1185 z "},"Ç":{"ha":1126,"x_min":60,"x_max":1084,"o":"m 558 -336 q 517 -330 538 -336 q 475 -314 496 -324 q 437 -291 455 -304 q 404 -265 418 -278 l 490 -215 q 517 -270 496 -248 q 572 -293 538 -293 q 598 -287 587 -293 q 616 -272 609 -281 q 627 -250 623 -262 q 631 -225 631 -238 q 610 -166 631 -187 q 551 -146 589 -146 q 514 -149 532 -146 q 476 -158 495 -153 l 519 -46 q 327 7 412 -37 q 182 121 241 51 q 91 286 123 192 q 60 492 60 380 q 97 702 60 605 q 203 870 135 799 q 366 981 271 941 q 575 1021 461 1021 q 749 994 666 1021 q 900 917 832 967 q 1015 793 967 866 q 1084 629 1063 721 l 868 618 q 848 742 867 682 q 794 849 830 802 q 704 925 758 897 q 581 954 651 954 q 471 934 519 954 q 386 880 422 914 q 322 801 349 846 q 280 704 296 755 q 256 598 264 652 q 249 492 249 543 q 255 381 249 437 q 277 273 262 326 q 316 174 292 220 q 378 93 341 127 q 465 38 415 58 q 581 18 515 18 q 703 43 651 18 q 789 111 755 68 q 842 211 824 154 q 864 332 861 268 l 1076 321 q 1001 168 1050 236 q 887 51 952 99 q 742 -23 821 3 q 575 -49 662 -49 l 555 -100 q 627 -83 589 -83 q 671 -94 650 -83 q 708 -121 692 -104 q 732 -159 723 -138 q 741 -204 741 -181 q 723 -263 741 -239 q 679 -304 705 -288 q 620 -329 652 -321 q 558 -336 587 -336 z "},"É":{"ha":936,"x_min":104,"x_max":888,"o":"m 694 321 q 628 328 663 325 q 555 332 592 330 q 483 334 519 334 q 415 335 447 335 q 355 334 385 335 q 294 332 325 333 q 294 252 294 288 q 294 182 294 215 q 295 118 294 149 q 296 54 295 87 q 381 61 333 56 q 481 72 429 66 q 587 88 533 79 q 692 109 641 97 q 787 136 743 121 q 864 168 831 151 l 867 0 l 104 0 l 129 975 l 888 987 l 875 800 q 802 834 846 819 q 705 861 758 849 q 595 881 652 872 q 482 895 537 889 q 378 903 427 900 q 294 908 330 907 l 294 399 l 302 399 q 399 400 349 399 q 500 404 449 401 q 601 411 551 407 q 697 419 651 414 l 694 321 m 799 1158 l 510 1025 l 463 1084 l 700 1292 l 799 1158 z "},"Ñ":{"ha":1154,"x_min":106,"x_max":1060,"o":"m 1060 966 q 1060 939 1060 966 q 1059 865 1060 912 q 1056 753 1058 817 q 1050 614 1054 689 q 1041 459 1046 540 q 1027 298 1036 378 q 1008 141 1019 218 q 982 0 997 65 l 852 -5 q 777 110 819 45 q 689 245 734 174 q 596 390 643 316 q 505 532 549 463 q 294 867 403 694 q 290 515 291 682 q 289 370 289 444 q 289 228 289 296 q 291 100 290 159 q 296 0 293 41 l 151 -18 q 133 111 140 39 q 120 264 125 184 q 113 427 115 344 q 109 589 110 510 q 109 968 106 772 l 379 989 l 864 147 q 873 337 871 235 q 870 546 874 438 q 858 764 867 654 q 836 982 849 875 l 1060 966 m 839 1105 q 781 1068 813 1082 q 712 1054 748 1054 q 663 1062 684 1054 q 627 1082 643 1070 q 600 1108 612 1094 q 576 1134 587 1122 q 553 1154 565 1146 q 526 1162 541 1162 q 484 1151 502 1162 q 454 1121 466 1139 q 435 1082 441 1103 q 429 1039 429 1060 l 329 1111 q 353 1157 338 1135 q 389 1198 368 1180 q 433 1226 409 1215 q 486 1236 458 1236 q 539 1230 518 1236 q 574 1215 560 1224 q 597 1195 588 1205 q 616 1175 607 1184 q 638 1159 626 1165 q 671 1153 651 1153 q 730 1171 705 1153 q 769 1222 755 1190 l 839 1105 z "},"Ö":{"ha":1204,"x_min":60,"x_max":1146,"o":"m 1146 489 q 1126 341 1146 411 q 1071 213 1107 272 q 985 107 1035 154 q 873 28 935 60 q 743 -22 812 -5 q 597 -40 673 -40 q 381 -2 480 -40 q 211 104 283 35 q 100 271 140 174 q 60 489 60 369 q 79 635 60 566 q 132 763 98 704 q 216 869 167 821 q 325 949 264 916 q 453 1000 385 982 q 597 1018 522 1018 q 743 1001 673 1018 q 874 951 813 983 q 985 871 935 918 q 1071 766 1036 825 q 1126 637 1107 707 q 1146 489 1146 568 m 960 489 q 950 598 960 543 q 922 704 941 653 q 874 801 903 755 q 806 879 846 846 q 716 932 766 913 q 604 951 666 951 q 492 932 543 951 q 403 879 442 912 q 334 800 363 845 q 286 703 305 755 q 258 597 267 652 q 249 489 249 542 q 257 376 249 433 q 283 269 265 320 q 329 173 300 218 q 396 96 357 129 q 487 45 435 64 q 604 26 539 26 q 718 45 667 26 q 809 98 769 64 q 877 175 848 131 q 924 271 905 220 q 951 378 942 323 q 960 489 960 434 m 794 1142 q 788 1112 794 1126 q 771 1087 782 1097 q 747 1070 761 1076 q 717 1064 733 1064 q 687 1070 701 1064 q 662 1087 673 1076 q 645 1112 651 1097 q 639 1142 639 1126 q 645 1172 639 1158 q 662 1197 651 1186 q 687 1213 673 1207 q 717 1219 701 1219 q 747 1213 733 1219 q 771 1197 761 1207 q 788 1172 782 1186 q 794 1142 794 1158 m 564 1142 q 557 1112 564 1126 q 541 1087 551 1097 q 517 1070 531 1076 q 488 1064 503 1064 q 457 1070 471 1064 q 432 1087 443 1076 q 416 1112 422 1097 q 410 1142 410 1126 q 416 1172 410 1158 q 432 1197 422 1186 q 457 1213 443 1207 q 488 1219 471 1219 q 517 1213 503 1219 q 541 1197 531 1207 q 557 1172 551 1186 q 564 1142 564 1158 z "},"Ü":{"ha":1101,"x_min":68,"x_max":1034,"o":"m 538 -50 q 391 -30 457 -50 q 273 28 325 -9 q 182 117 220 66 q 118 229 143 168 q 80 358 93 290 q 68 497 68 426 q 74 621 68 554 q 94 754 80 688 q 130 883 108 821 q 184 993 152 945 l 404 943 q 360 866 381 909 q 320 775 338 823 q 286 676 301 727 q 259 574 271 625 q 242 475 248 524 q 236 386 236 427 q 256 243 236 309 q 315 127 275 176 q 417 49 355 77 q 562 21 479 21 q 661 39 616 21 q 739 87 705 56 q 799 158 774 117 q 841 244 825 199 q 865 338 857 290 q 873 432 873 387 q 867 513 873 467 q 849 608 861 558 q 821 708 837 657 q 786 805 805 759 q 746 891 767 852 q 703 956 724 930 l 930 1008 q 979 892 959 954 q 1010 766 998 831 q 1028 637 1023 702 q 1034 511 1034 572 q 1004 296 1034 397 q 912 117 974 194 q 758 -5 851 40 q 538 -50 665 -50 m 740 1090 q 734 1060 740 1074 q 717 1035 728 1046 q 693 1019 707 1025 q 663 1013 679 1013 q 633 1019 647 1013 q 608 1035 618 1025 q 591 1060 597 1046 q 585 1090 585 1074 q 591 1121 585 1107 q 608 1145 597 1135 q 633 1162 618 1156 q 663 1168 647 1168 q 693 1162 679 1168 q 717 1145 707 1156 q 734 1121 728 1135 q 740 1090 740 1107 m 509 1090 q 503 1060 509 1074 q 487 1035 497 1046 q 463 1019 477 1025 q 433 1013 449 1013 q 403 1019 417 1013 q 378 1035 389 1025 q 361 1060 368 1046 q 355 1090 355 1074 q 361 1121 355 1107 q 378 1145 368 1135 q 403 1162 389 1156 q 433 1168 417 1168 q 463 1162 449 1168 q 487 1145 477 1156 q 503 1121 497 1135 q 509 1090 509 1107 z "},"á":{"ha":772,"x_min":49,"x_max":714,"o":"m 522 8 l 539 79 q 487 41 515 58 q 427 13 458 24 q 367 -6 397 1 q 311 -12 336 -12 q 220 1 267 -12 q 136 39 174 14 q 73 104 98 65 q 49 193 49 142 q 72 309 49 260 q 135 389 95 357 q 228 436 174 421 q 343 452 281 452 q 403 447 372 452 q 463 433 433 442 q 518 408 492 423 q 566 371 545 392 q 556 448 564 408 q 531 523 548 489 q 487 578 515 556 q 416 600 459 600 q 311 568 354 600 q 252 475 268 536 l 75 493 q 121 567 92 535 q 189 621 151 600 q 269 654 227 643 q 355 665 312 665 q 474 646 422 665 q 567 594 527 627 q 635 516 607 561 q 680 419 663 471 q 706 310 698 367 q 714 197 714 254 q 709 98 714 147 q 693 0 703 49 l 522 8 m 558 200 q 561 231 560 216 q 564 261 562 245 q 541 318 560 293 q 495 360 522 342 q 436 386 468 377 q 374 395 404 395 q 308 383 338 395 q 255 349 277 371 q 220 298 233 328 q 207 232 207 268 q 218 165 207 195 q 250 113 229 135 q 299 79 270 91 q 366 66 329 66 q 429 76 398 66 q 487 103 460 85 q 531 145 513 120 q 558 200 550 170 m 657 848 l 368 715 l 321 773 l 558 981 l 657 848 z "},"à":{"ha":772,"x_min":41,"x_max":714,"o":"m 522 8 l 539 79 q 487 41 515 58 q 427 13 458 24 q 367 -6 397 1 q 311 -12 336 -12 q 220 1 267 -12 q 136 39 174 14 q 73 104 98 65 q 49 193 49 142 q 72 309 49 260 q 135 389 95 357 q 228 436 174 421 q 343 452 281 452 q 403 447 372 452 q 463 433 433 442 q 518 408 492 423 q 566 371 545 392 q 556 448 564 408 q 531 523 548 489 q 487 578 515 556 q 416 600 459 600 q 311 568 354 600 q 252 475 268 536 l 75 493 q 121 567 92 535 q 189 621 151 600 q 269 654 227 643 q 355 665 312 665 q 474 646 422 665 q 567 594 527 627 q 635 516 607 561 q 680 419 663 471 q 706 310 698 367 q 714 197 714 254 q 709 98 714 147 q 693 0 703 49 l 522 8 m 558 200 q 561 231 560 216 q 564 261 562 245 q 541 318 560 293 q 495 360 522 342 q 436 386 468 377 q 374 395 404 395 q 308 383 338 395 q 255 349 277 371 q 220 298 233 328 q 207 232 207 268 q 218 165 207 195 q 250 113 229 135 q 299 79 270 91 q 366 66 329 66 q 429 76 398 66 q 487 103 460 85 q 531 145 513 120 q 558 200 550 170 m 138 984 l 378 776 l 329 718 l 41 850 l 138 984 z "},"â":{"ha":772,"x_min":49,"x_max":714,"o":"m 522 8 l 539 79 q 487 41 515 58 q 427 13 458 24 q 367 -6 397 1 q 311 -12 336 -12 q 220 1 267 -12 q 136 39 174 14 q 73 104 98 65 q 49 193 49 142 q 72 309 49 260 q 135 389 95 357 q 228 436 174 421 q 343 452 281 452 q 403 447 372 452 q 463 433 433 442 q 518 408 492 423 q 566 371 545 392 q 556 448 564 408 q 531 523 548 489 q 487 578 515 556 q 416 600 459 600 q 311 568 354 600 q 252 475 268 536 l 75 493 q 121 567 92 535 q 189 621 151 600 q 269 654 227 643 q 355 665 312 665 q 474 646 422 665 q 567 594 527 627 q 635 516 607 561 q 680 419 663 471 q 706 310 698 367 q 714 197 714 254 q 709 98 714 147 q 693 0 703 49 l 522 8 m 558 200 q 561 231 560 216 q 564 261 562 245 q 541 318 560 293 q 495 360 522 342 q 436 386 468 377 q 374 395 404 395 q 308 383 338 395 q 255 349 277 371 q 220 298 233 328 q 207 232 207 268 q 218 165 207 195 q 250 113 229 135 q 299 79 270 91 q 366 66 329 66 q 429 76 398 66 q 487 103 460 85 q 531 145 513 120 q 558 200 550 170 m 628 815 l 545 707 l 374 895 l 233 707 l 135 793 l 378 985 l 628 815 z "},"ä":{"ha":772,"x_min":49,"x_max":714,"o":"m 522 8 l 539 79 q 487 41 515 58 q 427 13 458 24 q 367 -6 397 1 q 311 -12 336 -12 q 220 1 267 -12 q 136 39 174 14 q 73 104 98 65 q 49 193 49 142 q 72 309 49 260 q 135 389 95 357 q 228 436 174 421 q 343 452 281 452 q 403 447 372 452 q 463 433 433 442 q 518 408 492 423 q 566 371 545 392 q 556 448 564 408 q 531 523 548 489 q 487 578 515 556 q 416 600 459 600 q 311 568 354 600 q 252 475 268 536 l 75 493 q 121 567 92 535 q 189 621 151 600 q 269 654 227 643 q 355 665 312 665 q 474 646 422 665 q 567 594 527 627 q 635 516 607 561 q 680 419 663 471 q 706 310 698 367 q 714 197 714 254 q 709 98 714 147 q 693 0 703 49 l 522 8 m 558 200 q 561 231 560 216 q 564 261 562 245 q 541 318 560 293 q 495 360 522 342 q 436 386 468 377 q 374 395 404 395 q 308 383 338 395 q 255 349 277 371 q 220 298 233 328 q 207 232 207 268 q 218 165 207 195 q 250 113 229 135 q 299 79 270 91 q 366 66 329 66 q 429 76 398 66 q 487 103 460 85 q 531 145 513 120 q 558 200 550 170 m 574 796 q 568 766 574 780 q 551 741 562 751 q 527 724 541 730 q 496 718 513 718 q 467 724 481 718 q 441 741 452 730 q 425 766 431 751 q 418 796 418 780 q 425 826 418 812 q 441 851 431 840 q 467 867 452 861 q 496 873 481 873 q 527 867 513 873 q 551 851 541 861 q 568 826 562 840 q 574 796 574 812 m 343 796 q 337 766 343 780 q 321 741 331 751 q 297 724 311 730 q 267 718 283 718 q 237 724 251 718 q 212 741 222 730 q 195 766 201 751 q 189 796 189 780 q 195 826 189 812 q 212 851 201 840 q 237 867 222 861 q 267 873 251 873 q 297 867 283 873 q 321 851 311 861 q 337 826 331 840 q 343 796 343 812 z "},"ã":{"ha":772,"x_min":49,"x_max":714,"o":"m 522 8 l 539 79 q 487 41 515 58 q 427 13 458 24 q 367 -6 397 1 q 311 -12 336 -12 q 220 1 267 -12 q 136 39 174 14 q 73 104 98 65 q 49 193 49 142 q 72 309 49 260 q 135 389 95 357 q 228 436 174 421 q 343 452 281 452 q 403 447 372 452 q 463 433 433 442 q 518 408 492 423 q 566 371 545 392 q 556 448 564 408 q 531 523 548 489 q 487 578 515 556 q 416 600 459 600 q 311 568 354 600 q 252 475 268 536 l 75 493 q 121 567 92 535 q 189 621 151 600 q 269 654 227 643 q 355 665 312 665 q 474 646 422 665 q 567 594 527 627 q 635 516 607 561 q 680 419 663 471 q 706 310 698 367 q 714 197 714 254 q 709 98 714 147 q 693 0 703 49 l 522 8 m 558 200 q 561 231 560 216 q 564 261 562 245 q 541 318 560 293 q 495 360 522 342 q 436 386 468 377 q 374 395 404 395 q 308 383 338 395 q 255 349 277 371 q 220 298 233 328 q 207 232 207 268 q 218 165 207 195 q 250 113 229 135 q 299 79 270 91 q 366 66 329 66 q 429 76 398 66 q 487 103 460 85 q 531 145 513 120 q 558 200 550 170 m 617 766 q 559 728 591 742 q 490 714 526 714 q 441 722 462 714 q 406 742 421 730 q 378 768 390 754 q 354 794 366 783 q 331 814 343 806 q 304 823 319 823 q 262 811 280 823 q 232 782 244 800 q 214 742 220 764 q 207 699 208 720 l 107 771 q 131 818 116 795 q 167 858 146 840 q 212 886 187 876 q 264 897 236 897 q 317 890 296 897 q 352 875 338 884 q 376 855 366 865 q 395 835 385 844 q 417 819 404 825 q 449 813 429 813 q 509 831 484 813 q 547 882 534 850 l 617 766 z "},"å":{"ha":772,"x_min":49,"x_max":714,"o":"m 522 8 l 539 79 q 487 41 515 58 q 427 13 458 24 q 367 -6 397 1 q 311 -12 336 -12 q 220 1 267 -12 q 136 39 174 14 q 73 104 98 65 q 49 193 49 142 q 72 309 49 260 q 135 389 95 357 q 228 436 174 421 q 343 452 281 452 q 403 447 372 452 q 463 433 433 442 q 518 408 492 423 q 566 371 545 392 q 556 448 564 408 q 531 523 548 489 q 487 578 515 556 q 416 600 459 600 q 311 568 354 600 q 252 475 268 536 l 75 493 q 121 567 92 535 q 189 621 151 600 q 269 654 227 643 q 355 665 312 665 q 474 646 422 665 q 567 594 527 627 q 635 516 607 561 q 680 419 663 471 q 706 310 698 367 q 714 197 714 254 q 709 98 714 147 q 693 0 703 49 l 522 8 m 558 200 q 561 231 560 216 q 564 261 562 245 q 541 318 560 293 q 495 360 522 342 q 436 386 468 377 q 374 395 404 395 q 308 383 338 395 q 255 349 277 371 q 220 298 233 328 q 207 232 207 268 q 218 165 207 195 q 250 113 229 135 q 299 79 270 91 q 366 66 329 66 q 429 76 398 66 q 487 103 460 85 q 531 145 513 120 q 558 200 550 170 m 549 857 q 534 795 549 823 q 495 746 519 766 q 441 714 471 726 q 378 703 410 703 q 313 713 343 703 q 260 744 283 724 q 225 793 238 764 q 212 857 212 821 q 225 922 212 893 q 260 970 238 950 q 313 1001 283 990 q 378 1011 343 1011 q 444 1001 413 1011 q 498 971 475 991 q 535 923 522 951 q 549 857 549 894 m 456 857 q 452 895 456 875 q 439 933 448 916 q 415 962 430 951 q 378 974 399 974 q 342 962 356 974 q 320 932 328 950 q 309 894 312 914 q 305 857 305 873 q 309 820 305 840 q 320 784 312 801 q 342 757 328 768 q 378 746 356 746 q 415 756 399 746 q 439 783 430 767 q 452 819 448 800 q 456 857 456 839 z "},"ç":{"ha":777,"x_min":50,"x_max":734,"o":"m 378 -336 q 337 -330 358 -336 q 295 -314 315 -324 q 256 -291 275 -304 q 224 -265 238 -278 l 310 -215 q 336 -270 315 -248 q 392 -293 357 -293 q 417 -287 406 -293 q 436 -272 429 -281 q 447 -250 443 -262 q 450 -225 450 -238 q 430 -166 450 -187 q 371 -146 409 -146 q 333 -149 352 -146 q 296 -158 315 -153 l 346 -26 q 226 6 280 -21 q 133 76 172 33 q 72 178 94 120 q 50 302 50 235 q 76 450 50 381 q 149 570 102 519 q 260 650 195 621 q 403 679 325 679 q 521 664 467 679 q 618 618 576 649 q 691 542 661 588 q 734 433 720 496 l 559 414 l 559 441 q 549 508 559 474 q 518 569 538 541 q 469 614 498 597 q 403 632 440 632 q 338 616 366 632 q 290 574 311 600 q 257 514 270 548 q 236 444 243 480 q 224 373 228 408 q 221 309 221 338 q 223 250 221 281 q 231 186 225 218 q 249 125 237 155 q 278 73 260 96 q 322 36 296 50 q 385 22 349 22 q 450 39 420 22 q 501 83 479 56 q 535 142 522 110 q 551 205 548 175 l 732 201 q 686 107 720 149 q 607 38 652 66 q 508 -7 561 9 q 403 -26 454 -23 l 375 -100 q 446 -83 408 -83 q 491 -94 470 -83 q 527 -121 511 -104 q 551 -159 542 -138 q 559 -204 559 -181 q 542 -263 559 -239 q 498 -304 525 -288 q 439 -329 471 -321 q 378 -336 407 -336 z "},"é":{"ha":764,"x_min":52,"x_max":717,"o":"m 422 191 q 316 204 369 191 q 221 249 264 218 q 224 195 222 222 q 234 141 227 167 q 251 92 240 115 q 278 51 261 68 q 318 24 294 34 q 374 14 341 14 q 431 25 404 14 q 477 55 457 36 q 510 100 497 74 q 528 155 523 125 l 694 118 q 639 47 675 76 q 560 0 604 18 q 470 -26 517 -18 q 379 -35 422 -35 q 240 -12 301 -35 q 137 55 179 12 q 74 160 96 98 q 52 300 52 222 q 77 442 52 375 q 149 558 103 509 q 260 636 195 608 q 403 665 325 665 q 516 651 460 665 q 617 608 572 637 q 689 532 662 578 q 717 421 717 486 q 691 314 717 357 q 625 242 666 270 q 530 203 583 215 q 422 191 477 191 m 393 615 q 338 603 362 615 q 295 568 314 590 q 264 519 277 547 q 242 460 251 491 q 229 399 233 430 q 222 340 224 368 q 291 268 248 296 q 390 240 334 240 q 454 257 426 240 q 503 300 483 273 q 533 359 522 326 q 543 424 543 391 q 534 491 543 456 q 506 552 524 525 q 459 597 487 580 q 393 615 431 615 m 711 845 l 422 712 l 375 770 l 612 979 l 711 845 z "},"è":{"ha":764,"x_min":52,"x_max":717,"o":"m 422 191 q 316 204 369 191 q 221 249 264 218 q 224 195 222 222 q 234 141 227 167 q 251 92 240 115 q 278 51 261 68 q 318 24 294 34 q 374 14 341 14 q 431 25 404 14 q 477 55 457 36 q 510 100 497 74 q 528 155 523 125 l 694 118 q 639 47 675 76 q 560 0 604 18 q 470 -26 517 -18 q 379 -35 422 -35 q 240 -12 301 -35 q 137 55 179 12 q 74 160 96 98 q 52 300 52 222 q 77 442 52 375 q 149 558 103 509 q 260 636 195 608 q 403 665 325 665 q 516 651 460 665 q 617 608 572 637 q 689 532 662 578 q 717 421 717 486 q 691 314 717 357 q 625 242 666 270 q 530 203 583 215 q 422 191 477 191 m 393 615 q 338 603 362 615 q 295 568 314 590 q 264 519 277 547 q 242 460 251 491 q 229 399 233 430 q 222 340 224 368 q 291 268 248 296 q 390 240 334 240 q 454 257 426 240 q 503 300 483 273 q 533 359 522 326 q 543 424 543 391 q 534 491 543 456 q 506 552 524 525 q 459 597 487 580 q 393 615 431 615 m 182 973 l 421 765 l 372 707 l 85 840 l 182 973 z "},"ê":{"ha":764,"x_min":52,"x_max":717,"o":"m 422 191 q 316 204 369 191 q 221 249 264 218 q 224 195 222 222 q 234 141 227 167 q 251 92 240 115 q 278 51 261 68 q 318 24 294 34 q 374 14 341 14 q 431 25 404 14 q 477 55 457 36 q 510 100 497 74 q 528 155 523 125 l 694 118 q 639 47 675 76 q 560 0 604 18 q 470 -26 517 -18 q 379 -35 422 -35 q 240 -12 301 -35 q 137 55 179 12 q 74 160 96 98 q 52 300 52 222 q 77 442 52 375 q 149 558 103 509 q 260 636 195 608 q 403 665 325 665 q 516 651 460 665 q 617 608 572 637 q 689 532 662 578 q 717 421 717 486 q 691 314 717 357 q 625 242 666 270 q 530 203 583 215 q 422 191 477 191 m 393 615 q 338 603 362 615 q 295 568 314 590 q 264 519 277 547 q 242 460 251 491 q 229 399 233 430 q 222 340 224 368 q 291 268 248 296 q 390 240 334 240 q 454 257 426 240 q 503 300 483 273 q 533 359 522 326 q 543 424 543 391 q 534 491 543 456 q 506 552 524 525 q 459 597 487 580 q 393 615 431 615 m 631 799 l 547 690 l 376 878 l 236 690 l 138 777 l 380 968 l 631 799 z "},"ë":{"ha":764,"x_min":52,"x_max":717,"o":"m 422 191 q 316 204 369 191 q 221 249 264 218 q 224 195 222 222 q 234 141 227 167 q 251 92 240 115 q 278 51 261 68 q 318 24 294 34 q 374 14 341 14 q 431 25 404 14 q 477 55 457 36 q 510 100 497 74 q 528 155 523 125 l 694 118 q 639 47 675 76 q 560 0 604 18 q 470 -26 517 -18 q 379 -35 422 -35 q 240 -12 301 -35 q 137 55 179 12 q 74 160 96 98 q 52 300 52 222 q 77 442 52 375 q 149 558 103 509 q 260 636 195 608 q 403 665 325 665 q 516 651 460 665 q 617 608 572 637 q 689 532 662 578 q 717 421 717 486 q 691 314 717 357 q 625 242 666 270 q 530 203 583 215 q 422 191 477 191 m 393 615 q 338 603 362 615 q 295 568 314 590 q 264 519 277 547 q 242 460 251 491 q 229 399 233 430 q 222 340 224 368 q 291 268 248 296 q 390 240 334 240 q 454 257 426 240 q 503 300 483 273 q 533 359 522 326 q 543 424 543 391 q 534 491 543 456 q 506 552 524 525 q 459 597 487 580 q 393 615 431 615 m 576 796 q 570 766 576 780 q 554 741 564 751 q 529 724 543 730 q 499 718 515 718 q 469 724 484 718 q 444 741 455 730 q 427 766 433 751 q 421 796 421 780 q 427 826 421 812 q 444 851 433 840 q 469 867 455 861 q 499 873 484 873 q 529 867 515 873 q 554 851 543 861 q 570 826 564 840 q 576 796 576 812 m 346 796 q 340 766 346 780 q 323 741 334 751 q 299 724 313 730 q 270 718 286 718 q 239 724 254 718 q 215 741 225 730 q 198 766 204 751 q 192 796 192 780 q 198 826 192 812 q 215 851 204 840 q 239 867 225 861 q 270 873 254 873 q 299 867 286 873 q 323 851 313 861 q 340 826 334 840 q 346 796 346 812 z "},"í":{"ha":339,"x_min":85,"x_max":489,"o":"m 275 612 l 222 -40 l 93 -26 l 85 623 l 275 612 m 489 793 l 200 661 l 153 719 l 390 927 l 489 793 z "},"ì":{"ha":339,"x_min":-113,"x_max":275,"o":"m 275 612 l 222 -40 l 93 -26 l 85 623 l 275 612 m -16 932 l 223 724 l 174 666 l -113 799 l -16 932 z "},"î":{"ha":358,"x_min":-63,"x_max":430,"o":"m 278 612 l 225 -40 l 96 -26 l 87 623 l 278 612 m 430 755 l 347 646 l 176 834 l 35 646 l -63 732 l 180 924 l 430 755 z "},"ï":{"ha":339,"x_min":-12,"x_max":373,"o":"m 275 612 l 222 -40 l 93 -26 l 85 623 l 275 612 m 373 760 q 367 729 373 743 q 350 704 361 715 q 326 688 340 694 q 296 682 312 682 q 266 688 280 682 q 241 704 252 694 q 224 729 230 715 q 218 760 218 743 q 224 790 218 776 q 241 814 230 804 q 266 831 252 825 q 296 837 280 837 q 326 831 312 837 q 350 814 340 825 q 367 790 361 804 q 373 760 373 776 m 142 760 q 136 729 142 743 q 120 704 130 715 q 96 688 110 694 q 66 682 82 682 q 36 688 50 682 q 11 704 22 694 q -5 729 1 715 q -12 760 -12 743 q -5 790 -12 776 q 11 814 1 804 q 36 831 22 825 q 66 837 50 837 q 96 831 82 837 q 120 814 110 825 q 136 790 130 804 q 142 760 142 776 z "},"ñ":{"ha":786,"x_min":75,"x_max":730,"o":"m 261 650 l 254 526 q 297 588 273 559 q 353 637 322 617 q 420 667 384 657 q 497 671 456 676 q 606 631 562 661 q 679 555 651 602 q 718 448 706 509 q 730 315 730 387 q 724 231 730 275 q 705 143 717 187 q 679 58 694 100 q 650 -21 665 16 l 482 -4 q 491 12 484 -3 q 509 54 498 28 q 530 116 519 81 q 551 193 541 152 q 567 280 561 235 q 574 372 574 326 q 565 463 574 423 q 537 529 556 502 q 490 570 519 556 q 419 585 460 585 q 355 565 383 585 q 307 515 328 546 q 271 447 286 485 q 245 370 256 408 l 228 4 l 102 -7 l 75 635 l 261 650 m 657 782 q 599 744 631 758 q 530 730 566 730 q 481 739 502 730 q 446 759 461 747 q 418 785 430 770 q 394 811 406 799 q 371 831 383 823 q 345 839 359 839 q 302 827 320 839 q 272 798 284 816 q 254 758 260 780 q 247 715 248 736 l 147 787 q 171 834 156 811 q 207 874 186 857 q 252 902 227 892 q 304 913 276 913 q 357 907 336 913 q 392 891 378 901 q 416 871 406 882 q 435 851 425 861 q 457 836 444 842 q 489 829 469 829 q 549 848 524 829 q 587 899 574 866 l 657 782 z "},"ó":{"ha":828,"x_min":50,"x_max":778,"o":"m 778 317 q 746 171 778 235 q 660 64 713 108 q 537 -2 607 20 q 392 -25 467 -25 q 255 1 317 -25 q 146 72 192 26 q 76 181 101 118 q 50 318 50 243 q 80 455 50 391 q 161 567 111 519 q 277 642 212 614 q 415 669 343 669 q 559 644 493 669 q 674 571 626 618 q 750 459 723 524 q 778 317 778 395 m 607 323 q 603 387 607 354 q 590 451 599 420 q 566 511 581 483 q 530 561 551 539 q 479 594 508 582 q 412 607 450 607 q 318 579 355 607 q 259 510 281 552 q 230 416 238 467 q 221 319 221 366 q 225 256 221 289 q 237 191 229 223 q 260 131 246 159 q 296 80 275 102 q 346 45 317 58 q 412 32 375 32 q 479 45 450 32 q 530 80 509 58 q 566 132 551 102 q 590 194 581 161 q 603 259 599 226 q 607 323 607 293 m 717 845 l 428 712 l 380 770 l 618 979 l 717 845 z "},"ò":{"ha":828,"x_min":50,"x_max":778,"o":"m 778 317 q 746 171 778 235 q 660 64 713 108 q 537 -2 607 20 q 392 -25 467 -25 q 255 1 317 -25 q 146 72 192 26 q 76 181 101 118 q 50 318 50 243 q 80 455 50 391 q 161 567 111 519 q 277 642 212 614 q 415 669 343 669 q 559 644 493 669 q 674 571 626 618 q 750 459 723 524 q 778 317 778 395 m 607 323 q 603 387 607 354 q 590 451 599 420 q 566 511 581 483 q 530 561 551 539 q 479 594 508 582 q 412 607 450 607 q 318 579 355 607 q 259 510 281 552 q 230 416 238 467 q 221 319 221 366 q 225 256 221 289 q 237 191 229 223 q 260 131 246 159 q 296 80 275 102 q 346 45 317 58 q 412 32 375 32 q 479 45 450 32 q 530 80 509 58 q 566 132 551 102 q 590 194 581 161 q 603 259 599 226 q 607 323 607 293 m 186 979 l 425 770 l 376 712 l 89 845 l 186 979 z "},"ô":{"ha":828,"x_min":50,"x_max":778,"o":"m 778 317 q 746 171 778 235 q 660 64 713 108 q 537 -2 607 20 q 392 -25 467 -25 q 255 1 317 -25 q 146 72 192 26 q 76 181 101 118 q 50 318 50 243 q 80 455 50 391 q 161 567 111 519 q 277 642 212 614 q 415 669 343 669 q 559 644 493 669 q 674 571 626 618 q 750 459 723 524 q 778 317 778 395 m 607 323 q 603 387 607 354 q 590 451 599 420 q 566 511 581 483 q 530 561 551 539 q 479 594 508 582 q 412 607 450 607 q 318 579 355 607 q 259 510 281 552 q 230 416 238 467 q 221 319 221 366 q 225 256 221 289 q 237 191 229 223 q 260 131 246 159 q 296 80 275 102 q 346 45 317 58 q 412 32 375 32 q 479 45 450 32 q 530 80 509 58 q 566 132 551 102 q 590 194 581 161 q 603 259 599 226 q 607 323 607 293 m 660 802 l 576 694 l 406 882 l 265 694 l 167 780 l 410 972 l 660 802 z "},"ö":{"ha":828,"x_min":50,"x_max":778,"o":"m 778 317 q 746 171 778 235 q 660 64 713 108 q 537 -2 607 20 q 392 -25 467 -25 q 255 1 317 -25 q 146 72 192 26 q 76 181 101 118 q 50 318 50 243 q 80 455 50 391 q 161 567 111 519 q 277 642 212 614 q 415 669 343 669 q 559 644 493 669 q 674 571 626 618 q 750 459 723 524 q 778 317 778 395 m 607 323 q 603 387 607 354 q 590 451 599 420 q 566 511 581 483 q 530 561 551 539 q 479 594 508 582 q 412 607 450 607 q 318 579 355 607 q 259 510 281 552 q 230 416 238 467 q 221 319 221 366 q 225 256 221 289 q 237 191 229 223 q 260 131 246 159 q 296 80 275 102 q 346 45 317 58 q 412 32 375 32 q 479 45 450 32 q 530 80 509 58 q 566 132 551 102 q 590 194 581 161 q 603 259 599 226 q 607 323 607 293 m 606 796 q 600 766 606 780 q 583 741 593 751 q 558 724 572 730 q 528 718 545 718 q 498 724 513 718 q 473 741 484 730 q 456 766 463 751 q 450 796 450 780 q 456 826 450 812 q 473 851 463 840 q 498 867 484 861 q 528 873 513 873 q 558 867 545 873 q 583 851 572 861 q 600 826 593 840 q 606 796 606 812 m 375 796 q 369 766 375 780 q 353 741 363 751 q 329 724 342 730 q 299 718 315 718 q 269 724 283 718 q 244 741 254 730 q 227 766 233 751 q 221 796 221 780 q 227 826 221 812 q 244 851 233 840 q 269 867 254 861 q 299 873 283 873 q 329 867 315 873 q 353 851 342 861 q 369 826 363 840 q 375 796 375 812 z "},"õ":{"ha":828,"x_min":50,"x_max":778,"o":"m 778 317 q 746 171 778 235 q 660 64 713 108 q 537 -2 607 20 q 392 -25 467 -25 q 255 1 317 -25 q 146 72 192 26 q 76 181 101 118 q 50 318 50 243 q 80 455 50 391 q 161 567 111 519 q 277 642 212 614 q 415 669 343 669 q 559 644 493 669 q 674 571 626 618 q 750 459 723 524 q 778 317 778 395 m 607 323 q 603 387 607 354 q 590 451 599 420 q 566 511 581 483 q 530 561 551 539 q 479 594 508 582 q 412 607 450 607 q 318 579 355 607 q 259 510 281 552 q 230 416 238 467 q 221 319 221 366 q 225 256 221 289 q 237 191 229 223 q 260 131 246 159 q 296 80 275 102 q 346 45 317 58 q 412 32 375 32 q 479 45 450 32 q 530 80 509 58 q 566 132 551 102 q 590 194 581 161 q 603 259 599 226 q 607 323 607 293 m 668 763 q 610 725 642 739 q 541 711 577 711 q 492 720 513 711 q 456 740 472 728 q 429 766 441 751 q 405 792 416 780 q 382 812 394 804 q 355 820 370 820 q 313 808 331 820 q 283 779 295 797 q 264 739 271 761 q 258 696 258 718 l 158 768 q 182 815 167 792 q 218 855 197 838 q 262 883 238 873 q 315 894 287 894 q 368 888 347 894 q 403 872 389 882 q 427 852 417 863 q 446 832 436 842 q 468 817 455 823 q 500 810 480 810 q 559 829 534 810 q 598 880 585 847 l 668 763 z "},"ú":{"ha":810,"x_min":57,"x_max":751,"o":"m 741 627 l 700 -1 l 581 -12 l 574 140 q 535 71 558 102 q 482 16 512 39 q 414 -20 452 -7 q 334 -33 377 -33 q 214 -6 266 -33 q 127 68 162 20 q 75 181 92 115 q 57 323 57 246 q 69 469 57 407 q 97 574 81 531 q 138 659 115 623 l 332 642 q 273 546 298 602 q 232 428 250 498 q 214 265 214 357 q 227 170 214 210 q 263 103 239 130 q 320 65 287 77 q 396 53 354 53 q 460 73 432 53 q 509 123 488 92 q 544 194 530 155 q 568 272 559 233 l 554 637 l 741 627 m 751 807 l 463 674 l 415 732 l 652 941 l 751 807 z "},"ù":{"ha":810,"x_min":57,"x_max":741,"o":"m 741 627 l 700 -1 l 581 -12 l 574 140 q 535 71 558 102 q 482 16 512 39 q 414 -20 452 -7 q 334 -33 377 -33 q 214 -6 266 -33 q 127 68 162 20 q 75 181 92 115 q 57 323 57 246 q 69 469 57 407 q 97 574 81 531 q 138 659 115 623 l 332 642 q 273 546 298 602 q 232 428 250 498 q 214 265 214 357 q 227 170 214 210 q 263 103 239 130 q 320 65 287 77 q 396 53 354 53 q 460 73 432 53 q 509 123 488 92 q 544 194 530 155 q 568 272 559 233 l 554 637 l 741 627 m 228 948 l 467 740 l 418 682 l 131 814 l 228 948 z "},"û":{"ha":810,"x_min":57,"x_max":741,"o":"m 741 627 l 700 -1 l 581 -12 l 574 140 q 535 71 558 102 q 482 16 512 39 q 414 -20 452 -7 q 334 -33 377 -33 q 214 -6 266 -33 q 127 68 162 20 q 75 181 92 115 q 57 323 57 246 q 69 469 57 407 q 97 574 81 531 q 138 659 115 623 l 332 642 q 273 546 298 602 q 232 428 250 498 q 214 265 214 357 q 227 170 214 210 q 263 103 239 130 q 320 65 287 77 q 396 53 354 53 q 460 73 432 53 q 509 123 488 92 q 544 194 530 155 q 568 272 559 233 l 554 637 l 741 627 m 667 799 l 583 690 l 412 878 l 272 690 l 174 777 l 416 968 l 667 799 z "},"ü":{"ha":810,"x_min":57,"x_max":741,"o":"m 741 627 l 700 -1 l 581 -12 l 574 140 q 535 71 558 102 q 482 16 512 39 q 414 -20 452 -7 q 334 -33 377 -33 q 214 -6 266 -33 q 127 68 162 20 q 75 181 92 115 q 57 323 57 246 q 69 469 57 407 q 97 574 81 531 q 138 659 115 623 l 332 642 q 273 546 298 602 q 232 428 250 498 q 214 265 214 357 q 227 170 214 210 q 263 103 239 130 q 320 65 287 77 q 396 53 354 53 q 460 73 432 53 q 509 123 488 92 q 544 194 530 155 q 568 272 559 233 l 554 637 l 741 627 m 623 780 q 617 749 623 764 q 601 725 611 735 q 576 708 590 714 q 546 702 562 702 q 516 708 530 702 q 491 725 502 714 q 474 749 480 735 q 468 780 468 764 q 474 810 468 796 q 491 834 480 824 q 516 851 502 845 q 546 857 530 857 q 576 851 562 857 q 601 834 590 845 q 617 810 611 824 q 623 780 623 796 m 393 780 q 387 749 393 764 q 370 725 380 735 q 346 708 360 714 q 317 702 332 702 q 286 708 300 702 q 261 725 272 714 q 245 749 251 735 q 239 780 239 764 q 245 810 239 796 q 261 834 251 824 q 286 851 272 845 q 317 857 300 857 q 346 851 332 857 q 370 834 360 845 q 387 810 380 824 q 393 780 393 796 z "},"À":{"ha":1103,"x_min":71,"x_max":1034,"o":"m 574 1008 q 736 976 666 1008 q 857 889 806 944 q 942 763 907 835 q 996 613 976 692 q 1025 455 1017 535 q 1034 302 1034 374 q 1025 182 1034 239 q 1008 79 1017 124 q 982 -21 996 26 l 777 16 q 813 122 796 62 q 844 244 831 182 q 681 254 762 252 q 518 256 599 256 q 392 255 455 256 q 265 250 329 254 q 297 135 279 193 q 339 17 315 77 l 125 -22 q 98 50 110 9 q 79 136 87 85 q 71 250 71 186 q 78 422 71 334 q 104 595 85 511 q 158 754 123 679 q 249 886 193 829 q 385 976 305 943 q 574 1008 465 1008 m 236 526 q 240 417 236 470 q 253 314 244 365 q 388 309 321 310 q 525 309 456 309 q 690 310 607 309 q 857 317 773 311 q 869 458 869 392 q 862 561 869 507 q 840 668 855 615 q 799 770 824 722 q 739 856 774 819 q 655 915 703 893 q 549 937 608 937 q 450 920 494 937 q 371 871 406 902 q 310 801 336 841 q 269 714 285 760 q 244 621 252 669 q 236 526 236 572 m 321 1324 l 560 1116 l 511 1057 l 224 1190 l 321 1324 z "},"Ã":{"ha":1103,"x_min":71,"x_max":1034,"o":"m 574 1008 q 736 976 666 1008 q 857 889 806 944 q 942 763 907 835 q 996 613 976 692 q 1025 455 1017 535 q 1034 302 1034 374 q 1025 182 1034 239 q 1008 79 1017 124 q 982 -21 996 26 l 777 16 q 813 122 796 62 q 844 244 831 182 q 681 254 762 252 q 518 256 599 256 q 392 255 455 256 q 265 250 329 254 q 297 135 279 193 q 339 17 315 77 l 125 -22 q 98 50 110 9 q 79 136 87 85 q 71 250 71 186 q 78 422 71 334 q 104 595 85 511 q 158 754 123 679 q 249 886 193 829 q 385 976 305 943 q 574 1008 465 1008 m 236 526 q 240 417 236 470 q 253 314 244 365 q 388 309 321 310 q 525 309 456 309 q 690 310 607 309 q 857 317 773 311 q 869 458 869 392 q 862 561 869 507 q 840 668 855 615 q 799 770 824 722 q 739 856 774 819 q 655 915 703 893 q 549 937 608 937 q 450 920 494 937 q 371 871 406 902 q 310 801 336 841 q 269 714 285 760 q 244 621 252 669 q 236 526 236 572 m 807 1103 q 749 1065 781 1079 q 680 1051 716 1051 q 631 1059 652 1051 q 595 1079 611 1067 q 568 1105 580 1091 q 544 1132 555 1120 q 521 1152 533 1143 q 494 1160 509 1160 q 452 1148 470 1160 q 422 1119 434 1137 q 404 1079 410 1101 q 397 1036 397 1057 l 297 1108 q 321 1155 306 1132 q 357 1195 336 1177 q 401 1223 377 1213 q 454 1234 426 1234 q 507 1227 486 1234 q 542 1212 528 1221 q 566 1192 556 1202 q 585 1172 575 1181 q 607 1156 594 1162 q 639 1150 619 1150 q 699 1168 673 1150 q 737 1219 724 1187 l 807 1103 z "},"Õ":{"ha":1204,"x_min":60,"x_max":1146,"o":"m 1146 489 q 1126 341 1146 411 q 1071 213 1107 272 q 985 107 1035 154 q 873 28 935 60 q 743 -22 812 -5 q 597 -40 673 -40 q 381 -2 480 -40 q 211 104 283 35 q 100 271 140 174 q 60 489 60 369 q 79 635 60 566 q 132 763 98 704 q 216 869 167 821 q 325 949 264 916 q 453 1000 385 982 q 597 1018 522 1018 q 743 1001 673 1018 q 874 951 813 983 q 985 871 935 918 q 1071 766 1036 825 q 1126 637 1107 707 q 1146 489 1146 568 m 960 489 q 950 598 960 543 q 922 704 941 653 q 874 801 903 755 q 806 879 846 846 q 716 932 766 913 q 604 951 666 951 q 492 932 543 951 q 403 879 442 912 q 334 800 363 845 q 286 703 305 755 q 258 597 267 652 q 249 489 249 542 q 257 376 249 433 q 283 269 265 320 q 329 173 300 218 q 396 96 357 129 q 487 45 435 64 q 604 26 539 26 q 718 45 667 26 q 809 98 769 64 q 877 175 848 131 q 924 271 905 220 q 951 378 942 323 q 960 489 960 434 m 857 1108 q 799 1070 831 1084 q 730 1057 766 1057 q 682 1065 702 1057 q 646 1085 661 1073 q 618 1111 630 1097 q 594 1137 606 1125 q 571 1157 583 1149 q 545 1165 559 1165 q 502 1154 520 1165 q 472 1124 484 1142 q 454 1084 460 1106 q 447 1042 448 1063 l 347 1114 q 371 1160 356 1137 q 407 1200 387 1183 q 452 1229 427 1218 q 504 1239 476 1239 q 557 1233 536 1239 q 592 1217 578 1227 q 616 1197 606 1208 q 635 1177 625 1187 q 657 1162 644 1168 q 689 1156 669 1156 q 749 1174 724 1156 q 787 1225 774 1192 l 857 1108 z "},"ÿ":{"ha":796,"x_min":57,"x_max":717,"o":"m 708 629 q 712 576 710 605 q 714 517 713 547 q 716 459 715 488 q 717 406 717 430 q 715 306 717 361 q 707 190 713 250 q 689 66 701 129 q 659 -54 677 4 q 613 -164 640 -113 q 549 -254 586 -216 q 462 -314 511 -292 q 350 -336 413 -336 q 259 -321 302 -336 q 181 -280 216 -307 q 118 -216 145 -253 q 77 -134 92 -178 l 288 -79 q 286 -97 286 -87 q 286 -115 286 -106 q 290 -165 286 -137 q 303 -217 293 -193 q 332 -258 313 -241 q 382 -275 351 -275 q 438 -252 414 -275 q 480 -193 463 -229 q 510 -110 498 -156 q 530 -17 522 -64 q 541 72 538 29 q 546 143 545 114 q 506 75 530 106 q 453 21 483 44 q 386 -14 422 -1 q 306 -26 349 -26 q 191 4 238 -26 q 114 84 143 35 q 71 198 84 134 q 57 329 57 262 q 69 466 57 405 q 97 572 81 528 q 138 665 115 625 l 318 621 q 238 436 262 521 q 214 272 214 352 q 222 201 214 239 q 249 133 231 164 q 297 80 268 101 q 368 60 326 60 q 433 80 405 60 q 483 134 461 101 q 519 207 504 167 q 543 288 534 248 q 543 370 543 326 q 541 458 543 414 q 536 545 540 503 q 526 623 532 587 l 708 629 m 603 774 q 597 744 603 758 q 580 719 591 730 q 556 703 570 709 q 526 696 542 696 q 496 703 510 696 q 471 719 481 709 q 454 744 460 730 q 448 774 448 758 q 454 805 448 791 q 471 829 460 819 q 496 846 481 840 q 526 852 510 852 q 556 846 542 852 q 580 829 570 840 q 597 805 591 819 q 603 774 603 791 m 372 774 q 366 744 372 758 q 350 719 360 730 q 326 703 340 709 q 296 696 312 696 q 266 703 280 696 q 241 719 252 709 q 224 744 231 730 q 218 774 218 758 q 224 805 218 791 q 241 829 231 819 q 266 846 252 840 q 296 852 280 852 q 326 846 312 852 q 350 829 340 840 q 366 805 360 819 q 372 774 372 791 z "},"Ÿ":{"ha":1013,"x_min":21,"x_max":993,"o":"m 993 925 q 942 765 972 851 q 865 594 911 680 q 752 427 818 508 q 595 282 686 346 l 618 -16 l 403 -3 l 452 282 q 340 362 391 315 q 245 464 289 409 q 167 579 202 519 q 104 701 132 640 q 55 821 76 762 q 21 932 35 880 l 215 979 q 269 743 231 859 q 308 641 285 694 q 361 535 330 587 q 431 434 391 483 q 519 345 470 385 q 623 446 580 392 q 694 558 665 500 q 741 673 724 615 q 770 787 759 732 q 788 892 781 842 q 802 983 795 942 l 993 925 m 707 1069 q 701 1039 707 1053 q 684 1014 694 1025 q 660 998 673 1004 q 629 991 646 991 q 600 998 614 991 q 574 1014 585 1004 q 557 1039 564 1025 q 551 1069 551 1053 q 557 1100 551 1086 q 574 1124 564 1114 q 600 1141 585 1135 q 629 1147 614 1147 q 660 1141 646 1147 q 684 1124 673 1135 q 701 1100 694 1114 q 707 1069 707 1086 m 476 1069 q 470 1039 476 1053 q 454 1014 464 1025 q 430 998 444 1004 q 400 991 416 991 q 370 998 384 991 q 345 1014 355 1004 q 328 1039 334 1025 q 322 1069 322 1053 q 328 1100 322 1086 q 345 1124 334 1114 q 370 1141 355 1135 q 400 1147 384 1147 q 430 1141 416 1147 q 454 1124 444 1135 q 470 1100 464 1114 q 476 1069 476 1086 z "},"Â":{"ha":1103,"x_min":71,"x_max":1034,"o":"m 574 1008 q 736 976 666 1008 q 857 889 806 944 q 942 763 907 835 q 996 613 976 692 q 1025 455 1017 535 q 1034 302 1034 374 q 1025 182 1034 239 q 1008 79 1017 124 q 982 -21 996 26 l 777 16 q 813 122 796 62 q 844 244 831 182 q 681 254 762 252 q 518 256 599 256 q 392 255 455 256 q 265 250 329 254 q 297 135 279 193 q 339 17 315 77 l 125 -22 q 98 50 110 9 q 79 136 87 85 q 71 250 71 186 q 78 422 71 334 q 104 595 85 511 q 158 754 123 679 q 249 886 193 829 q 385 976 305 943 q 574 1008 465 1008 m 236 526 q 240 417 236 470 q 253 314 244 365 q 388 309 321 310 q 525 309 456 309 q 690 310 607 309 q 857 317 773 311 q 869 458 869 392 q 862 561 869 507 q 840 668 855 615 q 799 770 824 722 q 739 856 774 819 q 655 915 703 893 q 549 937 608 937 q 450 920 494 937 q 371 871 406 902 q 310 801 336 841 q 269 714 285 760 q 244 621 252 669 q 236 526 236 572 m 799 1143 l 715 1034 l 545 1222 l 404 1034 l 306 1120 l 549 1312 l 799 1143 z "},"Ê":{"ha":936,"x_min":104,"x_max":888,"o":"m 694 321 q 628 328 663 325 q 555 332 592 330 q 483 334 519 334 q 415 335 447 335 q 355 334 385 335 q 294 332 325 333 q 294 252 294 288 q 294 182 294 215 q 295 118 294 149 q 296 54 295 87 q 381 61 333 56 q 481 72 429 66 q 587 88 533 79 q 692 109 641 97 q 787 136 743 121 q 864 168 831 151 l 867 0 l 104 0 l 129 975 l 888 987 l 875 800 q 802 834 846 819 q 705 861 758 849 q 595 881 652 872 q 482 895 537 889 q 378 903 427 900 q 294 908 330 907 l 294 399 l 302 399 q 399 400 349 399 q 500 404 449 401 q 601 411 551 407 q 697 419 651 414 l 694 321 m 742 1137 l 659 1029 l 488 1217 l 347 1029 l 249 1115 l 492 1307 l 742 1137 z "},"Á":{"ha":1103,"x_min":71,"x_max":1034,"o":"m 574 1008 q 736 976 666 1008 q 857 889 806 944 q 942 763 907 835 q 996 613 976 692 q 1025 455 1017 535 q 1034 302 1034 374 q 1025 182 1034 239 q 1008 79 1017 124 q 982 -21 996 26 l 777 16 q 813 122 796 62 q 844 244 831 182 q 681 254 762 252 q 518 256 599 256 q 392 255 455 256 q 265 250 329 254 q 297 135 279 193 q 339 17 315 77 l 125 -22 q 98 50 110 9 q 79 136 87 85 q 71 250 71 186 q 78 422 71 334 q 104 595 85 511 q 158 754 123 679 q 249 886 193 829 q 385 976 305 943 q 574 1008 465 1008 m 236 526 q 240 417 236 470 q 253 314 244 365 q 388 309 321 310 q 525 309 456 309 q 690 310 607 309 q 857 317 773 311 q 869 458 869 392 q 862 561 869 507 q 840 668 855 615 q 799 770 824 722 q 739 856 774 819 q 655 915 703 893 q 549 937 608 937 q 450 920 494 937 q 371 871 406 902 q 310 801 336 841 q 269 714 285 760 q 244 621 252 669 q 236 526 236 572 m 880 1180 l 591 1047 l 543 1105 l 781 1314 l 880 1180 z "},"Ë":{"ha":936,"x_min":104,"x_max":888,"o":"m 694 321 q 628 328 663 325 q 555 332 592 330 q 483 334 519 334 q 415 335 447 335 q 355 334 385 335 q 294 332 325 333 q 294 252 294 288 q 294 182 294 215 q 295 118 294 149 q 296 54 295 87 q 381 61 333 56 q 481 72 429 66 q 587 88 533 79 q 692 109 641 97 q 787 136 743 121 q 864 168 831 151 l 867 0 l 104 0 l 129 975 l 888 987 l 875 800 q 802 834 846 819 q 705 861 758 849 q 595 881 652 872 q 482 895 537 889 q 378 903 427 900 q 294 908 330 907 l 294 399 l 302 399 q 399 400 349 399 q 500 404 449 401 q 601 411 551 407 q 697 419 651 414 l 694 321 m 687 1107 q 681 1077 687 1091 q 664 1052 675 1063 q 640 1036 654 1042 q 610 1029 626 1029 q 580 1036 594 1029 q 555 1052 566 1042 q 538 1077 544 1063 q 532 1107 532 1091 q 538 1138 532 1124 q 555 1162 544 1152 q 580 1179 566 1173 q 610 1185 594 1185 q 640 1179 626 1185 q 664 1162 654 1173 q 681 1138 675 1152 q 687 1107 687 1124 m 456 1107 q 450 1077 456 1091 q 434 1052 444 1063 q 410 1036 424 1042 q 380 1029 396 1029 q 350 1036 364 1029 q 325 1052 336 1042 q 309 1077 315 1063 q 302 1107 302 1091 q 309 1138 302 1124 q 325 1162 315 1152 q 350 1179 336 1173 q 380 1185 364 1185 q 410 1179 396 1185 q 434 1162 424 1173 q 450 1138 444 1152 q 456 1107 456 1124 z "},"È":{"ha":936,"x_min":104,"x_max":888,"o":"m 694 321 q 628 328 663 325 q 555 332 592 330 q 483 334 519 334 q 415 335 447 335 q 355 334 385 335 q 294 332 325 333 q 294 252 294 288 q 294 182 294 215 q 295 118 294 149 q 296 54 295 87 q 381 61 333 56 q 481 72 429 66 q 587 88 533 79 q 692 109 641 97 q 787 136 743 121 q 864 168 831 151 l 867 0 l 104 0 l 129 975 l 888 987 l 875 800 q 802 834 846 819 q 705 861 758 849 q 595 881 652 872 q 482 895 537 889 q 378 903 427 900 q 294 908 330 907 l 294 399 l 302 399 q 399 400 349 399 q 500 404 449 401 q 601 411 551 407 q 697 419 651 414 l 694 321 m 317 1289 l 556 1080 l 507 1022 l 220 1155 l 317 1289 z "},"Í":{"ha":403,"x_min":103,"x_max":511,"o":"m 302 983 l 268 1 l 131 -1 l 103 971 l 302 983 m 511 1155 l 222 1022 l 175 1080 l 412 1289 l 511 1155 z "},"Î":{"ha":403,"x_min":-42,"x_max":451,"o":"m 302 983 l 268 1 l 131 -1 l 103 971 l 302 983 m 451 1122 l 368 1014 l 197 1202 l 56 1014 l -42 1100 l 201 1292 l 451 1122 z "},"Ï":{"ha":403,"x_min":11,"x_max":395,"o":"m 302 983 l 268 1 l 131 -1 l 103 971 l 302 983 m 395 1110 q 389 1080 395 1094 q 373 1055 383 1065 q 348 1038 362 1044 q 318 1032 334 1032 q 288 1038 302 1032 q 263 1055 274 1044 q 246 1080 252 1065 q 240 1110 240 1094 q 246 1140 240 1126 q 263 1165 252 1154 q 288 1181 274 1175 q 318 1187 302 1187 q 348 1181 334 1187 q 373 1165 362 1175 q 389 1140 383 1154 q 395 1110 395 1126 m 165 1110 q 159 1080 165 1094 q 142 1055 153 1065 q 118 1038 132 1044 q 89 1032 104 1032 q 58 1038 73 1032 q 34 1055 44 1044 q 17 1080 23 1065 q 11 1110 11 1094 q 17 1140 11 1126 q 34 1165 23 1154 q 58 1181 44 1175 q 89 1187 73 1187 q 118 1181 104 1187 q 142 1165 132 1175 q 159 1140 153 1154 q 165 1110 165 1126 z "},"Ì":{"ha":403,"x_min":-85,"x_max":302,"o":"m 302 983 l 268 1 l 131 -1 l 103 971 l 302 983 m 12 1292 l 251 1084 l 202 1025 l -85 1158 l 12 1292 z "},"Ó":{"ha":1204,"x_min":60,"x_max":1146,"o":"m 1146 489 q 1126 341 1146 411 q 1071 213 1107 272 q 985 107 1035 154 q 873 28 935 60 q 743 -22 812 -5 q 597 -40 673 -40 q 381 -2 480 -40 q 211 104 283 35 q 100 271 140 174 q 60 489 60 369 q 79 635 60 566 q 132 763 98 704 q 216 869 167 821 q 325 949 264 916 q 453 1000 385 982 q 597 1018 522 1018 q 743 1001 673 1018 q 874 951 813 983 q 985 871 935 918 q 1071 766 1036 825 q 1126 637 1107 707 q 1146 489 1146 568 m 960 489 q 950 598 960 543 q 922 704 941 653 q 874 801 903 755 q 806 879 846 846 q 716 932 766 913 q 604 951 666 951 q 492 932 543 951 q 403 879 442 912 q 334 800 363 845 q 286 703 305 755 q 258 597 267 652 q 249 489 249 542 q 257 376 249 433 q 283 269 265 320 q 329 173 300 218 q 396 96 357 129 q 487 45 435 64 q 604 26 539 26 q 718 45 667 26 q 809 98 769 64 q 877 175 848 131 q 924 271 905 220 q 951 378 942 323 q 960 489 960 434 m 925 1193 l 636 1060 l 589 1118 l 826 1326 l 925 1193 z "},"Ô":{"ha":1204,"x_min":60,"x_max":1146,"o":"m 1146 489 q 1126 341 1146 411 q 1071 213 1107 272 q 985 107 1035 154 q 873 28 935 60 q 743 -22 812 -5 q 597 -40 673 -40 q 381 -2 480 -40 q 211 104 283 35 q 100 271 140 174 q 60 489 60 369 q 79 635 60 566 q 132 763 98 704 q 216 869 167 821 q 325 949 264 916 q 453 1000 385 982 q 597 1018 522 1018 q 743 1001 673 1018 q 874 951 813 983 q 985 871 935 918 q 1071 766 1036 825 q 1126 637 1107 707 q 1146 489 1146 568 m 960 489 q 950 598 960 543 q 922 704 941 653 q 874 801 903 755 q 806 879 846 846 q 716 932 766 913 q 604 951 666 951 q 492 932 543 951 q 403 879 442 912 q 334 800 363 845 q 286 703 305 755 q 258 597 267 652 q 249 489 249 542 q 257 376 249 433 q 283 269 265 320 q 329 173 300 218 q 396 96 357 129 q 487 45 435 64 q 604 26 539 26 q 718 45 667 26 q 809 98 769 64 q 877 175 848 131 q 924 271 905 220 q 951 378 942 323 q 960 489 960 434 m 848 1161 l 765 1053 l 594 1240 l 454 1053 l 355 1139 l 598 1331 l 848 1161 z "},"Ò":{"ha":1204,"x_min":60,"x_max":1146,"o":"m 1146 489 q 1126 341 1146 411 q 1071 213 1107 272 q 985 107 1035 154 q 873 28 935 60 q 743 -22 812 -5 q 597 -40 673 -40 q 381 -2 480 -40 q 211 104 283 35 q 100 271 140 174 q 60 489 60 369 q 79 635 60 566 q 132 763 98 704 q 216 869 167 821 q 325 949 264 916 q 453 1000 385 982 q 597 1018 522 1018 q 743 1001 673 1018 q 874 951 813 983 q 985 871 935 918 q 1071 766 1036 825 q 1126 637 1107 707 q 1146 489 1146 568 m 960 489 q 950 598 960 543 q 922 704 941 653 q 874 801 903 755 q 806 879 846 846 q 716 932 766 913 q 604 951 666 951 q 492 932 543 951 q 403 879 442 912 q 334 800 363 845 q 286 703 305 755 q 258 597 267 652 q 249 489 249 542 q 257 376 249 433 q 283 269 265 320 q 329 173 300 218 q 396 96 357 129 q 487 45 435 64 q 604 26 539 26 q 718 45 667 26 q 809 98 769 64 q 877 175 848 131 q 924 271 905 220 q 951 378 942 323 q 960 489 960 434 m 366 1326 l 606 1118 l 557 1060 l 269 1193 l 366 1326 z "},"Ú":{"ha":1101,"x_min":68,"x_max":1034,"o":"m 538 -50 q 391 -30 457 -50 q 273 28 325 -9 q 182 117 220 66 q 118 229 143 168 q 80 358 93 290 q 68 497 68 426 q 74 621 68 554 q 94 754 80 688 q 130 883 108 821 q 184 993 152 945 l 404 943 q 360 866 381 909 q 320 775 338 823 q 286 676 301 727 q 259 574 271 625 q 242 475 248 524 q 236 386 236 427 q 256 243 236 309 q 315 127 275 176 q 417 49 355 77 q 562 21 479 21 q 661 39 616 21 q 739 87 705 56 q 799 158 774 117 q 841 244 825 199 q 865 338 857 290 q 873 432 873 387 q 867 513 873 467 q 849 608 861 558 q 821 708 837 657 q 786 805 805 759 q 746 891 767 852 q 703 956 724 930 l 930 1008 q 979 892 959 954 q 1010 766 998 831 q 1028 637 1023 702 q 1034 511 1034 572 q 1004 296 1034 397 q 912 117 974 194 q 758 -5 851 40 q 538 -50 665 -50 m 867 1136 l 578 1003 l 530 1061 l 768 1270 l 867 1136 z "},"Û":{"ha":1101,"x_min":68,"x_max":1034,"o":"m 538 -50 q 391 -30 457 -50 q 273 28 325 -9 q 182 117 220 66 q 118 229 143 168 q 80 358 93 290 q 68 497 68 426 q 74 621 68 554 q 94 754 80 688 q 130 883 108 821 q 184 993 152 945 l 404 943 q 360 866 381 909 q 320 775 338 823 q 286 676 301 727 q 259 574 271 625 q 242 475 248 524 q 236 386 236 427 q 256 243 236 309 q 315 127 275 176 q 417 49 355 77 q 562 21 479 21 q 661 39 616 21 q 739 87 705 56 q 799 158 774 117 q 841 244 825 199 q 865 338 857 290 q 873 432 873 387 q 867 513 873 467 q 849 608 861 558 q 821 708 837 657 q 786 805 805 759 q 746 891 767 852 q 703 956 724 930 l 930 1008 q 979 892 959 954 q 1010 766 998 831 q 1028 637 1023 702 q 1034 511 1034 572 q 1004 296 1034 397 q 912 117 974 194 q 758 -5 851 40 q 538 -50 665 -50 m 798 1121 l 714 1013 l 543 1200 l 403 1013 l 304 1099 l 547 1291 l 798 1121 z "},"Ù":{"ha":1101,"x_min":68,"x_max":1034,"o":"m 538 -50 q 391 -30 457 -50 q 273 28 325 -9 q 182 117 220 66 q 118 229 143 168 q 80 358 93 290 q 68 497 68 426 q 74 621 68 554 q 94 754 80 688 q 130 883 108 821 q 184 993 152 945 l 404 943 q 360 866 381 909 q 320 775 338 823 q 286 676 301 727 q 259 574 271 625 q 242 475 248 524 q 236 386 236 427 q 256 243 236 309 q 315 127 275 176 q 417 49 355 77 q 562 21 479 21 q 661 39 616 21 q 739 87 705 56 q 799 158 774 117 q 841 244 825 199 q 865 338 857 290 q 873 432 873 387 q 867 513 873 467 q 849 608 861 558 q 821 708 837 657 q 786 805 805 759 q 746 891 767 852 q 703 956 724 930 l 930 1008 q 979 892 959 954 q 1010 766 998 831 q 1028 637 1023 702 q 1034 511 1034 572 q 1004 296 1034 397 q 912 117 974 194 q 758 -5 851 40 q 538 -50 665 -50 m 330 1267 l 570 1059 l 521 1000 l 233 1133 l 330 1267 z "},"ł":{"ha":481,"x_min":16,"x_max":471,"o":"m 471 533 q 429 519 450 528 q 387 502 408 511 q 345 484 366 493 q 302 467 323 474 l 289 -3 l 160 -14 l 147 400 q 79 364 111 382 q 16 328 46 345 l 16 453 q 46 464 30 457 q 79 477 62 470 q 112 492 96 485 q 143 505 129 500 l 126 1068 l 322 1086 l 307 576 q 385 615 345 594 q 471 657 426 635 l 471 533 z "}," ":{"ha":389,"x_min":0,"x_max":0,"o":""},"…":{"ha":1079,"x_min":69,"x_max":1010,"o":"m 290 64 q 281 21 290 41 q 257 -14 273 1 q 222 -38 242 -29 q 179 -46 202 -46 q 137 -38 157 -46 q 102 -14 117 -29 q 78 21 87 1 q 69 64 69 41 q 78 107 69 87 q 102 142 87 127 q 137 165 117 157 q 179 174 157 174 q 222 165 202 174 q 257 142 242 157 q 281 107 273 127 q 290 64 290 87 m 650 64 q 641 21 650 41 q 617 -14 632 1 q 582 -38 602 -29 q 539 -46 562 -46 q 497 -38 517 -46 q 462 -14 477 -29 q 438 21 447 1 q 429 64 429 41 q 438 107 429 87 q 462 142 447 127 q 497 165 477 157 q 539 174 517 174 q 582 165 562 174 q 617 142 602 157 q 641 107 632 127 q 650 64 650 87 m 1010 64 q 1001 21 1010 41 q 977 -14 992 1 q 942 -38 962 -29 q 899 -46 922 -46 q 856 -38 876 -46 q 821 -14 836 -29 q 798 21 806 1 q 789 64 789 41 q 798 107 789 87 q 821 142 806 127 q 856 165 836 157 q 899 174 876 174 q 942 165 922 174 q 977 142 962 157 q 1001 107 992 127 q 1010 64 1010 87 z "},"ﬁ":{"ha":991,"x_min":17,"x_max":951,"o":"m 876 -40 l 746 -26 l 737 519 l 260 519 q 271 392 262 460 q 292 255 280 323 q 319 123 304 187 q 349 9 334 60 l 184 -35 q 153 84 167 19 q 130 216 139 149 q 115 351 120 284 q 110 475 110 418 q 110 496 110 484 q 111 519 110 508 l 17 519 l 17 570 l 114 570 q 129 664 119 614 q 154 761 138 713 q 193 852 170 809 q 247 928 216 895 q 318 980 278 960 q 408 999 358 999 q 493 989 452 999 q 570 958 534 979 q 639 902 607 937 q 696 818 671 867 l 518 741 q 514 781 517 758 q 506 827 511 804 q 491 873 500 850 q 468 913 481 896 q 437 942 455 931 q 395 953 418 953 q 343 930 365 953 q 307 873 322 908 q 282 795 292 838 q 268 711 273 752 q 260 634 262 669 q 258 579 258 599 l 258 570 l 925 570 l 876 -40 m 951 800 q 942 754 951 776 q 917 716 933 732 q 879 690 901 700 q 832 681 857 681 q 785 690 807 681 q 747 716 763 700 q 721 754 730 732 q 711 800 711 776 q 721 847 711 825 q 747 886 730 869 q 785 911 763 902 q 832 921 807 921 q 879 911 857 921 q 917 886 901 902 q 942 847 933 869 q 951 800 951 825 z "},"ﬂ":{"ha":835,"x_min":17,"x_max":770,"o":"m 489 519 l 260 519 q 271 392 262 460 q 292 255 280 323 q 319 123 304 187 q 349 9 334 60 l 184 -35 q 153 84 167 19 q 130 216 139 149 q 115 351 120 284 q 110 475 110 418 l 110 519 l 17 519 l 17 570 l 114 570 q 126 664 117 614 q 153 761 136 713 q 196 852 170 809 q 260 928 222 895 q 348 980 298 960 q 464 999 398 999 q 521 995 492 999 q 576 981 549 990 l 574 1068 l 770 1086 l 736 -3 l 607 -14 l 583 757 q 571 819 580 785 q 547 883 563 853 q 507 933 531 913 q 450 953 484 953 q 372 930 404 953 q 318 873 340 908 q 285 795 297 838 q 267 711 273 752 q 260 634 261 669 q 258 579 258 599 l 258 570 l 489 570 l 489 519 z "},"­":{"ha":696,"x_min":86,"x_max":611,"o":"m 611 444 q 563 448 590 446 q 506 451 535 450 q 449 452 477 452 q 400 453 421 453 q 326 452 367 453 q 242 448 285 451 q 159 440 199 446 q 86 427 119 435 l 86 551 q 122 550 100 551 q 165 550 143 550 q 209 549 188 549 q 245 549 231 549 q 333 550 286 549 q 428 553 380 551 q 524 559 477 555 q 611 568 571 563 l 611 444 z "},"̒":{"ha":249,"x_min":43,"x_max":208,"o":"m 208 812 q 202 782 208 796 q 185 757 196 768 q 161 740 175 746 q 131 733 147 733 q 94 742 110 733 q 66 766 77 751 q 49 800 55 781 q 43 839 43 819 q 49 883 43 862 q 66 923 55 905 q 94 957 78 942 q 131 982 111 972 l 172 960 q 151 930 159 946 q 143 895 143 913 l 143 890 q 169 881 157 888 q 189 864 180 874 q 203 840 198 853 q 208 812 208 827 z "},"̕":{"ha":249,"x_min":41,"x_max":205,"o":"m 78 755 q 98 786 90 770 q 107 821 107 802 l 107 825 q 60 852 79 831 q 41 903 41 873 q 48 934 41 920 q 65 959 54 948 q 90 976 75 970 q 119 982 104 982 q 157 973 140 982 q 184 949 173 964 q 200 915 195 934 q 205 875 205 895 q 200 832 205 853 q 183 792 194 810 q 156 758 172 773 q 119 733 140 743 l 78 755 z "},"̦":{"ha":265,"x_min":50,"x_max":215,"o":"m 87 -273 q 109 -243 99 -260 q 118 -208 118 -227 l 118 -204 q 70 -178 89 -200 q 50 -126 50 -156 q 57 -95 50 -110 q 74 -70 63 -81 q 98 -54 84 -60 q 129 -47 113 -47 q 166 -57 150 -47 q 193 -81 182 -66 q 209 -115 203 -96 q 215 -154 215 -134 q 209 -197 215 -176 q 192 -237 203 -218 q 164 -271 180 -256 q 129 -296 149 -286 l 87 -273 z "},"¤":{"ha":406,"x_min":12,"x_max":389,"o":"m 268 509 q 264 538 268 524 q 251 564 260 553 q 230 583 243 576 q 201 590 218 590 q 173 583 184 590 q 154 563 161 575 q 144 537 147 551 q 140 509 140 523 q 144 480 140 494 q 154 455 147 466 q 173 437 161 444 q 201 431 184 431 q 230 437 218 431 q 251 454 243 444 q 264 479 260 465 q 268 509 268 493 m 389 603 l 334 564 q 345 510 345 540 q 325 444 345 472 q 347 423 336 434 q 370 403 358 412 l 318 358 q 298 379 308 369 q 277 400 288 389 q 201 380 243 380 q 157 386 178 380 q 118 403 136 392 q 94 381 106 392 q 71 358 82 370 l 31 403 l 77 447 q 66 476 69 460 q 62 510 62 492 q 64 536 62 524 q 72 561 66 549 q 42 583 56 572 q 12 604 27 593 l 98 694 q 120 662 109 677 q 144 629 132 646 q 201 639 170 639 q 257 631 231 639 q 284 662 271 646 q 309 694 297 677 l 389 603 z "},"ȷ":{"ha":349,"x_min":-370,"x_max":269,"o":"m 262 623 q 268 524 266 573 q 269 427 269 475 q 267 325 269 382 q 259 204 265 267 q 242 74 253 140 q 212 -54 231 8 q 166 -172 193 -117 q 102 -268 139 -227 q 16 -333 64 -309 q -96 -357 -33 -357 q -186 -342 -143 -357 q -266 -300 -230 -327 q -328 -236 -301 -273 q -370 -154 -355 -199 l -160 -100 q -161 -118 -160 -109 q -161 -136 -161 -127 q -158 -188 -161 -158 q -144 -245 -155 -218 q -115 -291 -134 -272 q -65 -310 -96 -310 q -18 -292 -39 -310 q 19 -245 3 -275 q 47 -178 35 -216 q 68 -97 60 -139 q 83 -12 77 -54 q 92 70 89 31 q 97 139 96 108 q 98 187 98 170 q 96 296 98 240 q 88 408 93 352 q 77 516 83 463 q 65 615 71 569 l 262 623 z "},"Ā":{"ha":1103,"x_min":71,"x_max":1034,"o":"m 574 1008 q 736 976 666 1008 q 857 889 806 944 q 942 763 907 835 q 996 613 976 692 q 1025 455 1017 535 q 1034 302 1034 374 q 1025 182 1034 239 q 1008 79 1017 124 q 982 -21 996 26 l 777 16 q 813 122 796 62 q 844 244 831 182 q 681 254 762 252 q 518 256 599 256 q 392 255 455 256 q 265 250 329 254 q 297 135 279 193 q 339 17 315 77 l 125 -22 q 98 50 110 9 q 79 136 87 85 q 71 250 71 186 q 78 422 71 334 q 104 595 85 511 q 158 754 123 679 q 249 886 193 829 q 385 976 305 943 q 574 1008 465 1008 m 236 526 q 240 417 236 470 q 253 314 244 365 q 388 309 321 310 q 525 309 456 309 q 690 310 607 309 q 857 317 773 311 q 869 458 869 392 q 862 561 869 507 q 840 668 855 615 q 799 770 824 722 q 739 856 774 819 q 655 915 703 893 q 549 937 608 937 q 450 920 494 937 q 371 871 406 902 q 310 801 336 841 q 269 714 285 760 q 244 621 252 669 q 236 526 236 572 m 777 1183 l 772 1043 q 550 1053 661 1051 q 329 1054 440 1055 l 325 1165 l 777 1183 z "},"Ă":{"ha":1103,"x_min":71,"x_max":1034,"o":"m 574 1008 q 736 976 666 1008 q 857 889 806 944 q 942 763 907 835 q 996 613 976 692 q 1025 455 1017 535 q 1034 302 1034 374 q 1025 182 1034 239 q 1008 79 1017 124 q 982 -21 996 26 l 777 16 q 813 122 796 62 q 844 244 831 182 q 681 254 762 252 q 518 256 599 256 q 392 255 455 256 q 265 250 329 254 q 297 135 279 193 q 339 17 315 77 l 125 -22 q 98 50 110 9 q 79 136 87 85 q 71 250 71 186 q 78 422 71 334 q 104 595 85 511 q 158 754 123 679 q 249 886 193 829 q 385 976 305 943 q 574 1008 465 1008 m 236 526 q 240 417 236 470 q 253 314 244 365 q 388 309 321 310 q 525 309 456 309 q 690 310 607 309 q 857 317 773 311 q 869 458 869 392 q 862 561 869 507 q 840 668 855 615 q 799 770 824 722 q 739 856 774 819 q 655 915 703 893 q 549 937 608 937 q 450 920 494 937 q 371 871 406 902 q 310 801 336 841 q 269 714 285 760 q 244 621 252 669 q 236 526 236 572 m 768 1253 q 742 1177 761 1214 q 695 1113 723 1141 q 630 1068 667 1085 q 552 1051 594 1051 q 472 1067 509 1051 q 407 1110 435 1083 q 360 1174 379 1137 q 334 1251 342 1211 l 478 1292 q 472 1256 475 1274 q 470 1218 470 1237 q 474 1183 470 1202 q 487 1147 478 1164 q 510 1119 496 1131 q 543 1108 524 1108 q 589 1123 571 1108 q 616 1160 606 1138 q 631 1207 627 1181 q 635 1254 635 1232 q 634 1273 635 1263 q 633 1292 633 1282 l 768 1253 z "},"Ą":{"ha":1103,"x_min":71,"x_max":1096,"o":"m 1096 -102 q 1072 -162 1088 -135 q 1032 -209 1056 -189 q 979 -238 1008 -228 q 916 -249 949 -249 q 863 -241 888 -249 q 818 -217 838 -233 q 787 -179 799 -202 q 775 -127 775 -157 q 792 -57 775 -91 q 832 5 808 -24 l 777 16 q 813 122 796 62 q 844 244 831 182 q 681 254 762 252 q 518 256 599 256 q 392 255 455 256 q 265 250 329 254 q 297 135 279 193 q 339 17 315 77 l 125 -22 q 98 50 110 9 q 79 136 87 85 q 71 250 71 186 q 78 422 71 334 q 104 595 85 511 q 158 754 123 679 q 249 886 193 829 q 385 976 305 943 q 574 1008 465 1008 q 736 976 666 1008 q 857 889 806 944 q 942 763 907 835 q 996 613 976 692 q 1025 455 1017 535 q 1034 302 1034 374 q 1025 182 1034 239 q 1008 79 1017 124 q 982 -21 996 26 l 899 -5 q 878 -58 886 -31 q 871 -114 871 -85 q 874 -142 871 -126 q 885 -173 878 -159 q 904 -198 892 -188 q 930 -208 915 -208 q 958 -199 947 -208 q 975 -175 969 -189 q 984 -145 981 -161 q 986 -117 986 -130 q 982 -72 986 -96 l 1096 -102 m 236 526 q 240 417 236 470 q 253 314 244 365 q 388 309 321 310 q 525 309 456 309 q 690 310 607 309 q 857 317 773 311 q 869 458 869 392 q 862 561 869 507 q 840 668 855 615 q 799 770 824 722 q 739 856 774 819 q 655 915 703 893 q 549 937 608 937 q 450 920 494 937 q 371 871 406 902 q 310 801 336 841 q 269 714 285 760 q 244 621 252 669 q 236 526 236 572 z "},"Ć":{"ha":1126,"x_min":60,"x_max":1084,"o":"m 1084 629 l 868 618 q 848 742 867 682 q 794 849 830 802 q 704 925 758 897 q 581 954 651 954 q 471 934 519 954 q 386 880 422 914 q 322 801 349 846 q 280 704 296 755 q 256 598 264 652 q 249 492 249 543 q 255 381 249 437 q 277 273 262 326 q 316 174 292 220 q 378 93 341 127 q 465 38 415 58 q 581 18 515 18 q 703 43 651 18 q 789 111 755 68 q 842 211 824 154 q 864 332 861 268 l 1076 321 q 1001 168 1050 236 q 887 51 952 99 q 742 -23 821 3 q 575 -49 662 -49 q 360 -8 455 -49 q 198 104 264 32 q 95 275 131 176 q 60 492 60 374 q 97 702 60 605 q 203 870 135 799 q 366 981 271 941 q 575 1021 461 1021 q 749 994 666 1021 q 900 917 832 967 q 1015 793 967 866 q 1084 629 1063 721 m 848 1192 l 559 1059 l 511 1117 l 749 1325 l 848 1192 z "},"Ĉ":{"ha":1126,"x_min":60,"x_max":1084,"o":"m 1084 629 l 868 618 q 848 742 867 682 q 794 849 830 802 q 704 925 758 897 q 581 954 651 954 q 471 934 519 954 q 386 880 422 914 q 322 801 349 846 q 280 704 296 755 q 256 598 264 652 q 249 492 249 543 q 255 381 249 437 q 277 273 262 326 q 316 174 292 220 q 378 93 341 127 q 465 38 415 58 q 581 18 515 18 q 703 43 651 18 q 789 111 755 68 q 842 211 824 154 q 864 332 861 268 l 1076 321 q 1001 168 1050 236 q 887 51 952 99 q 742 -23 821 3 q 575 -49 662 -49 q 360 -8 455 -49 q 198 104 264 32 q 95 275 131 176 q 60 492 60 374 q 97 702 60 605 q 203 870 135 799 q 366 981 271 941 q 575 1021 461 1021 q 749 994 666 1021 q 900 917 832 967 q 1015 793 967 866 q 1084 629 1063 721 m 810 1161 l 726 1053 l 555 1240 l 415 1053 l 317 1139 l 559 1331 l 810 1161 z "},"Ċ":{"ha":1126,"x_min":60,"x_max":1084,"o":"m 1084 629 l 868 618 q 848 742 867 682 q 794 849 830 802 q 704 925 758 897 q 581 954 651 954 q 471 934 519 954 q 386 880 422 914 q 322 801 349 846 q 280 704 296 755 q 256 598 264 652 q 249 492 249 543 q 255 381 249 437 q 277 273 262 326 q 316 174 292 220 q 378 93 341 127 q 465 38 415 58 q 581 18 515 18 q 703 43 651 18 q 789 111 755 68 q 842 211 824 154 q 864 332 861 268 l 1076 321 q 1001 168 1050 236 q 887 51 952 99 q 742 -23 821 3 q 575 -49 662 -49 q 360 -8 455 -49 q 198 104 264 32 q 95 275 131 176 q 60 492 60 374 q 97 702 60 605 q 203 870 135 799 q 366 981 271 941 q 575 1021 461 1021 q 749 994 666 1021 q 900 917 832 967 q 1015 793 967 866 q 1084 629 1063 721 m 640 1142 q 634 1112 640 1126 q 618 1087 628 1097 q 594 1070 608 1076 q 564 1064 580 1064 q 534 1070 548 1064 q 509 1087 519 1076 q 492 1112 498 1097 q 486 1142 486 1126 q 492 1172 486 1158 q 509 1197 498 1186 q 534 1213 519 1207 q 564 1219 548 1219 q 594 1213 580 1219 q 618 1197 608 1207 q 634 1172 628 1186 q 640 1142 640 1158 z "},"Č":{"ha":1126,"x_min":60,"x_max":1084,"o":"m 1084 629 l 868 618 q 848 742 867 682 q 794 849 830 802 q 704 925 758 897 q 581 954 651 954 q 471 934 519 954 q 386 880 422 914 q 322 801 349 846 q 280 704 296 755 q 256 598 264 652 q 249 492 249 543 q 255 381 249 437 q 277 273 262 326 q 316 174 292 220 q 378 93 341 127 q 465 38 415 58 q 581 18 515 18 q 703 43 651 18 q 789 111 755 68 q 842 211 824 154 q 864 332 861 268 l 1076 321 q 1001 168 1050 236 q 887 51 952 99 q 742 -23 821 3 q 575 -49 662 -49 q 360 -8 455 -49 q 198 104 264 32 q 95 275 131 176 q 60 492 60 374 q 97 702 60 605 q 203 870 135 799 q 366 981 271 941 q 575 1021 461 1021 q 749 994 666 1021 q 900 917 832 967 q 1015 793 967 866 q 1084 629 1063 721 m 810 1222 l 559 1053 l 317 1244 l 415 1331 l 555 1143 l 726 1331 l 810 1222 z "},"Ď":{"ha":1078,"x_min":107,"x_max":1019,"o":"m 1019 492 q 999 349 1019 416 q 941 224 978 281 q 853 120 904 166 q 741 40 802 73 q 611 -10 680 7 q 469 -28 542 -28 q 384 -27 433 -28 q 285 -24 336 -26 q 188 -15 235 -21 q 107 1 140 -9 l 107 8 q 109 176 107 93 q 113 345 111 260 q 120 653 116 500 q 127 962 123 807 q 317 984 221 977 q 509 990 413 990 q 642 972 577 990 q 763 922 706 955 q 866 845 819 890 q 947 744 913 800 q 1000 625 981 688 q 1019 492 1019 561 m 832 507 q 809 686 832 609 q 737 816 786 764 q 613 896 688 869 q 435 922 538 922 q 376 922 406 922 q 315 920 346 922 l 269 49 q 372 37 320 38 q 475 36 425 36 q 585 56 535 36 q 675 112 635 77 q 744 193 715 146 q 793 292 774 240 q 823 400 813 345 q 832 507 832 455 m 782 1202 l 532 1033 l 289 1225 l 387 1311 l 528 1124 l 699 1311 l 782 1202 z "},"Đ":{"ha":1089,"x_min":21,"x_max":1031,"o":"m 1031 492 q 1010 349 1031 416 q 952 224 989 281 q 865 120 916 166 q 752 40 814 73 q 622 -10 691 7 q 481 -28 553 -28 q 395 -27 444 -28 q 296 -24 347 -26 q 198 -15 245 -21 q 118 1 151 -9 l 118 8 q 120 176 118 93 q 123 345 121 260 q 123 380 123 362 q 125 415 123 397 q 69 408 96 412 q 21 399 43 404 l 21 524 q 69 522 40 522 q 126 521 98 521 l 139 962 q 328 984 232 977 q 519 990 425 990 q 652 972 588 990 q 773 922 717 955 q 878 845 830 890 q 959 744 925 800 q 1012 625 993 688 q 1031 492 1031 561 m 546 416 q 497 420 525 418 q 441 423 470 422 q 384 425 412 424 q 335 425 356 425 l 300 425 l 281 49 q 383 37 331 38 q 486 36 435 36 q 596 56 547 36 q 686 112 646 77 q 755 193 726 146 q 804 292 785 240 q 833 400 824 345 q 843 507 843 455 q 820 686 843 609 q 748 816 797 764 q 624 896 699 869 q 446 922 549 922 q 387 922 416 922 q 326 920 357 922 l 306 522 q 430 529 368 524 q 546 541 493 533 l 546 416 z "},"Ē":{"ha":936,"x_min":104,"x_max":888,"o":"m 694 321 q 628 328 663 325 q 555 332 592 330 q 483 334 519 334 q 415 335 447 335 q 355 334 385 335 q 294 332 325 333 q 294 252 294 288 q 294 182 294 215 q 295 118 294 149 q 296 54 295 87 q 381 61 333 56 q 481 72 429 66 q 587 88 533 79 q 692 109 641 97 q 787 136 743 121 q 864 168 831 151 l 867 0 l 104 0 l 129 975 l 888 987 l 875 800 q 802 834 846 819 q 705 861 758 849 q 595 881 652 872 q 482 895 537 889 q 378 903 427 900 q 294 908 330 907 l 294 399 l 302 399 q 399 400 349 399 q 500 404 449 401 q 601 411 551 407 q 697 419 651 414 l 694 321 m 693 1168 l 688 1028 q 467 1038 577 1036 q 245 1039 357 1040 l 241 1150 l 693 1168 z "},"Ĕ":{"ha":936,"x_min":104,"x_max":888,"o":"m 694 321 q 628 328 663 325 q 555 332 592 330 q 483 334 519 334 q 415 335 447 335 q 355 334 385 335 q 294 332 325 333 q 294 252 294 288 q 294 182 294 215 q 295 118 294 149 q 296 54 295 87 q 381 61 333 56 q 481 72 429 66 q 587 88 533 79 q 692 109 641 97 q 787 136 743 121 q 864 168 831 151 l 867 0 l 104 0 l 129 975 l 888 987 l 875 800 q 802 834 846 819 q 705 861 758 849 q 595 881 652 872 q 482 895 537 889 q 378 903 427 900 q 294 908 330 907 l 294 399 l 302 399 q 399 400 349 399 q 500 404 449 401 q 601 411 551 407 q 697 419 651 414 l 694 321 m 685 1226 q 659 1151 677 1187 q 611 1086 640 1114 q 547 1042 583 1059 q 469 1025 511 1025 q 389 1041 425 1025 q 324 1084 352 1057 q 277 1147 296 1111 q 250 1225 258 1184 l 395 1265 q 389 1229 391 1248 q 387 1192 387 1211 q 391 1157 387 1176 q 404 1121 395 1138 q 426 1093 412 1104 q 460 1082 440 1082 q 505 1097 488 1082 q 533 1133 523 1112 q 547 1180 543 1155 q 551 1227 551 1206 q 551 1246 551 1237 q 550 1265 550 1256 l 685 1226 z "},"Ė":{"ha":936,"x_min":104,"x_max":888,"o":"m 694 321 q 628 328 663 325 q 555 332 592 330 q 483 334 519 334 q 415 335 447 335 q 355 334 385 335 q 294 332 325 333 q 294 252 294 288 q 294 182 294 215 q 295 118 294 149 q 296 54 295 87 q 381 61 333 56 q 481 72 429 66 q 587 88 533 79 q 692 109 641 97 q 787 136 743 121 q 864 168 831 151 l 867 0 l 104 0 l 129 975 l 888 987 l 875 800 q 802 834 846 819 q 705 861 758 849 q 595 881 652 872 q 482 895 537 889 q 378 903 427 900 q 294 908 330 907 l 294 399 l 302 399 q 399 400 349 399 q 500 404 449 401 q 601 411 551 407 q 697 419 651 414 l 694 321 m 544 1099 q 538 1068 544 1082 q 522 1043 532 1054 q 497 1027 511 1033 q 468 1021 484 1021 q 437 1027 452 1021 q 413 1043 423 1033 q 396 1068 402 1054 q 390 1099 390 1082 q 396 1129 390 1115 q 413 1153 402 1143 q 437 1170 423 1164 q 468 1176 452 1176 q 497 1170 484 1176 q 522 1153 511 1164 q 538 1129 532 1143 q 544 1099 544 1115 z "},"Ę":{"ha":936,"x_min":104,"x_max":905,"o":"m 905 -107 q 882 -168 898 -140 q 842 -214 865 -195 q 789 -244 819 -233 q 725 -254 759 -254 q 673 -246 698 -254 q 628 -223 648 -238 q 596 -185 608 -208 q 585 -134 585 -163 q 601 -63 585 -97 q 642 0 618 -29 l 104 0 l 129 975 l 888 987 l 875 800 q 802 834 846 819 q 705 861 758 849 q 595 881 652 872 q 482 895 537 889 q 378 903 427 900 q 294 908 330 907 l 294 399 l 302 399 q 399 400 349 399 q 500 404 449 401 q 601 411 551 407 q 697 419 651 414 l 694 321 q 628 328 663 325 q 555 332 592 330 q 483 334 519 334 q 415 335 447 335 q 355 334 385 335 q 294 332 325 333 q 294 252 294 288 q 294 182 294 215 q 295 118 294 149 q 296 54 295 87 q 381 61 333 56 q 481 72 429 66 q 587 88 533 79 q 692 109 641 97 q 787 136 743 121 q 864 168 831 151 l 867 0 l 715 0 q 690 -58 699 -27 q 681 -119 681 -88 q 684 -148 681 -132 q 695 -179 688 -164 q 713 -203 702 -193 q 741 -214 725 -214 q 768 -204 758 -214 q 785 -181 779 -195 q 794 -151 791 -167 q 796 -122 796 -135 q 795 -101 796 -112 q 791 -78 793 -90 l 905 -107 z "},"Ě":{"ha":936,"x_min":104,"x_max":888,"o":"m 694 321 q 628 328 663 325 q 555 332 592 330 q 483 334 519 334 q 415 335 447 335 q 355 334 385 335 q 294 332 325 333 q 294 252 294 288 q 294 182 294 215 q 295 118 294 149 q 296 54 295 87 q 381 61 333 56 q 481 72 429 66 q 587 88 533 79 q 692 109 641 97 q 787 136 743 121 q 864 168 831 151 l 867 0 l 104 0 l 129 975 l 888 987 l 875 800 q 802 834 846 819 q 705 861 758 849 q 595 881 652 872 q 482 895 537 889 q 378 903 427 900 q 294 908 330 907 l 294 399 l 302 399 q 399 400 349 399 q 500 404 449 401 q 601 411 551 407 q 697 419 651 414 l 694 321 m 714 1186 l 464 1017 l 221 1208 l 319 1295 l 460 1107 l 631 1295 l 714 1186 z "},"Ĝ":{"ha":1147,"x_min":60,"x_max":1101,"o":"m 1101 468 q 1060 251 1101 347 q 946 89 1018 155 q 779 -13 874 22 q 575 -49 683 -49 q 362 -9 457 -49 q 199 103 267 31 q 96 273 132 174 q 60 488 60 371 q 98 697 60 600 q 205 867 136 795 q 368 982 273 940 q 575 1023 463 1023 q 724 1008 652 1023 q 859 957 795 993 q 980 861 924 920 q 1083 713 1036 801 l 835 676 q 813 789 831 738 q 762 877 795 840 q 684 935 730 914 q 582 956 639 956 q 472 935 521 956 q 385 880 423 915 q 320 798 347 844 q 275 700 292 751 q 249 593 257 648 q 240 488 240 538 q 248 378 240 433 q 272 270 255 322 q 315 172 288 218 q 379 93 341 127 q 467 39 417 59 q 582 20 517 20 q 713 50 655 20 q 811 130 771 80 q 873 242 852 179 q 895 372 895 306 l 895 382 q 790 361 844 374 q 687 328 737 349 q 591 278 636 307 q 509 208 545 248 l 469 415 l 1101 468 m 819 1161 l 736 1053 l 565 1240 l 425 1053 l 326 1139 l 569 1331 l 819 1161 z "},"Ğ":{"ha":1147,"x_min":60,"x_max":1101,"o":"m 1101 468 q 1060 251 1101 347 q 946 89 1018 155 q 779 -13 874 22 q 575 -49 683 -49 q 362 -9 457 -49 q 199 103 267 31 q 96 273 132 174 q 60 488 60 371 q 98 697 60 600 q 205 867 136 795 q 368 982 273 940 q 575 1023 463 1023 q 724 1008 652 1023 q 859 957 795 993 q 980 861 924 920 q 1083 713 1036 801 l 835 676 q 813 789 831 738 q 762 877 795 840 q 684 935 730 914 q 582 956 639 956 q 472 935 521 956 q 385 880 423 915 q 320 798 347 844 q 275 700 292 751 q 249 593 257 648 q 240 488 240 538 q 248 378 240 433 q 272 270 255 322 q 315 172 288 218 q 379 93 341 127 q 467 39 417 59 q 582 20 517 20 q 713 50 655 20 q 811 130 771 80 q 873 242 852 179 q 895 372 895 306 l 895 382 q 790 361 844 374 q 687 328 737 349 q 591 278 636 307 q 509 208 545 248 l 469 415 l 1101 468 m 787 1274 q 761 1198 780 1235 q 714 1134 742 1162 q 649 1089 686 1106 q 571 1072 613 1072 q 491 1088 528 1072 q 426 1131 454 1104 q 379 1195 398 1158 q 353 1272 361 1232 l 497 1313 q 491 1277 494 1295 q 489 1239 489 1258 q 493 1204 489 1223 q 506 1168 497 1185 q 529 1140 515 1152 q 562 1129 543 1129 q 608 1144 590 1129 q 635 1181 625 1159 q 650 1228 646 1202 q 654 1275 654 1253 q 653 1294 654 1284 q 652 1313 652 1303 l 787 1274 z "},"Ġ":{"ha":1147,"x_min":60,"x_max":1101,"o":"m 1101 468 q 1060 251 1101 347 q 946 89 1018 155 q 779 -13 874 22 q 575 -49 683 -49 q 362 -9 457 -49 q 199 103 267 31 q 96 273 132 174 q 60 488 60 371 q 98 697 60 600 q 205 867 136 795 q 368 982 273 940 q 575 1023 463 1023 q 724 1008 652 1023 q 859 957 795 993 q 980 861 924 920 q 1083 713 1036 801 l 835 676 q 813 789 831 738 q 762 877 795 840 q 684 935 730 914 q 582 956 639 956 q 472 935 521 956 q 385 880 423 915 q 320 798 347 844 q 275 700 292 751 q 249 593 257 648 q 240 488 240 538 q 248 378 240 433 q 272 270 255 322 q 315 172 288 218 q 379 93 341 127 q 467 39 417 59 q 582 20 517 20 q 713 50 655 20 q 811 130 771 80 q 873 242 852 179 q 895 372 895 306 l 895 382 q 790 361 844 374 q 687 328 737 349 q 591 278 636 307 q 509 208 545 248 l 469 415 l 1101 468 m 650 1142 q 644 1112 650 1126 q 627 1087 637 1097 q 603 1070 617 1076 q 574 1064 589 1064 q 543 1070 557 1064 q 518 1087 529 1076 q 502 1112 508 1097 q 496 1142 496 1126 q 502 1172 496 1158 q 518 1197 508 1186 q 543 1213 529 1207 q 574 1219 557 1219 q 603 1213 589 1219 q 627 1197 617 1207 q 644 1172 637 1186 q 650 1142 650 1158 z "},"Ģ":{"ha":1147,"x_min":60,"x_max":1101,"o":"m 1101 468 q 1060 251 1101 347 q 946 89 1018 155 q 779 -13 874 22 q 575 -49 683 -49 q 362 -9 457 -49 q 199 103 267 31 q 96 273 132 174 q 60 488 60 371 q 98 697 60 600 q 205 867 136 795 q 368 982 273 940 q 575 1023 463 1023 q 724 1008 652 1023 q 859 957 795 993 q 980 861 924 920 q 1083 713 1036 801 l 835 676 q 813 789 831 738 q 762 877 795 840 q 684 935 730 914 q 582 956 639 956 q 472 935 521 956 q 385 880 423 915 q 320 798 347 844 q 275 700 292 751 q 249 593 257 648 q 240 488 240 538 q 248 378 240 433 q 272 270 255 322 q 315 172 288 218 q 379 93 341 127 q 467 39 417 59 q 582 20 517 20 q 713 50 655 20 q 811 130 771 80 q 873 242 852 179 q 895 372 895 306 l 895 382 q 790 361 844 374 q 687 328 737 349 q 591 278 636 307 q 509 208 545 248 l 469 415 l 1101 468 m 550 -307 q 571 -277 562 -294 q 581 -242 581 -261 l 581 -238 q 532 -212 551 -234 q 513 -160 513 -190 q 519 -129 513 -144 q 536 -104 526 -115 q 561 -87 547 -94 q 591 -81 575 -81 q 628 -91 612 -81 q 655 -115 644 -100 q 672 -149 666 -130 q 677 -188 677 -168 q 671 -231 677 -210 q 654 -271 665 -252 q 627 -304 643 -290 q 591 -330 611 -319 l 550 -307 z "},"Ĥ":{"ha":1126,"x_min":100,"x_max":1046,"o":"m 296 987 l 288 368 q 471 364 379 364 q 547 365 501 364 q 644 366 593 365 q 746 368 695 367 q 838 372 797 370 l 846 1015 l 1046 993 l 972 3 l 833 3 l 836 300 q 741 306 792 304 q 639 310 689 309 q 543 312 589 311 q 465 313 498 313 q 376 312 420 313 q 286 307 331 311 l 282 -21 l 134 -26 l 100 965 l 296 987 m 810 1121 l 726 1013 l 555 1200 l 415 1013 l 317 1099 l 559 1291 l 810 1121 z "},"Ħ":{"ha":1126,"x_min":22,"x_max":1108,"o":"m 1108 475 l 1007 479 l 972 3 l 833 3 l 836 300 q 741 306 792 304 q 639 310 689 309 q 543 312 589 311 q 465 313 498 313 q 376 312 420 313 q 286 307 331 311 l 282 -21 l 134 -26 l 117 479 l 22 475 l 22 557 l 114 553 l 100 965 l 296 987 l 289 546 q 839 546 564 540 l 846 1015 l 1046 993 l 1013 551 l 1108 557 l 1108 475 m 471 364 q 547 365 501 364 q 644 366 593 365 q 746 368 695 367 q 838 372 797 370 l 839 485 q 289 485 564 493 l 288 368 q 471 364 379 364 z "},"Ĩ":{"ha":403,"x_min":-52,"x_max":458,"o":"m 302 983 l 268 1 l 131 -1 l 103 971 l 302 983 m 458 1065 q 399 1028 432 1042 q 331 1014 367 1014 q 282 1022 302 1014 q 246 1042 262 1030 q 218 1068 231 1054 q 195 1094 206 1082 q 172 1114 184 1106 q 145 1122 160 1122 q 103 1111 121 1122 q 73 1081 85 1099 q 54 1042 60 1063 q 47 999 48 1020 l -52 1071 q -28 1117 -43 1095 q 7 1158 -13 1140 q 52 1186 28 1175 q 104 1196 77 1196 q 158 1190 137 1196 q 193 1175 179 1184 q 216 1155 207 1165 q 235 1135 226 1144 q 257 1119 245 1125 q 290 1113 270 1113 q 349 1131 324 1113 q 388 1182 374 1149 l 458 1065 z "},"Ī":{"ha":403,"x_min":-23,"x_max":429,"o":"m 302 983 l 268 1 l 131 -1 l 103 971 l 302 983 m 429 1168 l 424 1028 q 202 1038 313 1036 q -19 1039 92 1040 l -23 1150 l 429 1168 z "},"Ĭ":{"ha":403,"x_min":-15,"x_max":420,"o":"m 302 983 l 268 1 l 131 -1 l 103 971 l 302 983 m 420 1236 q 393 1160 412 1197 q 346 1096 374 1124 q 282 1051 318 1068 q 203 1034 245 1034 q 123 1050 160 1034 q 59 1093 87 1066 q 12 1157 31 1120 q -15 1234 -7 1194 l 130 1275 q 124 1239 126 1257 q 121 1201 121 1220 q 125 1166 121 1185 q 138 1131 130 1147 q 161 1102 147 1114 q 195 1091 175 1091 q 240 1106 222 1091 q 268 1143 258 1121 q 282 1190 278 1164 q 286 1237 286 1215 q 286 1256 286 1246 q 285 1275 285 1265 l 420 1236 z "},"Į":{"ha":403,"x_min":93,"x_max":414,"o":"m 414 -121 q 390 -181 406 -154 q 350 -228 374 -208 q 297 -257 327 -247 q 233 -268 267 -268 q 181 -260 206 -268 q 136 -237 156 -252 q 105 -199 117 -222 q 93 -147 93 -176 q 113 -69 93 -106 q 161 0 133 -31 l 131 -1 l 103 971 l 302 983 l 268 1 l 232 0 q 201 -63 212 -29 q 189 -134 189 -98 q 193 -162 189 -146 q 203 -193 196 -178 q 222 -218 210 -208 q 249 -228 233 -228 q 277 -218 266 -228 q 294 -195 288 -209 q 302 -165 300 -181 q 304 -136 304 -149 q 303 -114 304 -125 q 300 -92 302 -103 l 414 -121 z "},"İ":{"ha":403,"x_min":103,"x_max":302,"o":"m 302 983 l 268 1 l 131 -1 l 103 971 l 302 983 m 277 1099 q 271 1068 277 1082 q 255 1043 265 1054 q 231 1027 245 1033 q 201 1021 217 1021 q 171 1027 185 1021 q 146 1043 157 1033 q 130 1068 136 1054 q 123 1099 123 1082 q 130 1129 123 1115 q 146 1153 136 1143 q 171 1170 157 1164 q 201 1176 185 1176 q 231 1170 217 1176 q 255 1153 245 1164 q 271 1129 265 1143 q 277 1099 277 1115 z "},"Ĳ":{"ha":1419,"x_min":103,"x_max":1345,"o":"m 302 983 l 268 1 l 131 -1 l 103 971 l 302 983 m 829 -60 q 659 -31 732 -60 q 536 54 586 -2 q 457 190 486 109 q 421 376 429 271 l 644 368 q 636 314 639 340 q 633 258 633 287 q 655 143 633 192 q 711 64 677 95 q 788 18 745 33 q 872 3 830 3 q 1005 42 949 3 q 1098 146 1061 81 q 1151 299 1134 212 q 1168 482 1168 387 q 1159 601 1168 536 q 1137 731 1151 665 q 1104 860 1123 798 q 1065 970 1086 922 l 1292 999 q 1332 794 1319 898 q 1345 587 1345 691 q 1334 410 1345 494 q 1298 254 1322 326 q 1233 124 1273 182 q 1136 25 1193 66 q 1002 -38 1078 -16 q 829 -60 926 -60 z "},"Ĵ":{"ha":1017,"x_min":18,"x_max":1008,"o":"m 427 -60 q 256 -31 329 -60 q 133 54 183 -2 q 55 190 83 109 q 18 376 26 271 l 241 368 q 233 314 236 340 q 231 258 231 287 q 252 143 231 192 q 308 64 274 95 q 385 18 342 33 q 469 3 427 3 q 603 42 547 3 q 695 146 659 81 q 748 299 731 212 q 765 482 765 387 q 756 601 765 536 q 734 731 748 665 q 702 860 720 798 q 663 970 683 922 l 889 999 q 929 794 916 898 q 942 587 942 691 q 931 410 942 494 q 895 254 920 326 q 830 124 870 182 q 733 25 790 66 q 600 -38 675 -16 q 427 -60 524 -60 m 1008 1129 l 925 1021 l 754 1208 l 614 1021 l 515 1107 l 758 1299 l 1008 1129 z "},"Ķ":{"ha":1036,"x_min":117,"x_max":1014,"o":"m 321 964 l 281 374 q 413 460 349 411 q 533 566 477 510 q 638 679 590 621 q 723 791 686 737 q 785 893 760 846 q 818 975 809 941 l 1014 925 q 950 815 992 874 q 851 694 908 755 q 727 572 795 632 q 585 458 659 511 l 1003 18 l 786 -37 l 504 404 q 389 339 446 368 q 275 292 332 311 l 256 -8 l 117 -11 l 117 972 l 321 964 m 407 -273 q 428 -243 418 -260 q 437 -208 437 -227 l 437 -204 q 389 -178 408 -200 q 370 -126 370 -156 q 376 -95 370 -110 q 393 -70 382 -81 q 418 -54 404 -60 q 448 -47 432 -47 q 485 -57 469 -47 q 512 -81 501 -66 q 529 -115 523 -96 q 534 -154 534 -134 q 528 -197 534 -176 q 511 -237 522 -218 q 484 -271 500 -256 q 448 -296 468 -286 l 407 -273 z "},"Ĺ":{"ha":882,"x_min":110,"x_max":864,"o":"m 864 192 l 854 -1 l 125 -4 l 110 958 l 330 987 q 309 770 319 882 q 290 545 298 659 q 277 319 282 431 q 273 98 273 206 l 273 68 q 359 73 309 69 q 466 83 409 77 q 582 99 523 90 q 695 122 642 109 q 793 153 749 136 q 864 192 838 170 m 608 1198 l 319 1065 l 272 1124 l 509 1332 l 608 1198 z "},"Ļ":{"ha":882,"x_min":110,"x_max":864,"o":"m 864 192 l 854 -1 l 125 -4 l 110 958 l 330 987 q 309 770 319 882 q 290 545 298 659 q 277 319 282 431 q 273 98 273 206 l 273 68 q 359 73 309 69 q 466 83 409 77 q 582 99 523 90 q 695 122 642 109 q 793 153 749 136 q 864 192 838 170 m 396 -273 q 417 -243 408 -260 q 427 -208 427 -227 l 427 -204 q 378 -178 397 -200 q 359 -126 359 -156 q 365 -95 359 -110 q 382 -70 372 -81 q 407 -54 393 -60 q 437 -47 421 -47 q 474 -57 458 -47 q 501 -81 490 -66 q 518 -115 512 -96 q 524 -154 524 -134 q 517 -197 524 -176 q 500 -237 511 -218 q 473 -271 489 -256 q 437 -296 457 -286 l 396 -273 z "},"Ŀ":{"ha":1097,"x_min":110,"x_max":1031,"o":"m 864 192 l 854 -1 l 125 -4 l 110 958 l 330 987 q 309 770 319 882 q 290 545 298 659 q 277 319 282 431 q 273 98 273 206 l 273 68 q 359 73 309 69 q 466 83 409 77 q 582 99 523 90 q 695 122 642 109 q 793 153 749 136 q 864 192 838 170 m 1031 509 q 1022 466 1031 486 q 998 431 1013 446 q 963 407 983 416 q 920 399 943 399 q 877 407 897 399 q 842 431 857 416 q 819 466 827 446 q 810 509 810 486 q 819 551 810 532 q 842 586 827 571 q 877 609 857 601 q 920 618 897 618 q 963 609 943 618 q 998 586 983 601 q 1022 551 1013 571 q 1031 509 1031 532 z "},"Ľ":{"ha":882,"x_min":110,"x_max":864,"o":"m 864 192 l 854 -1 l 125 -4 l 110 958 l 330 987 q 309 770 319 882 q 290 545 298 659 q 277 319 282 431 q 273 98 273 206 l 273 68 q 359 73 309 69 q 466 83 409 77 q 582 99 523 90 q 695 122 642 109 q 793 153 749 136 q 864 192 838 170 m 454 787 q 475 818 466 802 q 484 852 484 834 l 484 857 q 437 884 456 863 q 418 935 418 905 q 424 966 418 951 q 441 991 431 980 q 466 1008 452 1002 q 496 1014 480 1014 q 533 1005 517 1014 q 560 981 549 996 q 576 946 571 966 q 582 907 582 927 q 576 864 582 885 q 559 824 570 842 q 532 790 548 805 q 496 765 516 775 l 454 787 z "},"Ń":{"ha":1154,"x_min":106,"x_max":1060,"o":"m 1060 966 q 1060 939 1060 966 q 1059 865 1060 912 q 1056 753 1058 817 q 1050 614 1054 689 q 1041 459 1046 540 q 1027 298 1036 378 q 1008 141 1019 218 q 982 0 997 65 l 852 -5 q 777 110 819 45 q 689 245 734 174 q 596 390 643 316 q 505 532 549 463 q 294 867 403 694 q 290 515 291 682 q 289 370 289 444 q 289 228 289 296 q 291 100 290 159 q 296 0 293 41 l 151 -18 q 133 111 140 39 q 120 264 125 184 q 113 427 115 344 q 109 589 110 510 q 109 968 106 772 l 379 989 l 864 147 q 873 337 871 235 q 870 546 874 438 q 858 764 867 654 q 836 982 849 875 l 1060 966 m 873 1139 l 584 1006 l 536 1064 l 774 1272 l 873 1139 z "},"Ņ":{"ha":1154,"x_min":106,"x_max":1060,"o":"m 1060 966 q 1060 939 1060 966 q 1059 865 1060 912 q 1056 753 1058 817 q 1050 614 1054 689 q 1041 459 1046 540 q 1027 298 1036 378 q 1008 141 1019 218 q 982 0 997 65 l 852 -5 q 777 110 819 45 q 689 245 734 174 q 596 390 643 316 q 505 532 549 463 q 294 867 403 694 q 290 515 291 682 q 289 370 289 444 q 289 228 289 296 q 291 100 290 159 q 296 0 293 41 l 151 -18 q 133 111 140 39 q 120 264 125 184 q 113 427 115 344 q 109 589 110 510 q 109 968 106 772 l 379 989 l 864 147 q 873 337 871 235 q 870 546 874 438 q 858 764 867 654 q 836 982 849 875 l 1060 966 m 532 -273 q 553 -243 543 -260 q 562 -208 562 -227 l 562 -204 q 514 -178 533 -200 q 494 -126 494 -156 q 501 -95 494 -110 q 518 -70 507 -81 q 543 -54 528 -60 q 573 -47 557 -47 q 610 -57 594 -47 q 637 -81 626 -66 q 653 -115 648 -96 q 659 -154 659 -134 q 653 -197 659 -176 q 636 -237 647 -218 q 609 -271 625 -256 q 573 -296 593 -286 l 532 -273 z "},"Ň":{"ha":1154,"x_min":106,"x_max":1060,"o":"m 1060 966 q 1060 939 1060 966 q 1059 865 1060 912 q 1056 753 1058 817 q 1050 614 1054 689 q 1041 459 1046 540 q 1027 298 1036 378 q 1008 141 1019 218 q 982 0 997 65 l 852 -5 q 777 110 819 45 q 689 245 734 174 q 596 390 643 316 q 505 532 549 463 q 294 867 403 694 q 290 515 291 682 q 289 370 289 444 q 289 228 289 296 q 291 100 290 159 q 296 0 293 41 l 151 -18 q 133 111 140 39 q 120 264 125 184 q 113 427 115 344 q 109 589 110 510 q 109 968 106 772 l 379 989 l 864 147 q 873 337 871 235 q 870 546 874 438 q 858 764 867 654 q 836 982 849 875 l 1060 966 m 823 1128 l 573 958 l 330 1150 l 429 1236 l 569 1049 l 740 1236 l 823 1128 z "},"Ŋ":{"ha":1154,"x_min":106,"x_max":1060,"o":"m 1060 966 q 1059 926 1060 962 q 1055 830 1057 889 q 1047 696 1052 772 q 1037 539 1043 621 q 1024 375 1031 458 q 1009 220 1017 293 q 991 90 1001 147 q 971 0 982 32 q 905 -147 943 -85 q 814 -250 867 -209 q 690 -312 762 -292 q 524 -332 619 -332 q 430 -322 473 -332 q 350 -297 387 -313 q 282 -258 313 -281 q 222 -210 250 -236 l 351 -132 q 394 -193 370 -167 q 447 -235 418 -218 q 506 -261 475 -252 q 567 -269 536 -269 q 667 -249 622 -269 q 747 -192 712 -229 q 806 -105 781 -155 q 846 4 831 -55 q 769 120 811 56 q 682 255 727 184 q 590 398 637 326 q 501 538 544 471 q 294 867 399 698 q 290 515 291 682 q 289 370 289 444 q 289 228 289 296 q 291 100 290 159 q 296 0 293 41 l 151 -18 q 133 111 140 39 q 120 264 125 184 q 113 427 115 344 q 109 589 110 510 q 109 968 106 772 l 379 989 l 864 147 q 873 337 871 235 q 870 546 874 438 q 858 764 867 654 q 836 982 849 875 l 1060 966 z "},"Ō":{"ha":1204,"x_min":60,"x_max":1146,"o":"m 1146 489 q 1126 341 1146 411 q 1071 213 1107 272 q 985 107 1035 154 q 873 28 935 60 q 743 -22 812 -5 q 597 -40 673 -40 q 381 -2 480 -40 q 211 104 283 35 q 100 271 140 174 q 60 489 60 369 q 79 635 60 566 q 132 763 98 704 q 216 869 167 821 q 325 949 264 916 q 453 1000 385 982 q 597 1018 522 1018 q 743 1001 673 1018 q 874 951 813 983 q 985 871 935 918 q 1071 766 1036 825 q 1126 637 1107 707 q 1146 489 1146 568 m 960 489 q 950 598 960 543 q 922 704 941 653 q 874 801 903 755 q 806 879 846 846 q 716 932 766 913 q 604 951 666 951 q 492 932 543 951 q 403 879 442 912 q 334 800 363 845 q 286 703 305 755 q 258 597 267 652 q 249 489 249 542 q 257 376 249 433 q 283 269 265 320 q 329 173 300 218 q 396 96 357 129 q 487 45 435 64 q 604 26 539 26 q 718 45 667 26 q 809 98 769 64 q 877 175 848 131 q 924 271 905 220 q 951 378 942 323 q 960 489 960 434 m 839 1198 l 834 1057 q 613 1067 723 1065 q 391 1068 503 1069 l 387 1179 l 839 1198 z "},"Ŏ":{"ha":1204,"x_min":60,"x_max":1146,"o":"m 1146 489 q 1126 341 1146 411 q 1071 213 1107 272 q 985 107 1035 154 q 873 28 935 60 q 743 -22 812 -5 q 597 -40 673 -40 q 381 -2 480 -40 q 211 104 283 35 q 100 271 140 174 q 60 489 60 369 q 79 635 60 566 q 132 763 98 704 q 216 869 167 821 q 325 949 264 916 q 453 1000 385 982 q 597 1018 522 1018 q 743 1001 673 1018 q 874 951 813 983 q 985 871 935 918 q 1071 766 1036 825 q 1126 637 1107 707 q 1146 489 1146 568 m 960 489 q 950 598 960 543 q 922 704 941 653 q 874 801 903 755 q 806 879 846 846 q 716 932 766 913 q 604 951 666 951 q 492 932 543 951 q 403 879 442 912 q 334 800 363 845 q 286 703 305 755 q 258 597 267 652 q 249 489 249 542 q 257 376 249 433 q 283 269 265 320 q 329 173 300 218 q 396 96 357 129 q 487 45 435 64 q 604 26 539 26 q 718 45 667 26 q 809 98 769 64 q 877 175 848 131 q 924 271 905 220 q 951 378 942 323 q 960 489 960 434 m 819 1263 q 793 1188 812 1225 q 746 1124 774 1152 q 681 1079 718 1096 q 603 1062 645 1062 q 523 1078 559 1062 q 458 1121 486 1094 q 411 1185 430 1148 q 385 1262 393 1221 l 529 1303 q 523 1266 526 1285 q 521 1229 521 1248 q 525 1194 521 1213 q 538 1158 529 1175 q 561 1130 547 1141 q 594 1119 574 1119 q 640 1134 622 1119 q 667 1171 657 1149 q 682 1218 677 1192 q 686 1265 686 1243 q 685 1284 686 1274 q 684 1303 684 1293 l 819 1263 z "},"Ő":{"ha":1204,"x_min":60,"x_max":1146,"o":"m 1146 489 q 1126 341 1146 411 q 1071 213 1107 272 q 985 107 1035 154 q 873 28 935 60 q 743 -22 812 -5 q 597 -40 673 -40 q 381 -2 480 -40 q 211 104 283 35 q 100 271 140 174 q 60 489 60 369 q 79 635 60 566 q 132 763 98 704 q 216 869 167 821 q 325 949 264 916 q 453 1000 385 982 q 597 1018 522 1018 q 743 1001 673 1018 q 874 951 813 983 q 985 871 935 918 q 1071 766 1036 825 q 1126 637 1107 707 q 1146 489 1146 568 m 960 489 q 950 598 960 543 q 922 704 941 653 q 874 801 903 755 q 806 879 846 846 q 716 932 766 913 q 604 951 666 951 q 492 932 543 951 q 403 879 442 912 q 334 800 363 845 q 286 703 305 755 q 258 597 267 652 q 249 489 249 542 q 257 376 249 433 q 283 269 265 320 q 329 173 300 218 q 396 96 357 129 q 487 45 435 64 q 604 26 539 26 q 718 45 667 26 q 809 98 769 64 q 877 175 848 131 q 924 271 905 220 q 951 378 942 323 q 960 489 960 434 m 757 1267 l 524 1051 l 476 1109 l 630 1360 l 757 1267 m 979 1212 l 718 1051 l 671 1109 l 880 1345 l 979 1212 z "}}}
